<?xml version="1.0" encoding="utf-8"?>
<!-- Generator: Adobe Illustrator 25.0.0, SVG Export Plug-In . SVG Version: 6.00 Build 0)  -->
<svg version="1.1" xmlns="http://www.w3.org/2000/svg" xmlns:xlink="http://www.w3.org/1999/xlink" x="0px" y="0px"
	 viewBox="0 0 500 500" style="enable-background:new 0 0 500 500;" xml:space="preserve">
<style type="text/css">
	.st0{display:none;}
	.st1{display:inline;fill:#009FE3;}
	.st2{display:inline;}
	.st3{clip-path:url(#SVGID_2_);}
	.st4{clip-path:url(#SVGID_4_);}
	.st5{clip-path:url(#SVGID_6_);}
	.st6{fill:url(#SVGID_7_);}
	.st7{fill:#FFFFFF;}
	.st8{opacity:0.5;fill:#FFFFFF;}
	.st9{opacity:0.5;fill:url(#SVGID_8_);}
	.st10{opacity:0.5;fill:url(#SVGID_9_);}
	.st11{opacity:0.5;fill:url(#SVGID_10_);}
	.st12{opacity:0.5;fill:url(#SVGID_11_);}
	.st13{opacity:0.5;fill:url(#SVGID_12_);}
	.st14{opacity:0.5;fill:url(#SVGID_13_);}
	.st15{fill:url(#SVGID_14_);}
	.st16{fill:url(#SVGID_15_);}
	.st17{opacity:0.5;fill:url(#SVGID_16_);}
	.st18{opacity:0.5;fill:url(#SVGID_17_);}
	.st19{opacity:0.5;fill:url(#SVGID_18_);}
	.st20{opacity:0.5;fill:url(#SVGID_19_);}
	.st21{opacity:0.5;fill:url(#SVGID_20_);}
	.st22{opacity:0.5;fill:url(#SVGID_21_);}
	.st23{fill:url(#SVGID_22_);}
	.st24{fill:url(#SVGID_23_);}
	.st25{opacity:0.5;fill:url(#SVGID_24_);}
	.st26{opacity:0.5;fill:url(#SVGID_25_);}
	.st27{opacity:0.5;fill:url(#SVGID_26_);}
	.st28{opacity:0.5;fill:url(#SVGID_27_);}
	.st29{opacity:0.5;fill:url(#SVGID_28_);}
	.st30{opacity:0.5;fill:url(#SVGID_29_);}
	.st31{fill:url(#SVGID_30_);}
	.st32{fill:url(#SVGID_31_);}
	.st33{opacity:0.5;fill:url(#SVGID_32_);}
	.st34{opacity:0.5;fill:url(#SVGID_33_);}
	.st35{opacity:0.5;fill:url(#SVGID_34_);}
	.st36{opacity:0.5;fill:url(#SVGID_35_);}
	.st37{opacity:0.5;fill:url(#SVGID_36_);}
	.st38{opacity:0.5;fill:url(#SVGID_37_);}
	.st39{fill:url(#SVGID_38_);}
	.st40{fill:url(#SVGID_39_);}
	.st41{opacity:0.5;fill:url(#SVGID_40_);}
	.st42{opacity:0.5;fill:url(#SVGID_41_);}
	.st43{opacity:0.5;fill:url(#SVGID_42_);}
	.st44{opacity:0.5;fill:url(#SVGID_43_);}
	.st45{opacity:0.5;fill:url(#SVGID_44_);}
	.st46{opacity:0.5;fill:url(#SVGID_45_);}
	.st47{fill:url(#SVGID_46_);}
	.st48{fill:url(#SVGID_47_);}
	.st49{opacity:0.5;fill:url(#SVGID_48_);}
	.st50{opacity:0.5;fill:url(#SVGID_49_);}
	.st51{opacity:0.5;fill:url(#SVGID_50_);}
	.st52{opacity:0.5;fill:url(#SVGID_51_);}
	.st53{opacity:0.5;fill:url(#SVGID_52_);}
	.st54{opacity:0.5;fill:url(#SVGID_53_);}
	.st55{fill:url(#SVGID_54_);}
	.st56{fill:url(#SVGID_55_);}
	.st57{opacity:0.5;fill:url(#SVGID_56_);}
	.st58{opacity:0.5;fill:url(#SVGID_57_);}
	.st59{opacity:0.5;fill:url(#SVGID_58_);}
	.st60{opacity:0.5;fill:url(#SVGID_59_);}
	.st61{opacity:0.5;fill:url(#SVGID_60_);}
	.st62{opacity:0.5;fill:url(#SVGID_61_);}
	.st63{fill:url(#SVGID_62_);}
	.st64{fill:url(#SVGID_63_);}
	.st65{opacity:0.5;fill:url(#SVGID_64_);}
	.st66{opacity:0.5;fill:url(#SVGID_65_);}
	.st67{opacity:0.5;fill:url(#SVGID_66_);}
	.st68{opacity:0.5;fill:url(#SVGID_67_);}
	.st69{opacity:0.5;fill:url(#SVGID_68_);}
	.st70{opacity:0.5;fill:url(#SVGID_69_);}
	.st71{fill:url(#SVGID_70_);}
	.st72{fill:url(#SVGID_71_);}
	.st73{opacity:0.5;fill:url(#SVGID_72_);}
	.st74{opacity:0.5;fill:url(#SVGID_73_);}
	.st75{opacity:0.5;fill:url(#SVGID_74_);}
	.st76{opacity:0.5;fill:url(#SVGID_75_);}
	.st77{opacity:0.5;fill:url(#SVGID_76_);}
	.st78{opacity:0.5;fill:url(#SVGID_77_);}
	.st79{fill:url(#SVGID_78_);}
	.st80{fill:url(#SVGID_79_);}
	.st81{opacity:0.5;fill:url(#SVGID_80_);}
	.st82{opacity:0.5;fill:url(#SVGID_81_);}
	.st83{opacity:0.5;fill:url(#SVGID_82_);}
	.st84{opacity:0.5;fill:url(#SVGID_83_);}
	.st85{opacity:0.5;fill:url(#SVGID_84_);}
	.st86{opacity:0.5;fill:url(#SVGID_85_);}
	.st87{fill:url(#SVGID_86_);}
	.st88{fill:url(#SVGID_87_);}
	.st89{opacity:0.5;fill:url(#SVGID_88_);}
	.st90{opacity:0.5;fill:url(#SVGID_89_);}
	.st91{opacity:0.5;fill:url(#SVGID_90_);}
	.st92{opacity:0.5;fill:url(#SVGID_91_);}
	.st93{opacity:0.5;fill:url(#SVGID_92_);}
	.st94{opacity:0.5;fill:url(#SVGID_93_);}
	.st95{fill:url(#SVGID_94_);}
	.st96{fill:url(#SVGID_95_);}
	.st97{opacity:0.5;fill:url(#SVGID_96_);}
	.st98{opacity:0.5;fill:url(#SVGID_97_);}
	.st99{opacity:0.5;fill:url(#SVGID_98_);}
	.st100{opacity:0.5;fill:url(#SVGID_99_);}
	.st101{opacity:0.5;fill:url(#SVGID_100_);}
	.st102{opacity:0.5;fill:url(#SVGID_101_);}
	.st103{fill:url(#SVGID_102_);}
	.st104{fill:url(#SVGID_103_);}
	.st105{opacity:0.5;fill:url(#SVGID_104_);}
	.st106{opacity:0.5;fill:url(#SVGID_105_);}
	.st107{opacity:0.5;fill:url(#SVGID_106_);}
	.st108{opacity:0.5;fill:url(#SVGID_107_);}
	.st109{opacity:0.5;fill:url(#SVGID_108_);}
	.st110{opacity:0.5;fill:url(#SVGID_109_);}
	.st111{opacity:0.5;fill:url(#SVGID_110_);}
	.st112{opacity:0.5;fill:url(#SVGID_111_);}
	.st113{opacity:0.5;fill:url(#SVGID_112_);}
	.st114{display:inline;fill:url(#SVGID_113_);}
	.st115{fill:url(#SVGID_116_);}
</style>
<g id="Слой_1" class="st0">
	<circle class="st1" cx="258.5" cy="280" r="155.7"/>
	<path class="st1" d="M123.2,242.2c-18.2-5.4-27-36.7-28.2-41.3c-5.6-20.1,1.6-23.8-3.7-46.4c-6.4-27.2-20.5-39.1-14.8-46.9
		c1.5-2.1,4.8-4.4,23.5-3.2c19.1,1.3,37.7,2.5,61.3,13.7c22.5,10.6,35.3,16.7,40.3,29.1C216.2,183.5,155.1,251.6,123.2,242.2z"/>
	<path class="st1" d="M400.3,249.1c18.2-5.4,27-36.7,28.2-41.3c5.6-20.1-1.6-23.8,3.7-46.4c6.4-27.2,20.5-39.1,14.8-46.9
		c-1.5-2.1-4.8-4.4-23.5-3.2c-19.1,1.3-37.7,2.5-61.3,13.7c-22.5,10.6-35.3,16.7-40.3,29.1C307.2,190.4,368.4,258.5,400.3,249.1z"/>
</g>
<g id="Слой_2" class="st0">
	
		<image style="display:inline;overflow:visible;" width="1920" height="1080" xlink:href="D8E41EC4.jpg"  transform="matrix(1 0 0 1 -1219.2043 -438.1533)">
	</image>
</g>
<g id="Слой_3" class="st0">
</g>
<g id="Слой_5" class="st0">
	<g class="st2">
		<defs>
			<rect id="SVGID_1_" width="500" height="500"/>
		</defs>
		<clipPath id="SVGID_2_">
			<use xlink:href="#SVGID_1_"  style="overflow:visible;"/>
		</clipPath>
		<g class="st3">
			<defs>
				<rect id="SVGID_3_" x="-178.9" y="-19.7" width="791.2" height="527.4"/>
			</defs>
			<clipPath id="SVGID_4_">
				<use xlink:href="#SVGID_3_"  style="overflow:visible;"/>
			</clipPath>
			<g class="st4">
				<defs>
					<rect id="SVGID_5_" x="-178.9" y="-19.7" width="791.2" height="527.4"/>
				</defs>
				<clipPath id="SVGID_6_">
					<use xlink:href="#SVGID_5_"  style="overflow:visible;"/>
				</clipPath>
				<g class="st5">
					<g>
						<radialGradient id="SVGID_7_" cx="216.6939" cy="243.9805" r="336.1786" gradientUnits="userSpaceOnUse">
							<stop  offset="5.925930e-02" style="stop-color:#000A57"/>
							<stop  offset="0.963" style="stop-color:#000228"/>
						</radialGradient>
						<rect x="-178.9" y="-19.7" class="st6" width="791.2" height="527.4"/>
					</g>
				</g>
			</g>
			<g class="st4">
				<path class="st7" d="M-96.7,149.4c0,0,1.2,2.8,1.9,3.5c0.7,0.7,3.5,1.9,3.5,1.9s-2.8,1.2-3.5,1.9c-0.7,0.7-1.9,3.5-1.9,3.5
					s-1.2-2.8-1.9-3.5c-0.7-0.7-3.5-1.9-3.5-1.9s2.8-1.2,3.5-1.9C-98,152.2-96.7,149.4-96.7,149.4z"/>
				<path class="st8" d="M-81.6,22c0,0,1.2,2.8,1.9,3.5c0.7,0.7,3.5,1.9,3.5,1.9s-2.8,1.2-3.5,1.9c-0.7,0.7-1.9,3.5-1.9,3.5
					s-1.2-2.8-1.9-3.5c-0.7-0.7-3.5-1.9-3.5-1.9s2.8-1.2,3.5-1.9C-82.9,24.8-81.6,22-81.6,22z"/>
				<path class="st7" d="M82.6,129.9c0,0,1.2,2.8,1.9,3.5c0.7,0.7,3.5,1.9,3.5,1.9s-2.8,1.2-3.5,1.9c-0.7,0.7-1.9,3.5-1.9,3.5
					s-1.2-2.8-1.9-3.5c-0.7-0.7-3.5-1.9-3.5-1.9s2.8-1.2,3.5-1.9C81.3,132.7,82.6,129.9,82.6,129.9z"/>
				<path class="st7" d="M95.3,69.1c0,0,2,4.7,3.2,5.9c1.2,1.2,5.9,3.2,5.9,3.2s-4.7,2-5.9,3.2c-1.2,1.2-3.2,5.9-3.2,5.9
					s-2-4.7-3.2-5.9c-1.2-1.2-5.9-3.2-5.9-3.2s4.7-2,5.9-3.2C93.2,73.8,95.3,69.1,95.3,69.1z"/>
				<path class="st7" d="M101.9,176.6c0,0,2,4.7,3.2,5.9c1.2,1.2,5.9,3.2,5.9,3.2s-4.7,2-5.9,3.2c-1.2,1.2-3.2,5.9-3.2,5.9
					s-2-4.7-3.2-5.9c-1.2-1.2-5.9-3.2-5.9-3.2s4.7-2,5.9-3.2C99.9,181.3,101.9,176.6,101.9,176.6z"/>
				<path class="st7" d="M-129.9,58.3c0,0,2,4.7,3.2,5.9c1.2,1.2,5.9,3.2,5.9,3.2s-4.7,2-5.9,3.2c-1.2,1.2-3.2,5.9-3.2,5.9
					s-2-4.7-3.2-5.9c-1.2-1.2-5.9-3.2-5.9-3.2s4.7-2,5.9-3.2C-132,62.9-129.9,58.3-129.9,58.3z"/>
				<path class="st7" d="M373.3,422.8c0,0,1.2,2.8,1.9,3.5c0.7,0.7,3.5,1.9,3.5,1.9s-2.8,1.2-3.5,1.9c-0.7,0.7-1.9,3.5-1.9,3.5
					s-1.2-2.8-1.9-3.5c-0.7-0.7-3.5-1.9-3.5-1.9s2.8-1.2,3.5-1.9C372.1,425.6,373.3,422.8,373.3,422.8z"/>
				<path class="st7" d="M388.4,295.4c0,0,1.2,2.8,1.9,3.5c0.7,0.7,3.5,1.9,3.5,1.9s-2.8,1.2-3.5,1.9c-0.7,0.7-1.9,3.5-1.9,3.5
					s-1.2-2.8-1.9-3.5c-0.7-0.7-3.5-1.9-3.5-1.9s2.8-1.2,3.5-1.9C387.2,298.2,388.4,295.4,388.4,295.4z"/>
				<path class="st7" d="M552.6,403.3c0,0,1.2,2.8,1.9,3.5c0.7,0.7,3.5,1.9,3.5,1.9s-2.8,1.2-3.5,1.9c-0.7,0.7-1.9,3.5-1.9,3.5
					s-1.2-2.8-1.9-3.5s-3.5-1.9-3.5-1.9s2.8-1.2,3.5-1.9C551.4,406.1,552.6,403.3,552.6,403.3z"/>
				<path class="st7" d="M565.3,342.5c0,0,2,4.7,3.2,5.9c1.2,1.2,5.9,3.2,5.9,3.2s-4.7,2-5.9,3.2c-1.2,1.2-3.2,5.9-3.2,5.9
					s-2-4.7-3.2-5.9c-1.2-1.2-5.9-3.2-5.9-3.2s4.7-2,5.9-3.2C563.3,347.2,565.3,342.5,565.3,342.5z"/>
				<path class="st8" d="M571.9,450c0,0,2,4.7,3.2,5.9c1.2,1.2,5.9,3.2,5.9,3.2s-4.7,2-5.9,3.2c-1.2,1.2-3.2,5.9-3.2,5.9
					s-2-4.7-3.2-5.9c-1.2-1.2-5.9-3.2-5.9-3.2s4.7-2,5.9-3.2C569.9,454.6,571.9,450,571.9,450z"/>
				<path class="st8" d="M340.1,331.6c0,0,2,4.7,3.2,5.9c1.2,1.2,5.9,3.2,5.9,3.2s-4.7,2-5.9,3.2c-1.2,1.2-3.2,5.9-3.2,5.9
					s-2-4.7-3.2-5.9c-1.2-1.2-5.9-3.2-5.9-3.2s4.7-2,5.9-3.2C338,336.3,340.1,331.6,340.1,331.6z"/>
				<path class="st7" d="M161.1,409.4c0,0,0.9,2,1.4,2.5c0.5,0.5,2.5,1.4,2.5,1.4s-2,0.9-2.5,1.4c-0.5,0.5-1.4,2.5-1.4,2.5
					s-0.9-2-1.4-2.5c-0.5-0.5-2.5-1.4-2.5-1.4s2-0.9,2.5-1.4C160.2,411.4,161.1,409.4,161.1,409.4z"/>
				<path class="st7" d="M172.1,317c0,0,0.9,2,1.4,2.5s2.5,1.4,2.5,1.4s-2,0.9-2.5,1.4s-1.4,2.5-1.4,2.5s-0.9-2-1.4-2.5
					c-0.5-0.5-2.5-1.4-2.5-1.4s2-0.9,2.5-1.4C171.2,319,172.1,317,172.1,317z"/>
				<path class="st7" d="M291.2,395.2c0,0,0.9,2,1.4,2.5s2.5,1.4,2.5,1.4s-2,0.9-2.5,1.4c-0.5,0.5-1.4,2.5-1.4,2.5s-0.9-2-1.4-2.5
					c-0.5-0.5-2.5-1.4-2.5-1.4s2-0.9,2.5-1.4S291.2,395.2,291.2,395.2z"/>
				<path class="st7" d="M300.4,351.1c0,0,1.5,3.4,2.3,4.2c0.9,0.9,4.2,2.3,4.2,2.3s-3.4,1.5-4.2,2.3c-0.9,0.9-2.3,4.2-2.3,4.2
					s-1.5-3.4-2.3-4.2c-0.9-0.9-4.2-2.3-4.2-2.3s3.4-1.5,4.2-2.3C299,354.5,300.4,351.1,300.4,351.1z"/>
				<path class="st8" d="M305.2,429.1c0,0,1.5,3.4,2.3,4.2c0.9,0.9,4.2,2.3,4.2,2.3s-3.4,1.5-4.2,2.3c-0.9,0.9-2.3,4.2-2.3,4.2
					s-1.5-3.4-2.3-4.2c-0.9-0.9-4.2-2.3-4.2-2.3s3.4-1.5,4.2-2.3C303.8,432.5,305.2,429.1,305.2,429.1z"/>
				<path class="st7" d="M137,343.3c0,0,1.5,3.4,2.3,4.2c0.9,0.9,4.2,2.3,4.2,2.3s-3.4,1.5-4.2,2.3c-0.9,0.9-2.3,4.2-2.3,4.2
					s-1.5-3.4-2.3-4.2c-0.9-0.9-4.2-2.3-4.2-2.3s3.4-1.5,4.2-2.3C135.5,346.6,137,343.3,137,343.3z"/>
				<path class="st7" d="M297.7,120.8c0,0,0.8-2.1,0.8-2.8c0-0.7-0.8-2.8-0.8-2.8s2.1,0.8,2.8,0.8c0.7,0,2.8-0.8,2.8-0.8
					s-0.8,2.1-0.8,2.8c0,0.7,0.8,2.8,0.8,2.8s-2.1-0.8-2.8-0.8C299.8,120,297.7,120.8,297.7,120.8z"/>
				<path class="st7" d="M224.6,178.4c0,0,0.8-2.1,0.8-2.8c0-0.7-0.8-2.8-0.8-2.8s2.1,0.8,2.8,0.8c0.7,0,2.8-0.8,2.8-0.8
					s-0.8,2.1-0.8,2.8c0,0.7,0.8,2.8,0.8,2.8s-2.1-0.8-2.8-0.8C226.7,177.6,224.6,178.4,224.6,178.4z"/>
				<path class="st7" d="M195.7,38.8c0,0,0.8-2.1,0.8-2.8c0-0.7-0.8-2.8-0.8-2.8s2.1,0.8,2.8,0.8c0.7,0,2.8-0.8,2.8-0.8
					s-0.8,2.1-0.8,2.8c0,0.7,0.8,2.8,0.8,2.8s-2.1-0.8-2.8-0.8C197.8,38,195.7,38.8,195.7,38.8z"/>
				<path class="st8" d="M158,63.5c0,0,1.4-3.4,1.4-4.6c0-1.2-1.4-4.6-1.4-4.6s3.4,1.4,4.6,1.4c1.2,0,4.6-1.4,4.6-1.4
					s-1.4,3.4-1.4,4.6c0,1.2,1.4,4.6,1.4,4.6s-3.4-1.4-4.6-1.4C161.5,62.1,158,63.5,158,63.5z"/>
				<path class="st7" d="M209.8,4.9c0,0,1.4-3.4,1.4-4.6s-1.4-4.6-1.4-4.6s3.4,1.4,4.6,1.4c1.2,0,4.6-1.4,4.6-1.4s-1.4,3.4-1.4,4.6
					s1.4,4.6,1.4,4.6s-3.4-1.4-4.6-1.4S209.8,4.9,209.8,4.9z"/>
				<path class="st8" d="M268,184.6c0,0,1.4-3.4,1.4-4.6c0-1.2-1.4-4.6-1.4-4.6s3.4,1.4,4.6,1.4c1.2,0,4.6-1.4,4.6-1.4
					s-1.4,3.4-1.4,4.6c0,1.2,1.4,4.6,1.4,4.6s-3.4-1.4-4.6-1.4C271.4,183.3,268,184.6,268,184.6z"/>
				<path class="st8" d="M582.9,158.4c0,0,1.1-2.8,1.1-3.8c0-1-1.1-3.8-1.1-3.8s2.8,1.1,3.8,1.1c1,0,3.8-1.1,3.8-1.1
					s-1.1,2.8-1.1,3.8c0,1,1.1,3.8,1.1,3.8s-2.8-1.1-3.8-1.1C585.7,157.3,582.9,158.4,582.9,158.4z"/>
				<path class="st7" d="M482.1,237.8c0,0,1.1-2.8,1.1-3.8s-1.1-3.8-1.1-3.8s2.8,1.1,3.8,1.1s3.8-1.1,3.8-1.1s-1.1,2.8-1.1,3.8
					c0,1,1.1,3.8,1.1,3.8s-2.8-1.1-3.8-1.1C485,236.7,482.1,237.8,482.1,237.8z"/>
				<path class="st7" d="M442.3,45.4c0,0,1.1-2.8,1.1-3.8c0-1-1.1-3.8-1.1-3.8s2.8,1.1,3.8,1.1c1,0,3.8-1.1,3.8-1.1
					s-1.1,2.8-1.1,3.8c0,1,1.1,3.8,1.1,3.8s-2.8-1.1-3.8-1.1C445.1,44.3,442.3,45.4,442.3,45.4z"/>
				<path class="st8" d="M390.3,79.4c0,0,1.9-4.7,1.9-6.4c0-1.7-1.9-6.4-1.9-6.4s4.7,1.9,6.4,1.9c1.7,0,6.4-1.9,6.4-1.9
					s-1.9,4.7-1.9,6.4c0,1.7,1.9,6.4,1.9,6.4s-4.7-1.9-6.4-1.9C395.1,77.5,390.3,79.4,390.3,79.4z"/>
				<path class="st7" d="M461.6-1.3c0,0,1.9-4.7,1.9-6.4c0-1.7-1.9-6.4-1.9-6.4s4.7,1.9,6.4,1.9c1.7,0,6.4-1.9,6.4-1.9
					s-1.9,4.7-1.9,6.4c0,1.7,1.9,6.4,1.9,6.4s-4.7-1.9-6.4-1.9C466.4-3.2,461.6-1.3,461.6-1.3z"/>
				<path class="st7" d="M541.9,246.4c0,0,1.9-4.7,1.9-6.4c0-1.7-1.9-6.4-1.9-6.4s4.7,1.9,6.4,1.9c1.7,0,6.4-1.9,6.4-1.9
					s-1.9,4.7-1.9,6.4c0,1.7,1.9,6.4,1.9,6.4s-4.7-1.9-6.4-1.9C546.6,244.5,541.9,246.4,541.9,246.4z"/>
				<path class="st8" d="M81,409.5c0,0,1.1-2.8,1.1-3.8c0-1-1.1-3.8-1.1-3.8s2.8,1.1,3.8,1.1c1,0,3.8-1.1,3.8-1.1s-1.1,2.8-1.1,3.8
					c0,1,1.1,3.8,1.1,3.8s-2.8-1.1-3.8-1.1C83.8,408.4,81,409.5,81,409.5z"/>
				<path class="st7" d="M-19.8,489c0,0,1.1-2.8,1.1-3.8s-1.1-3.8-1.1-3.8s2.8,1.1,3.8,1.1c1,0,3.8-1.1,3.8-1.1s-1.1,2.8-1.1,3.8
					c0,1,1.1,3.8,1.1,3.8s-2.8-1.1-3.8-1.1S-19.8,489-19.8,489z"/>
				<path class="st7" d="M-59.6,296.6c0,0,1.1-2.8,1.1-3.8c0-1-1.1-3.8-1.1-3.8s2.8,1.1,3.8,1.1c1,0,3.8-1.1,3.8-1.1
					s-1.1,2.8-1.1,3.8c0,1,1.1,3.8,1.1,3.8s-2.8-1.1-3.8-1.1C-56.8,295.4-59.6,296.6-59.6,296.6z"/>
				<path class="st8" d="M-111.6,330.6c0,0,1.9-4.7,1.9-6.4c0-1.7-1.9-6.4-1.9-6.4s4.7,1.9,6.4,1.9c1.7,0,6.4-1.9,6.4-1.9
					s-1.9,4.7-1.9,6.4c0,1.7,1.9,6.4,1.9,6.4s-4.7-1.9-6.4-1.9C-106.8,328.7-111.6,330.6-111.6,330.6z"/>
				<path class="st7" d="M-40.3,249.9c0,0,1.9-4.7,1.9-6.4s-1.9-6.4-1.9-6.4s4.7,1.9,6.4,1.9c1.7,0,6.4-1.9,6.4-1.9
					s-1.9,4.7-1.9,6.4c0,1.7,1.9,6.4,1.9,6.4s-4.7-1.9-6.4-1.9C-35.5,248-40.3,249.9-40.3,249.9z"/>
				<path class="st7" d="M40,497.5c0,0,1.9-4.7,1.9-6.4s-1.9-6.4-1.9-6.4s4.7,1.9,6.4,1.9c1.7,0,6.4-1.9,6.4-1.9s-1.9,4.7-1.9,6.4
					s1.9,6.4,1.9,6.4s-4.7-1.9-6.4-1.9C44.7,495.6,40,497.5,40,497.5z"/>
				<g>
					<radialGradient id="SVGID_8_" cx="-8.8612" cy="220.2399" r="236.9238" gradientUnits="userSpaceOnUse">
						<stop  offset="5.925930e-02" style="stop-color:#000E57"/>
						<stop  offset="0.8889" style="stop-color:#0279B1"/>
					</radialGradient>
					<path class="st9" d="M74.2,169.9c1.7,0,3-1.4,3-3c0-1.7-1.4-3-3-3s-3,1.4-3,3C71.2,168.6,72.6,169.9,74.2,169.9z"/>
					<radialGradient id="SVGID_9_" cx="-8.8612" cy="220.2403" r="236.9238" gradientUnits="userSpaceOnUse">
						<stop  offset="5.925930e-02" style="stop-color:#000E57"/>
						<stop  offset="0.8889" style="stop-color:#0279B1"/>
					</radialGradient>
					<path class="st10" d="M25,3.9c0,0,0.7-1.6,1.1-1.9C26.4,1.6,28,0.9,28,0.9S26.4,0.2,26-0.2C25.6-0.6,25-2.1,25-2.1
						s-0.7,1.6-1.1,1.9C23.5,0.2,22,0.9,22,0.9s1.6,0.7,1.9,1.1C24.3,2.3,25,3.9,25,3.9z"/>
					<radialGradient id="SVGID_10_" cx="-8.8602" cy="220.2398" r="236.9234" gradientUnits="userSpaceOnUse">
						<stop  offset="5.925930e-02" style="stop-color:#000E57"/>
						<stop  offset="0.8889" style="stop-color:#0279B1"/>
					</radialGradient>
					<path class="st11" d="M108.3,61.9c0,0,0.7-1.6,1.1-1.9c0.4-0.4,1.9-1.1,1.9-1.1s-1.6-0.7-1.9-1.1c-0.4-0.4-1.1-1.9-1.1-1.9
						s-0.7,1.6-1.1,1.9c-0.4,0.4-1.9,1.1-1.9,1.1s1.6,0.7,1.9,1.1C107.6,60.3,108.3,61.9,108.3,61.9z"/>
					<radialGradient id="SVGID_11_" cx="-8.8612" cy="220.2402" r="236.9245" gradientUnits="userSpaceOnUse">
						<stop  offset="5.925930e-02" style="stop-color:#000E57"/>
						<stop  offset="0.8889" style="stop-color:#0279B1"/>
					</radialGradient>
					<path class="st12" d="M66.8,103.1c0,0,0.7-1.6,1.1-1.9c0.4-0.4,1.9-1.1,1.9-1.1s-1.6-0.7-1.9-1.1c-0.4-0.4-1.1-1.9-1.1-1.9
						s-0.7,1.6-1.1,1.9c-0.4,0.4-1.9,1.1-1.9,1.1s1.6,0.7,1.9,1.1C66.1,101.5,66.8,103.1,66.8,103.1z"/>
					<radialGradient id="SVGID_12_" cx="-8.8609" cy="220.2399" r="236.9248" gradientUnits="userSpaceOnUse">
						<stop  offset="5.925930e-02" style="stop-color:#000E57"/>
						<stop  offset="0.8889" style="stop-color:#0279B1"/>
					</radialGradient>
					<path class="st13" d="M-121.5,195.3c0,0,0.7-1.6,1.1-1.9c0.4-0.4,1.9-1.1,1.9-1.1s-1.6-0.7-1.9-1.1c-0.4-0.4-1.1-1.9-1.1-1.9
						s-0.7,1.6-1.1,1.9c-0.4,0.4-1.9,1.1-1.9,1.1s1.6,0.7,1.9,1.1C-122.1,193.7-121.5,195.3-121.5,195.3z"/>
					<radialGradient id="SVGID_13_" cx="-8.862" cy="220.2377" r="236.9206" gradientUnits="userSpaceOnUse">
						<stop  offset="5.925930e-02" style="stop-color:#000E57"/>
						<stop  offset="0.8889" style="stop-color:#0279B1"/>
					</radialGradient>
					<path class="st14" d="M-86.5,58.9c0,0,0.7-1.6,1.1-1.9c0.4-0.4,1.9-1.1,1.9-1.1s-1.6-0.7-1.9-1.1c-0.4-0.4-1.1-1.9-1.1-1.9
						s-0.7,1.6-1.1,1.9c-0.4,0.4-2,1.1-2,1.1s1.6,0.7,2,1.1C-87.2,57.3-86.5,58.9-86.5,58.9z"/>
					<radialGradient id="SVGID_14_" cx="-108.7948" cy="101.6626" r="18.5927" gradientUnits="userSpaceOnUse">
						<stop  offset="5.925930e-02" style="stop-color:#000E57"/>
						<stop  offset="0.8889" style="stop-color:#0279B1"/>
					</radialGradient>
					<path class="st15" d="M-104.4,103.7c0,0.6-0.5,1-1,1s-1-0.5-1-1c0-0.6,0.5-1,1-1S-104.4,103.1-104.4,103.7z M-96.4,85.2
						c-1.1,0-2,0.9-2,2c0,1.1,0.9,2,2,2c1.1,0,2-0.9,2-2C-94.3,86.1-95.2,85.2-96.4,85.2z M-92.3,109.4c-2.2,0-4,1.8-4,4
						c0,2.2,1.8,4,4,4c2.2,0,4-1.8,4-4C-88.3,111.2-90.1,109.4-92.3,109.4z M-127.3,114.1c-1.1,0-2,0.9-2,2c0,1.1,0.9,2,2,2
						c1.1,0,2-0.9,2-2C-125.3,115-126.2,114.1-127.3,114.1z"/>

						<radialGradient id="SVGID_15_" cx="597.7527" cy="164.463" r="18.5929" gradientTransform="matrix(-0.9964 8.480000e-02 -8.480000e-02 -0.9964 686.2255 146.2745)" gradientUnits="userSpaceOnUse">
						<stop  offset="5.925930e-02" style="stop-color:#000E57"/>
						<stop  offset="0.8889" style="stop-color:#0279B1"/>
					</radialGradient>
					<path class="st16" d="M72.2,31.5c0-0.6,0.4-1,0.9-1.1c0.6,0,1,0.4,1.1,0.9c0,0.6-0.4,1-0.9,1.1C72.7,32.4,72.2,32,72.2,31.5z
						 M65.7,50.6c1.1-0.1,1.9-1.1,1.8-2.2c-0.1-1.1-1.1-1.9-2.2-1.8c-1.1,0.1-1.9,1.1-1.8,2.2C63.6,49.8,64.6,50.6,65.7,50.6z
						 M59.6,26.8c2.2-0.2,3.9-2.1,3.7-4.4c-0.2-2.2-2.1-3.9-4.4-3.7c-2.2,0.2-3.9,2.1-3.7,4.4C55.4,25.3,57.4,27,59.6,26.8z
						 M94,19.1c1.1-0.1,1.9-1.1,1.8-2.2c-0.1-1.1-1.1-1.9-2.2-1.8c-1.1,0.1-1.9,1.1-1.8,2.2C92,18.4,92.9,19.2,94,19.1z"/>
					<radialGradient id="SVGID_16_" cx="461.1574" cy="493.577" r="236.9238" gradientUnits="userSpaceOnUse">
						<stop  offset="5.925930e-02" style="stop-color:#000E57"/>
						<stop  offset="0.8889" style="stop-color:#0279B1"/>
					</radialGradient>
					<path class="st17" d="M544.3,443.3c1.7,0,3-1.4,3-3c0-1.7-1.4-3-3-3s-3,1.4-3,3C541.2,441.9,542.6,443.3,544.3,443.3z"/>
					<radialGradient id="SVGID_17_" cx="461.1573" cy="493.5774" r="236.9238" gradientUnits="userSpaceOnUse">
						<stop  offset="5.925930e-02" style="stop-color:#000E57"/>
						<stop  offset="0.8889" style="stop-color:#0279B1"/>
					</radialGradient>
					<path class="st18" d="M495,277.2c0,0,0.7-1.6,1.1-1.9c0.4-0.4,1.9-1.1,1.9-1.1s-1.6-0.7-1.9-1.1c-0.4-0.4-1.1-1.9-1.1-1.9
						s-0.7,1.6-1.1,1.9c-0.4,0.4-1.9,1.1-1.9,1.1s1.6,0.7,1.9,1.1C494.3,275.7,495,277.2,495,277.2z"/>
					<radialGradient id="SVGID_18_" cx="461.1579" cy="493.5768" r="236.9238" gradientUnits="userSpaceOnUse">
						<stop  offset="5.925930e-02" style="stop-color:#000E57"/>
						<stop  offset="0.8889" style="stop-color:#0279B1"/>
					</radialGradient>
					<path class="st19" d="M578.3,335.2c0,0,0.7-1.6,1.1-1.9c0.4-0.4,1.9-1.1,1.9-1.1s-1.6-0.7-1.9-1.1c-0.4-0.4-1.1-1.9-1.1-1.9
						s-0.7,1.6-1.1,1.9c-0.4,0.4-1.9,1.1-1.9,1.1s1.6,0.7,1.9,1.1C577.6,333.6,578.3,335.2,578.3,335.2z"/>
					<radialGradient id="SVGID_19_" cx="461.1573" cy="493.5773" r="236.9245" gradientUnits="userSpaceOnUse">
						<stop  offset="5.925930e-02" style="stop-color:#000E57"/>
						<stop  offset="0.8889" style="stop-color:#0279B1"/>
					</radialGradient>
					<path class="st20" d="M536.8,376.4c0,0,0.7-1.6,1.1-1.9c0.4-0.4,1.9-1.1,1.9-1.1s-1.6-0.7-1.9-1.1c-0.4-0.4-1.1-1.9-1.1-1.9
						s-0.7,1.6-1.1,1.9c-0.4,0.4-1.9,1.1-1.9,1.1s1.6,0.7,1.9,1.1C536.1,374.8,536.8,376.4,536.8,376.4z"/>
					<radialGradient id="SVGID_20_" cx="461.1577" cy="493.577" r="236.9248" gradientUnits="userSpaceOnUse">
						<stop  offset="5.925930e-02" style="stop-color:#000E57"/>
						<stop  offset="0.8889" style="stop-color:#0279B1"/>
					</radialGradient>
					<path class="st21" d="M348.6,468.6c0,0,0.7-1.6,1.1-1.9c0.4-0.4,1.9-1.1,1.9-1.1s-1.6-0.7-1.9-1.1c-0.4-0.4-1.1-1.9-1.1-1.9
						s-0.7,1.6-1.1,1.9c-0.4,0.4-1.9,1.1-1.9,1.1s1.6,0.7,1.9,1.1C347.9,467.1,348.6,468.6,348.6,468.6z"/>
					<radialGradient id="SVGID_21_" cx="461.1565" cy="493.5776" r="236.924" gradientUnits="userSpaceOnUse">
						<stop  offset="5.925930e-02" style="stop-color:#000E57"/>
						<stop  offset="0.8889" style="stop-color:#0279B1"/>
					</radialGradient>
					<path class="st22" d="M383.5,332.2c0,0,0.7-1.6,1.1-1.9c0.4-0.4,1.9-1.1,1.9-1.1s-1.6-0.7-1.9-1.1c-0.4-0.4-1.1-1.9-1.1-1.9
						s-0.7,1.6-1.1,1.9c-0.4,0.4-2,1.1-2,1.1s1.6,0.7,2,1.1C382.9,330.7,383.5,332.2,383.5,332.2z"/>
					<radialGradient id="SVGID_22_" cx="361.2238" cy="374.9996" r="18.5927" gradientUnits="userSpaceOnUse">
						<stop  offset="5.925930e-02" style="stop-color:#000E57"/>
						<stop  offset="0.8889" style="stop-color:#0279B1"/>
					</radialGradient>
					<path class="st23" d="M365.6,377c0,0.6-0.5,1-1,1s-1-0.5-1-1s0.5-1,1-1S365.6,376.5,365.6,377z M373.7,358.5c-1.1,0-2,0.9-2,2
						c0,1.1,0.9,2,2,2c1.1,0,2-0.9,2-2C375.7,359.4,374.8,358.5,373.7,358.5z M377.7,382.7c-2.2,0-4,1.8-4,4s1.8,4,4,4
						c2.2,0,4-1.8,4-4S379.9,382.7,377.7,382.7z M342.7,387.4c-1.1,0-2,0.9-2,2c0,1.1,0.9,2,2,2c1.1,0,2-0.9,2-2
						C344.8,388.3,343.9,387.4,342.7,387.4z"/>

						<radialGradient id="SVGID_23_" cx="152.607" cy="-147.7464" r="18.5929" gradientTransform="matrix(-0.9964 8.480000e-02 -8.480000e-02 -0.9964 686.2255 146.2745)" gradientUnits="userSpaceOnUse">
						<stop  offset="5.925930e-02" style="stop-color:#000E57"/>
						<stop  offset="0.8889" style="stop-color:#0279B1"/>
					</radialGradient>
					<path class="st24" d="M542.2,304.8c0-0.6,0.4-1,0.9-1.1c0.6,0,1,0.4,1.1,0.9c0,0.6-0.4,1-0.9,1.1
						C542.7,305.8,542.2,305.3,542.2,304.8z M535.7,323.9c1.1-0.1,1.9-1.1,1.8-2.2c-0.1-1.1-1.1-1.9-2.2-1.8
						c-1.1,0.1-1.9,1.1-1.8,2.2C533.6,323.2,534.6,324,535.7,323.9z M529.6,300.1c2.2-0.2,3.9-2.1,3.7-4.4c-0.2-2.2-2.1-3.9-4.4-3.7
						c-2.2,0.2-3.9,2.1-3.7,4.4C525.5,298.7,527.4,300.3,529.6,300.1z M564.1,292.5c1.1-0.1,1.9-1.1,1.8-2.2
						c-0.1-1.1-1.1-1.9-2.2-1.8c-1.1,0.1-1.9,1.1-1.8,2.2C562,291.7,562.9,292.6,564.1,292.5z"/>
					<radialGradient id="SVGID_24_" cx="224.8684" cy="460.7766" r="171.9105" gradientUnits="userSpaceOnUse">
						<stop  offset="5.925930e-02" style="stop-color:#000E57"/>
						<stop  offset="0.8889" style="stop-color:#0279B1"/>
					</radialGradient>
					<path class="st25" d="M285.2,424.3c1.2,0,2.2-1,2.2-2.2c0-1.2-1-2.2-2.2-2.2c-1.2,0-2.2,1-2.2,2.2
						C283,423.3,284,424.3,285.2,424.3z"/>
					<radialGradient id="SVGID_25_" cx="224.8683" cy="460.7782" r="171.9117" gradientUnits="userSpaceOnUse">
						<stop  offset="5.925930e-02" style="stop-color:#000E57"/>
						<stop  offset="0.8889" style="stop-color:#0279B1"/>
					</radialGradient>
					<path class="st26" d="M249.4,303.8c0,0,0.5-1.1,0.8-1.4c0.3-0.3,1.4-0.8,1.4-0.8s-1.1-0.5-1.4-0.8c-0.3-0.3-0.8-1.4-0.8-1.4
						s-0.5,1.1-0.8,1.4c-0.3,0.3-1.4,0.8-1.4,0.8s1.1,0.5,1.4,0.8C248.9,302.7,249.4,303.8,249.4,303.8z"/>
					<radialGradient id="SVGID_26_" cx="224.8694" cy="460.7774" r="171.9108" gradientUnits="userSpaceOnUse">
						<stop  offset="5.925930e-02" style="stop-color:#000E57"/>
						<stop  offset="0.8889" style="stop-color:#0279B1"/>
					</radialGradient>
					<path class="st27" d="M309.9,345.9c0,0,0.5-1.1,0.8-1.4c0.3-0.3,1.4-0.8,1.4-0.8s-1.1-0.5-1.4-0.8c-0.3-0.3-0.8-1.4-0.8-1.4
						s-0.5,1.1-0.8,1.4c-0.3,0.3-1.4,0.8-1.4,0.8s1.1,0.5,1.4,0.8C309.4,344.7,309.9,345.9,309.9,345.9z"/>
					<radialGradient id="SVGID_27_" cx="224.8681" cy="460.7776" r="171.9121" gradientUnits="userSpaceOnUse">
						<stop  offset="5.925930e-02" style="stop-color:#000E57"/>
						<stop  offset="0.8889" style="stop-color:#0279B1"/>
					</radialGradient>
					<path class="st28" d="M279.8,375.8c0,0,0.5-1.1,0.8-1.4c0.3-0.3,1.4-0.8,1.4-0.8s-1.1-0.5-1.4-0.8c-0.3-0.3-0.8-1.4-0.8-1.4
						s-0.5,1.1-0.8,1.4c-0.3,0.3-1.4,0.8-1.4,0.8s1.1,0.5,1.4,0.8C279.3,374.6,279.8,375.8,279.8,375.8z"/>
					<radialGradient id="SVGID_28_" cx="224.8674" cy="460.7769" r="171.9084" gradientUnits="userSpaceOnUse">
						<stop  offset="5.925930e-02" style="stop-color:#000E57"/>
						<stop  offset="0.8889" style="stop-color:#0279B1"/>
					</radialGradient>
					<path class="st29" d="M143.2,442.7c0,0,0.5-1.1,0.8-1.4c0.3-0.3,1.4-0.8,1.4-0.8s-1.1-0.5-1.4-0.8c-0.3-0.3-0.8-1.4-0.8-1.4
						s-0.5,1.1-0.8,1.4c-0.3,0.3-1.4,0.8-1.4,0.8s1.1,0.5,1.4,0.8C142.7,441.5,143.2,442.7,143.2,442.7z"/>
					<radialGradient id="SVGID_29_" cx="224.8683" cy="460.7773" r="171.9108" gradientUnits="userSpaceOnUse">
						<stop  offset="5.925930e-02" style="stop-color:#000E57"/>
						<stop  offset="0.8889" style="stop-color:#0279B1"/>
					</radialGradient>
					<path class="st30" d="M168.6,343.7c0,0,0.5-1.1,0.8-1.4c0.3-0.3,1.4-0.8,1.4-0.8s-1.1-0.5-1.4-0.8c-0.3-0.3-0.8-1.4-0.8-1.4
						s-0.5,1.1-0.8,1.4c-0.3,0.3-1.4,0.8-1.4,0.8s1.1,0.5,1.4,0.8C168.1,342.6,168.6,343.7,168.6,343.7z"/>
					<radialGradient id="SVGID_30_" cx="152.3574" cy="374.7378" r="13.4908" gradientUnits="userSpaceOnUse">
						<stop  offset="5.925930e-02" style="stop-color:#000E57"/>
						<stop  offset="0.8889" style="stop-color:#0279B1"/>
					</radialGradient>
					<path class="st31" d="M155.5,376.2c0,0.4-0.3,0.7-0.7,0.7c-0.4,0-0.7-0.3-0.7-0.7c0-0.4,0.3-0.7,0.7-0.7
						C155.2,375.5,155.5,375.8,155.5,376.2z M161.4,362.8c-0.8,0-1.5,0.7-1.5,1.5s0.7,1.5,1.5,1.5c0.8,0,1.5-0.7,1.5-1.5
						S162.2,362.8,161.4,362.8z M164.3,380.3c-1.6,0-2.9,1.3-2.9,2.9c0,1.6,1.3,2.9,2.9,2.9c1.6,0,2.9-1.3,2.9-2.9
						C167.2,381.7,165.9,380.3,164.3,380.3z M138.9,383.8c-0.8,0-1.5,0.7-1.5,1.5c0,0.8,0.7,1.5,1.5,1.5c0.8,0,1.5-0.7,1.5-1.5
						C140.4,384.4,139.8,383.8,138.9,383.8z"/>

						<radialGradient id="SVGID_31_" cx="413.0056" cy="-144.2059" r="13.4909" gradientTransform="matrix(-0.9964 8.480000e-02 -8.480000e-02 -0.9964 686.2255 146.2745)" gradientUnits="userSpaceOnUse">
						<stop  offset="5.925930e-02" style="stop-color:#000E57"/>
						<stop  offset="0.8889" style="stop-color:#0279B1"/>
					</radialGradient>
					<path class="st32" d="M283.7,323.8c0-0.4,0.3-0.8,0.7-0.8c0.4,0,0.8,0.3,0.8,0.7c0,0.4-0.3,0.8-0.7,0.8
						C284,324.5,283.7,324.2,283.7,323.8z M279,337.7c0.8-0.1,1.4-0.8,1.3-1.6c-0.1-0.8-0.8-1.4-1.6-1.3c-0.8,0.1-1.4,0.8-1.3,1.6
						C277.4,337.1,278.2,337.7,279,337.7z M274.6,320.4c1.6-0.1,2.8-1.6,2.7-3.2s-1.6-2.8-3.2-2.7c-1.6,0.1-2.8,1.6-2.7,3.2
						C271.5,319.4,272.9,320.5,274.6,320.4z M299.5,314.9c0.8-0.1,1.4-0.8,1.3-1.6c-0.1-0.8-0.8-1.4-1.6-1.3
						c-0.8,0.1-1.4,0.8-1.3,1.6C298,314.3,298.7,314.9,299.5,314.9z"/>

						<radialGradient id="SVGID_32_" cx="1428.5228" cy="-286.5518" r="171.9108" gradientTransform="matrix(-0.7071 -0.7071 0.7071 -0.7071 1501.7013 846.8744)" gradientUnits="userSpaceOnUse">
						<stop  offset="5.925930e-02" style="stop-color:#000E57"/>
						<stop  offset="0.8889" style="stop-color:#0279B1"/>
					</radialGradient>
					<path class="st33" d="M220.5,22.6c-0.9-0.9-2.3-0.9-3.1,0c-0.9,0.9-0.9,2.3,0,3.1c0.9,0.9,2.3,0.9,3.1,0
						C221.4,24.8,221.4,23.4,220.5,22.6z"/>

						<radialGradient id="SVGID_33_" cx="1428.5222" cy="-286.5486" r="171.9144" gradientTransform="matrix(-0.7071 -0.7071 0.7071 -0.7071 1501.7013 846.8744)" gradientUnits="userSpaceOnUse">
						<stop  offset="5.925930e-02" style="stop-color:#000E57"/>
						<stop  offset="0.8889" style="stop-color:#0279B1"/>
					</radialGradient>
					<path class="st34" d="M160.6,133c0,0-1.1,0.5-1.5,0.5c-0.4,0-1.5-0.5-1.5-0.5s0.5,1.1,0.5,1.5c0,0.4-0.5,1.5-0.5,1.5
						s1.1-0.5,1.5-0.5c0.4,0,1.5,0.5,1.5,0.5s-0.5-1.1-0.5-1.5C160.2,134.2,160.6,133,160.6,133z"/>

						<radialGradient id="SVGID_34_" cx="1428.5219" cy="-286.5516" r="171.9125" gradientTransform="matrix(-0.7071 -0.7071 0.7071 -0.7071 1501.7013 846.8744)" gradientUnits="userSpaceOnUse">
						<stop  offset="5.925930e-02" style="stop-color:#000E57"/>
						<stop  offset="0.8889" style="stop-color:#0279B1"/>
					</radialGradient>
					<path class="st35" d="M147.6,60.5c0,0-1.1,0.5-1.5,0.5c-0.4,0-1.5-0.5-1.5-0.5s0.5,1.1,0.5,1.5c0,0.4-0.5,1.5-0.5,1.5
						s1.1-0.5,1.5-0.5c0.4,0,1.5,0.5,1.5,0.5s-0.5-1.1-0.5-1.5C147.1,61.7,147.6,60.5,147.6,60.5z"/>

						<radialGradient id="SVGID_35_" cx="1428.5228" cy="-286.5511" r="171.9119" gradientTransform="matrix(-0.7071 -0.7071 0.7071 -0.7071 1501.7013 846.8744)" gradientUnits="userSpaceOnUse">
						<stop  offset="5.925930e-02" style="stop-color:#000E57"/>
						<stop  offset="0.8889" style="stop-color:#0279B1"/>
					</radialGradient>
					<path class="st36" d="M190,60.7c0,0-1.1,0.5-1.5,0.5c-0.4,0-1.5-0.5-1.5-0.5s0.5,1.1,0.5,1.5c0,0.4-0.5,1.5-0.5,1.5
						s1.1-0.5,1.5-0.5c0.4,0,1.5,0.5,1.5,0.5s-0.5-1.1-0.5-1.5C189.6,61.8,190,60.7,190,60.7z"/>

						<radialGradient id="SVGID_36_" cx="1428.524" cy="-286.5508" r="171.9151" gradientTransform="matrix(-0.7071 -0.7071 0.7071 -0.7071 1501.7013 846.8744)" gradientUnits="userSpaceOnUse">
						<stop  offset="5.925930e-02" style="stop-color:#000E57"/>
						<stop  offset="0.8889" style="stop-color:#0279B1"/>
					</radialGradient>
					<path class="st37" d="M333.9,110c0,0-1.1,0.5-1.5,0.5c-0.4,0-1.5-0.5-1.5-0.5s0.5,1.1,0.5,1.5s-0.5,1.5-0.5,1.5
						s1.1-0.5,1.5-0.5c0.4,0,1.5,0.5,1.5,0.5s-0.5-1.1-0.5-1.5S333.9,110,333.9,110z"/>

						<radialGradient id="SVGID_37_" cx="1428.5228" cy="-286.5509" r="171.9122" gradientTransform="matrix(-0.7071 -0.7071 0.7071 -0.7071 1501.7013 846.8744)" gradientUnits="userSpaceOnUse">
						<stop  offset="5.925930e-02" style="stop-color:#000E57"/>
						<stop  offset="0.8889" style="stop-color:#0279B1"/>
					</radialGradient>
					<path class="st38" d="M246,162c0,0-1.1,0.5-1.5,0.5c-0.4,0-1.5-0.5-1.5-0.5s0.5,1.1,0.5,1.5c0,0.4-0.5,1.5-0.5,1.5
						s1.1-0.5,1.5-0.5c0.4,0,1.5,0.5,1.5,0.5s-0.5-1.1-0.5-1.5C245.5,163.1,246,162,246,162z"/>

						<radialGradient id="SVGID_38_" cx="1356.0107" cy="-372.5909" r="13.4909" gradientTransform="matrix(-0.7071 -0.7071 0.7071 -0.7071 1501.7013 846.8744)" gradientUnits="userSpaceOnUse">
						<stop  offset="5.925930e-02" style="stop-color:#000E57"/>
						<stop  offset="0.8889" style="stop-color:#0279B1"/>
					</radialGradient>
					<path class="st39" d="M278.2,148.2c0.3-0.3,0.7-0.3,1,0c0.3,0.3,0.3,0.7,0,1c-0.3,0.3-0.7,0.3-1,0
						C277.9,149,277.9,148.5,278.2,148.2z M264.6,153.6c0.6,0.6,1.5,0.6,2.1,0c0.6-0.6,0.6-1.5,0-2.1c-0.6-0.6-1.5-0.6-2.1,0
						C264,152.1,264,153,264.6,153.6z M274.9,139.1c1.1,1.1,3,1.1,4.1,0c1.1-1.1,1.1-3,0-4.1c-1.1-1.1-3-1.1-4.1,0
						C273.8,136.1,273.8,137.9,274.9,139.1z M295.3,154.6c0.6,0.6,1.5,0.6,2.1,0c0.6-0.6,0.6-1.5,0-2.1c-0.6-0.6-1.5-0.6-2.1,0
						C294.7,153.1,294.7,154,295.3,154.6z"/>

						<radialGradient id="SVGID_39_" cx="1489.781" cy="-422.5312" r="13.8362" gradientTransform="matrix(-0.7071 -0.7071 0.7071 -0.7071 1501.7013 846.8744)" gradientUnits="userSpaceOnUse">
						<stop  offset="5.925930e-02" style="stop-color:#000E57"/>
						<stop  offset="0.8889" style="stop-color:#0279B1"/>
					</radialGradient>
					<path class="st40" d="M150.5,94.7c-0.3,0.3-0.7,0.3-1,0.1c-0.3-0.3-0.3-0.7-0.1-1c0.3-0.3,0.7-0.3,1-0.1
						C150.8,93.9,150.8,94.4,150.5,94.7z M163.7,88.2c-0.6-0.5-1.5-0.4-2.1,0.2c-0.5,0.6-0.4,1.5,0.2,2.1c0.6,0.5,1.5,0.4,2.1-0.2
						C164.4,89.6,164.3,88.7,163.7,88.2z M154.6,103.5c-1.2-1-3.1-0.9-4.1,0.4c-1,1.2-0.9,3.1,0.4,4.1c1.2,1,3.1,0.9,4.1-0.4
						C156,106.4,155.8,104.5,154.6,103.5z M133,89.8c-0.6-0.5-1.5-0.4-2.1,0.2c-0.5,0.6-0.4,1.5,0.2,2.1c0.6,0.5,1.5,0.4,2.1-0.2
						C133.7,91.2,133.6,90.3,133,89.8z"/>

						<radialGradient id="SVGID_40_" cx="1580.1731" cy="-208.5974" r="236.9272" gradientTransform="matrix(-0.7071 -0.7071 0.7071 -0.7071 1835.629 1016.0415)" gradientUnits="userSpaceOnUse">
						<stop  offset="5.925930e-02" style="stop-color:#000E57"/>
						<stop  offset="0.8889" style="stop-color:#0279B1"/>
					</radialGradient>
					<path class="st41" d="M476.4,23c-1.2-1.2-3.1-1.2-4.3,0c-1.2,1.2-1.2,3.1,0,4.3c1.2,1.2,3.1,1.2,4.3,0
						C477.6,26.1,477.6,24.2,476.4,23z"/>

						<radialGradient id="SVGID_41_" cx="1580.1737" cy="-208.5998" r="236.9235" gradientTransform="matrix(-0.7071 -0.7071 0.7071 -0.7071 1835.629 1016.0415)" gradientUnits="userSpaceOnUse">
						<stop  offset="5.925930e-02" style="stop-color:#000E57"/>
						<stop  offset="0.8889" style="stop-color:#0279B1"/>
					</radialGradient>
					<path class="st42" d="M393.9,175.3c0,0-1.6,0.6-2.1,0.6c-0.6,0-2.1-0.6-2.1-0.6s0.6,1.6,0.6,2.1c0,0.6-0.6,2.1-0.6,2.1
						s1.6-0.6,2.1-0.6c0.6,0,2.1,0.6,2.1,0.6s-0.6-1.6-0.6-2.1C393.3,176.8,393.9,175.3,393.9,175.3z"/>

						<radialGradient id="SVGID_42_" cx="1580.1731" cy="-208.5978" r="236.9268" gradientTransform="matrix(-0.7071 -0.7071 0.7071 -0.7071 1835.629 1016.0415)" gradientUnits="userSpaceOnUse">
						<stop  offset="5.925930e-02" style="stop-color:#000E57"/>
						<stop  offset="0.8889" style="stop-color:#0279B1"/>
					</radialGradient>
					<path class="st43" d="M376,75.4c0,0-1.6,0.6-2.1,0.6c-0.6,0-2.1-0.6-2.1-0.6s0.6,1.6,0.6,2.1c0,0.6-0.6,2.1-0.6,2.1
						s1.6-0.6,2.1-0.6c0.6,0,2.1,0.6,2.1,0.6s-0.6-1.6-0.6-2.1C375.3,76.9,376,75.4,376,75.4z"/>

						<radialGradient id="SVGID_43_" cx="1580.1731" cy="-208.5973" r="236.9271" gradientTransform="matrix(-0.7071 -0.7071 0.7071 -0.7071 1835.629 1016.0415)" gradientUnits="userSpaceOnUse">
						<stop  offset="5.925930e-02" style="stop-color:#000E57"/>
						<stop  offset="0.8889" style="stop-color:#0279B1"/>
					</radialGradient>
					<path class="st44" d="M434.4,75.6c0,0-1.6,0.6-2.1,0.6c-0.6,0-2.1-0.6-2.1-0.6s0.6,1.6,0.6,2.1c0,0.6-0.6,2.1-0.6,2.1
						s1.6-0.6,2.1-0.6c0.6,0,2.1,0.6,2.1,0.6s-0.6-1.6-0.6-2.1C433.8,77.2,434.4,75.6,434.4,75.6z"/>

						<radialGradient id="SVGID_44_" cx="1580.1738" cy="-208.5978" r="236.9274" gradientTransform="matrix(-0.7071 -0.7071 0.7071 -0.7071 1835.629 1016.0415)" gradientUnits="userSpaceOnUse">
						<stop  offset="5.925930e-02" style="stop-color:#000E57"/>
						<stop  offset="0.8889" style="stop-color:#0279B1"/>
					</radialGradient>
					<path class="st45" d="M632.8,143.5c0,0-1.6,0.6-2.1,0.6c-0.6,0-2.1-0.6-2.1-0.6s0.6,1.6,0.6,2.1c0,0.6-0.6,2.1-0.6,2.1
						s1.6-0.6,2.1-0.6c0.6,0,2.1,0.6,2.1,0.6s-0.6-1.6-0.6-2.1C632.1,145,632.8,143.5,632.8,143.5z"/>

						<radialGradient id="SVGID_45_" cx="1580.1726" cy="-208.6002" r="236.9228" gradientTransform="matrix(-0.7071 -0.7071 0.7071 -0.7071 1835.629 1016.0415)" gradientUnits="userSpaceOnUse">
						<stop  offset="5.925930e-02" style="stop-color:#000E57"/>
						<stop  offset="0.8889" style="stop-color:#0279B1"/>
					</radialGradient>
					<path class="st46" d="M511.6,215.2c0,0-1.6,0.6-2.1,0.6c-0.6,0-2.1-0.6-2.1-0.6s0.6,1.6,0.6,2.1c0,0.6-0.6,2.1-0.6,2.1
						s1.6-0.6,2.1-0.6c0.6,0,2.1,0.6,2.1,0.6s-0.6-1.6-0.6-2.1C510.9,216.8,511.6,215.2,511.6,215.2z"/>

						<radialGradient id="SVGID_46_" cx="1480.2388" cy="-327.1763" r="18.5929" gradientTransform="matrix(-0.7071 -0.7071 0.7071 -0.7071 1835.629 1016.0415)" gradientUnits="userSpaceOnUse">
						<stop  offset="5.925930e-02" style="stop-color:#000E57"/>
						<stop  offset="0.8889" style="stop-color:#0279B1"/>
					</radialGradient>
					<path class="st47" d="M555.9,196.2c0.4-0.4,1-0.4,1.4,0s0.4,1,0,1.4c-0.4,0.4-1,0.4-1.4,0C555.5,197.2,555.5,196.6,555.9,196.2
						z M537.2,203.6c0.8,0.8,2.1,0.8,2.9,0c0.8-0.8,0.8-2.1,0-2.9c-0.8-0.8-2.1-0.8-2.9,0C536.4,201.5,536.4,202.8,537.2,203.6z
						 M551.4,183.6c1.6,1.6,4.1,1.6,5.7,0c1.6-1.6,1.6-4.1,0-5.7c-1.6-1.6-4.1-1.6-5.7,0C549.9,179.5,549.9,182,551.4,183.6z
						 M579.5,205c0.8,0.8,2.1,0.8,2.9,0c0.8-0.8,0.8-2.1,0-2.9c-0.8-0.8-2.1-0.8-2.9,0C578.7,202.9,578.7,204.2,579.5,205z"/>

						<radialGradient id="SVGID_47_" cx="1664.5985" cy="-396.0031" r="19.0688" gradientTransform="matrix(-0.7071 -0.7071 0.7071 -0.7071 1835.629 1016.0415)" gradientUnits="userSpaceOnUse">
						<stop  offset="5.925930e-02" style="stop-color:#000E57"/>
						<stop  offset="0.8889" style="stop-color:#0279B1"/>
					</radialGradient>
					<path class="st48" d="M380,122.4c-0.4,0.4-1,0.5-1.4,0.1c-0.4-0.4-0.5-1-0.1-1.4c0.4-0.4,1-0.5,1.4-0.1
						C380.3,121.3,380.4,122,380,122.4z M398.1,113.5c-0.9-0.7-2.1-0.6-2.8,0.2c-0.7,0.9-0.6,2.1,0.2,2.8c0.9,0.7,2.1,0.6,2.8-0.2
						C399.1,115.5,398.9,114.2,398.1,113.5z M385.6,134.6c-1.7-1.4-4.2-1.2-5.7,0.5c-1.4,1.7-1.2,4.2,0.5,5.7
						c1.7,1.4,4.2,1.2,5.7-0.5C387.5,138.6,387.3,136,385.6,134.6z M355.8,115.6c-0.9-0.7-2.1-0.6-2.8,0.2c-0.7,0.9-0.6,2.1,0.2,2.8
						c0.9,0.7,2.1,0.6,2.8-0.2C356.8,117.6,356.7,116.4,355.8,115.6z"/>

						<radialGradient id="SVGID_48_" cx="1757.4723" cy="-741.0771" r="236.9268" gradientTransform="matrix(-0.7071 -0.7071 0.7071 -0.7071 1835.629 1016.0415)" gradientUnits="userSpaceOnUse">
						<stop  offset="5.925930e-02" style="stop-color:#000E57"/>
						<stop  offset="0.8889" style="stop-color:#0279B1"/>
					</radialGradient>
					<path class="st49" d="M-25.4,274.2c-1.2-1.2-3.1-1.2-4.3,0c-1.2,1.2-1.2,3.1,0,4.3c1.2,1.2,3.1,1.2,4.3,0
						C-24.3,277.3-24.3,275.3-25.4,274.2z"/>

						<radialGradient id="SVGID_49_" cx="1757.4727" cy="-741.0762" r="236.9265" gradientTransform="matrix(-0.7071 -0.7071 0.7071 -0.7071 1835.629 1016.0415)" gradientUnits="userSpaceOnUse">
						<stop  offset="5.925930e-02" style="stop-color:#000E57"/>
						<stop  offset="0.8889" style="stop-color:#0279B1"/>
					</radialGradient>
					<path class="st50" d="M-108,426.4c0,0-1.6,0.6-2.1,0.6c-0.6,0-2.1-0.6-2.1-0.6s0.6,1.6,0.6,2.1c0,0.6-0.6,2.1-0.6,2.1
						s1.6-0.6,2.1-0.6c0.6,0,2.1,0.6,2.1,0.6s-0.6-1.6-0.6-2.1C-108.6,428-108,426.4-108,426.4z"/>

						<radialGradient id="SVGID_50_" cx="1757.4727" cy="-741.0748" r="236.9287" gradientTransform="matrix(-0.7071 -0.7071 0.7071 -0.7071 1835.629 1016.0415)" gradientUnits="userSpaceOnUse">
						<stop  offset="5.925930e-02" style="stop-color:#000E57"/>
						<stop  offset="0.8889" style="stop-color:#0279B1"/>
					</radialGradient>
					<path class="st51" d="M-125.9,326.5c0,0-1.6,0.6-2.1,0.6c-0.6,0-2.1-0.6-2.1-0.6s0.6,1.6,0.6,2.1c0,0.6-0.6,2.1-0.6,2.1
						s1.6-0.6,2.1-0.6c0.6,0,2.1,0.6,2.1,0.6s-0.6-1.6-0.6-2.1C-126.6,328.1-125.9,326.5-125.9,326.5z"/>

						<radialGradient id="SVGID_51_" cx="1757.4727" cy="-741.0764" r="236.9271" gradientTransform="matrix(-0.7071 -0.7071 0.7071 -0.7071 1835.629 1016.0415)" gradientUnits="userSpaceOnUse">
						<stop  offset="5.925930e-02" style="stop-color:#000E57"/>
						<stop  offset="0.8889" style="stop-color:#0279B1"/>
					</radialGradient>
					<path class="st52" d="M-67.4,326.7c0,0-1.6,0.6-2.1,0.6c-0.6,0-2.1-0.6-2.1-0.6s0.6,1.6,0.6,2.1c0,0.6-0.6,2.1-0.6,2.1
						s1.6-0.6,2.1-0.6c0.6,0,2.1,0.6,2.1,0.6s-0.6-1.6-0.6-2.1C-68.1,328.3-67.4,326.7-67.4,326.7z"/>

						<radialGradient id="SVGID_52_" cx="1757.4733" cy="-741.077" r="236.9274" gradientTransform="matrix(-0.7071 -0.7071 0.7071 -0.7071 1835.629 1016.0415)" gradientUnits="userSpaceOnUse">
						<stop  offset="5.925930e-02" style="stop-color:#000E57"/>
						<stop  offset="0.8889" style="stop-color:#0279B1"/>
					</radialGradient>
					<path class="st53" d="M130.9,394.6c0,0-1.6,0.6-2.1,0.6c-0.6,0-2.1-0.6-2.1-0.6s0.6,1.6,0.6,2.1c0,0.6-0.6,2.1-0.6,2.1
						s1.6-0.6,2.1-0.6c0.6,0,2.1,0.6,2.1,0.6s-0.6-1.6-0.6-2.1C130.3,396.2,130.9,394.6,130.9,394.6z"/>

						<radialGradient id="SVGID_53_" cx="1757.473" cy="-741.0768" r="236.9261" gradientTransform="matrix(-0.7071 -0.7071 0.7071 -0.7071 1835.629 1016.0415)" gradientUnits="userSpaceOnUse">
						<stop  offset="5.925930e-02" style="stop-color:#000E57"/>
						<stop  offset="0.8889" style="stop-color:#0279B1"/>
					</radialGradient>
					<path class="st54" d="M9.7,466.3c0,0-1.6,0.6-2.1,0.6c-0.6,0-2.1-0.6-2.1-0.6s0.6,1.6,0.6,2.1c0,0.6-0.6,2.1-0.6,2.1
						S7,470,7.5,470c0.6,0,2.1,0.6,2.1,0.6s-0.6-1.6-0.6-2.1C9.1,467.9,9.7,466.3,9.7,466.3z"/>

						<radialGradient id="SVGID_54_" cx="1657.5382" cy="-859.6554" r="18.5929" gradientTransform="matrix(-0.7071 -0.7071 0.7071 -0.7071 1835.629 1016.0415)" gradientUnits="userSpaceOnUse">
						<stop  offset="5.925930e-02" style="stop-color:#000E57"/>
						<stop  offset="0.8889" style="stop-color:#0279B1"/>
					</radialGradient>
					<path class="st55" d="M54.1,447.3c0.4-0.4,1-0.4,1.4,0s0.4,1,0,1.4c-0.4,0.4-1,0.4-1.4,0C53.7,448.4,53.7,447.7,54.1,447.3z
						 M35.3,454.7c0.8,0.8,2.1,0.8,2.9,0c0.8-0.8,0.8-2.1,0-2.9c-0.8-0.8-2.1-0.8-2.9,0C34.5,452.6,34.5,453.9,35.3,454.7z
						 M49.5,434.7c1.6,1.6,4.1,1.6,5.7,0c1.6-1.6,1.6-4.1,0-5.7c-1.6-1.6-4.1-1.6-5.7,0C48,430.6,48,433.2,49.5,434.7z M77.6,456.1
						c0.8,0.8,2.1,0.8,2.9,0c0.8-0.8,0.8-2.1,0-2.9c-0.8-0.8-2.1-0.8-2.9,0C76.8,454.1,76.8,455.3,77.6,456.1z"/>

						<radialGradient id="SVGID_55_" cx="1841.8979" cy="-928.4822" r="19.0688" gradientTransform="matrix(-0.7071 -0.7071 0.7071 -0.7071 1835.629 1016.0415)" gradientUnits="userSpaceOnUse">
						<stop  offset="5.925930e-02" style="stop-color:#000E57"/>
						<stop  offset="0.8889" style="stop-color:#0279B1"/>
					</radialGradient>
					<path class="st56" d="M-121.9,373.6c-0.4,0.4-1,0.5-1.4,0.1c-0.4-0.4-0.5-1-0.1-1.4c0.4-0.4,1-0.5,1.4-0.1
						C-121.6,372.5-121.5,373.1-121.9,373.6z M-103.8,364.6c-0.9-0.7-2.1-0.6-2.8,0.2c-0.7,0.9-0.6,2.1,0.2,2.8
						c0.9,0.7,2.1,0.6,2.8-0.2C-102.8,366.6-102.9,365.3-103.8,364.6z M-116.3,385.7c-1.7-1.4-4.2-1.2-5.7,0.5s-1.2,4.2,0.5,5.7
						c1.7,1.4,4.2,1.2,5.7-0.5C-114.4,389.7-114.6,387.2-116.3,385.7z M-146.1,366.8c-0.9-0.7-2.1-0.6-2.8,0.2
						c-0.7,0.9-0.6,2.1,0.2,2.8c0.9,0.7,2.1,0.6,2.8-0.2C-145.1,368.8-145.2,367.5-146.1,366.8z"/>
				</g>
				<g>
					<radialGradient id="SVGID_56_" cx="388.8916" cy="338.6768" r="3.0307" gradientUnits="userSpaceOnUse">
						<stop  offset="5.925930e-02" style="stop-color:#FF7F9A"/>
						<stop  offset="0.5259" style="stop-color:#FF3B9C"/>
						<stop  offset="0.9926" style="stop-color:#D10059"/>
					</radialGradient>
					<path class="st57" d="M389.6,335.7c-1.6-0.4-3.3,0.6-3.7,2.2s0.6,3.3,2.2,3.7c1.6,0.4,3.3-0.6,3.7-2.2
						C392.2,337.8,391.2,336.1,389.6,335.7z"/>
					<radialGradient id="SVGID_57_" cx="398.2001" cy="511.5946" r="2.9337" gradientUnits="userSpaceOnUse">
						<stop  offset="5.925930e-02" style="stop-color:#FF7F9A"/>
						<stop  offset="0.5259" style="stop-color:#FF3B9C"/>
						<stop  offset="0.9926" style="stop-color:#D10059"/>
					</radialGradient>
					<path class="st58" d="M398.9,508.7c0,0-1,1.4-1.5,1.6c-0.5,0.3-2.1,0.6-2.1,0.6s1.4,1,1.6,1.5c0.3,0.5,0.6,2.1,0.6,2.1
						s1-1.4,1.5-1.6c0.5-0.3,2.1-0.6,2.1-0.6s-1.4-1-1.6-1.5C399.2,510.3,398.9,508.7,398.9,508.7z"/>
					<radialGradient id="SVGID_58_" cx="330.6447" cy="435.8398" r="2.9337" gradientUnits="userSpaceOnUse">
						<stop  offset="5.925930e-02" style="stop-color:#FF7F9A"/>
						<stop  offset="0.5259" style="stop-color:#FF3B9C"/>
						<stop  offset="0.9926" style="stop-color:#D10059"/>
					</radialGradient>
					<path class="st59" d="M331.3,432.9c0,0-1,1.4-1.5,1.6c-0.5,0.3-2.1,0.6-2.1,0.6s1.4,1,1.6,1.5c0.3,0.5,0.6,2.1,0.6,2.1
						s1-1.4,1.5-1.6c0.5-0.3,2.1-0.6,2.1-0.6s-1.4-1-1.6-1.5C331.6,434.6,331.3,432.9,331.3,432.9z"/>
					<radialGradient id="SVGID_59_" cx="380.6097" cy="405.4261" r="2.9337" gradientUnits="userSpaceOnUse">
						<stop  offset="5.925930e-02" style="stop-color:#FF7F9A"/>
						<stop  offset="0.5259" style="stop-color:#FF3B9C"/>
						<stop  offset="0.9926" style="stop-color:#D10059"/>
					</radialGradient>
					<path class="st60" d="M381.3,402.5c0,0-1,1.4-1.5,1.6c-0.5,0.3-2.1,0.6-2.1,0.6s1.4,1,1.6,1.5c0.3,0.5,0.6,2.1,0.6,2.1
						s1-1.4,1.5-1.6c0.5-0.3,2.1-0.6,2.1-0.6s-1.4-1-1.6-1.5C381.6,404.2,381.3,402.5,381.3,402.5z"/>
					<radialGradient id="SVGID_60_" cx="585.1419" cy="359.5043" r="2.9337" gradientUnits="userSpaceOnUse">
						<stop  offset="5.925930e-02" style="stop-color:#FF7F9A"/>
						<stop  offset="0.5259" style="stop-color:#FF3B9C"/>
						<stop  offset="0.9926" style="stop-color:#D10059"/>
					</radialGradient>
					<path class="st61" d="M585.8,356.6c0,0-1,1.4-1.5,1.6c-0.5,0.3-2.1,0.6-2.1,0.6s1.4,1,1.6,1.5c0.3,0.5,0.6,2.1,0.6,2.1
						s1-1.4,1.5-1.6c0.5-0.3,2.1-0.6,2.1-0.6s-1.4-1-1.6-1.5C586.1,358.2,585.8,356.6,585.8,356.6z"/>
					<radialGradient id="SVGID_61_" cx="519.3818" cy="484.0488" r="2.9337" gradientUnits="userSpaceOnUse">
						<stop  offset="5.925930e-02" style="stop-color:#FF7F9A"/>
						<stop  offset="0.5259" style="stop-color:#FF3B9C"/>
						<stop  offset="0.9926" style="stop-color:#D10059"/>
					</radialGradient>
					<path class="st62" d="M520.1,481.1c0,0-1,1.4-1.5,1.6c-0.5,0.3-2.1,0.6-2.1,0.6s1.4,1,1.6,1.5c0.3,0.5,0.6,2.1,0.6,2.1
						s1-1.4,1.5-1.6c0.5-0.3,2.1-0.6,2.1-0.6s-1.4-1-1.6-1.5C520.4,482.8,520.1,481.1,520.1,481.1z"/>
					<radialGradient id="SVGID_62_" cx="554.6844" cy="441.6255" r="18.4451" gradientUnits="userSpaceOnUse">
						<stop  offset="5.925930e-02" style="stop-color:#FF7F9A"/>
						<stop  offset="0.5259" style="stop-color:#FF3B9C"/>
						<stop  offset="0.9926" style="stop-color:#D10059"/>
					</radialGradient>
					<path class="st63" d="M548,441.7c0.1-0.5,0.7-0.9,1.2-0.7c0.5,0.1,0.9,0.7,0.7,1.2c-0.1,0.5-0.7,0.9-1.2,0.7
						C548.2,442.8,547.8,442.3,548,441.7z M535.8,457.8c1.1,0.3,2.2-0.4,2.4-1.5c0.3-1.1-0.4-2.2-1.5-2.4c-1.1-0.3-2.2,0.4-2.4,1.5
						C534.1,456.5,534.7,457.6,535.8,457.8z M537.5,433.3c2.2,0.5,4.3-0.8,4.9-3c0.5-2.2-0.8-4.3-3-4.9c-2.2-0.5-4.3,0.8-4.9,3
						C534,430.6,535.4,432.8,537.5,433.3z M572.6,436.9c1.1,0.3,2.2-0.4,2.4-1.5c0.3-1.1-0.4-2.2-1.5-2.4c-1.1-0.3-2.2,0.4-2.4,1.5
						C570.9,435.5,571.5,436.6,572.6,436.9z"/>
					<radialGradient id="SVGID_63_" cx="353.4626" cy="470.0718" r="18.5156" gradientUnits="userSpaceOnUse">
						<stop  offset="5.925930e-02" style="stop-color:#FF7F9A"/>
						<stop  offset="0.5259" style="stop-color:#FF3B9C"/>
						<stop  offset="0.9926" style="stop-color:#D10059"/>
					</radialGradient>
					<path class="st64" d="M359.4,470.9c-0.1,0.6-0.6,0.9-1.1,0.8c-0.6-0.1-0.9-0.6-0.8-1.1c0.1-0.6,0.6-0.9,1.1-0.8
						C359.1,469.8,359.5,470.3,359.4,470.9z M370.2,453.8c-1.1-0.2-2.1,0.6-2.3,1.7c-0.2,1.1,0.6,2.1,1.7,2.3
						c1.1,0.2,2.1-0.6,2.3-1.7C372,455,371.3,454,370.2,453.8z M370.5,478.3c-2.2-0.3-4.3,1.2-4.6,3.4c-0.3,2.2,1.2,4.3,3.4,4.6
						c2.2,0.3,4.3-1.2,4.6-3.4C374.3,480.7,372.7,478.7,370.5,478.3z M335.3,477.8c-1.1-0.2-2.1,0.6-2.3,1.7
						c-0.2,1.1,0.6,2.1,1.7,2.3c1.1,0.2,2.1-0.6,2.3-1.7C337.1,479,336.4,477.9,335.3,477.8z"/>
					<radialGradient id="SVGID_64_" cx="-4.658" cy="-36.4888" r="3.0307" gradientUnits="userSpaceOnUse">
						<stop  offset="5.925930e-02" style="stop-color:#FF7F9A"/>
						<stop  offset="0.5259" style="stop-color:#FF3B9C"/>
						<stop  offset="0.9926" style="stop-color:#D10059"/>
					</radialGradient>
					<path class="st65" d="M-4-39.4c-1.6-0.4-3.3,0.6-3.7,2.2C-8-35.6-7-33.9-5.4-33.5c1.6,0.4,3.3-0.6,3.7-2.2
						C-1.3-37.4-2.3-39-4-39.4z"/>
					<radialGradient id="SVGID_65_" cx="4.6505" cy="136.429" r="2.9337" gradientUnits="userSpaceOnUse">
						<stop  offset="5.925930e-02" style="stop-color:#FF7F9A"/>
						<stop  offset="0.5259" style="stop-color:#FF3B9C"/>
						<stop  offset="0.9926" style="stop-color:#D10059"/>
					</radialGradient>
					<path class="st66" d="M5.4,133.5c0,0-1,1.4-1.5,1.6c-0.5,0.3-2.1,0.6-2.1,0.6s1.4,1,1.6,1.5c0.3,0.5,0.6,2.1,0.6,2.1
						s1-1.4,1.5-1.6c0.5-0.3,2.1-0.6,2.1-0.6s-1.4-1-1.6-1.5C5.6,135.2,5.4,133.5,5.4,133.5z"/>
					<radialGradient id="SVGID_66_" cx="-62.9049" cy="60.6742" r="2.9336" gradientUnits="userSpaceOnUse">
						<stop  offset="5.925930e-02" style="stop-color:#FF7F9A"/>
						<stop  offset="0.5259" style="stop-color:#FF3B9C"/>
						<stop  offset="0.9926" style="stop-color:#D10059"/>
					</radialGradient>
					<path class="st67" d="M-62.2,57.7c0,0-1,1.4-1.5,1.6c-0.5,0.3-2.1,0.6-2.1,0.6s1.4,1,1.6,1.5c0.3,0.5,0.6,2.1,0.6,2.1
						s1-1.4,1.5-1.6c0.5-0.3,2.1-0.6,2.1-0.6s-1.4-1-1.6-1.5C-61.9,59.4-62.2,57.7-62.2,57.7z"/>
					<radialGradient id="SVGID_67_" cx="-12.9399" cy="30.2605" r="2.9337" gradientUnits="userSpaceOnUse">
						<stop  offset="5.925930e-02" style="stop-color:#FF7F9A"/>
						<stop  offset="0.5259" style="stop-color:#FF3B9C"/>
						<stop  offset="0.9926" style="stop-color:#D10059"/>
					</radialGradient>
					<path class="st68" d="M-12.2,27.3c0,0-1,1.4-1.5,1.6c-0.5,0.3-2.1,0.6-2.1,0.6s1.4,1,1.6,1.5c0.3,0.5,0.6,2.1,0.6,2.1
						s1-1.4,1.5-1.6C-11.7,31.3-10,31-10,31s-1.4-1-1.6-1.5C-11.9,29-12.2,27.3-12.2,27.3z"/>
					<radialGradient id="SVGID_68_" cx="191.5923" cy="-15.6613" r="2.9337" gradientUnits="userSpaceOnUse">
						<stop  offset="5.925930e-02" style="stop-color:#FF7F9A"/>
						<stop  offset="0.5259" style="stop-color:#FF3B9C"/>
						<stop  offset="0.9926" style="stop-color:#D10059"/>
					</radialGradient>
					<path class="st69" d="M192.3-18.6c0,0-1,1.4-1.5,1.6c-0.5,0.3-2.1,0.6-2.1,0.6s1.4,1,1.6,1.5c0.3,0.5,0.6,2.1,0.6,2.1
						s1-1.4,1.5-1.6c0.5-0.3,2.1-0.6,2.1-0.6s-1.4-1-1.6-1.5C192.6-16.9,192.3-18.6,192.3-18.6z"/>
					<radialGradient id="SVGID_69_" cx="125.8323" cy="108.8832" r="2.9337" gradientUnits="userSpaceOnUse">
						<stop  offset="5.925930e-02" style="stop-color:#FF7F9A"/>
						<stop  offset="0.5259" style="stop-color:#FF3B9C"/>
						<stop  offset="0.9926" style="stop-color:#D10059"/>
					</radialGradient>
					<path class="st70" d="M126.5,105.9c0,0-1,1.4-1.5,1.6c-0.5,0.3-2.1,0.6-2.1,0.6s1.4,1,1.6,1.5c0.3,0.5,0.6,2.1,0.6,2.1
						s1-1.4,1.5-1.6c0.5-0.3,2.1-0.6,2.1-0.6s-1.4-1-1.6-1.5C126.8,107.6,126.5,105.9,126.5,105.9z"/>
					<radialGradient id="SVGID_70_" cx="161.1348" cy="66.4599" r="18.445" gradientUnits="userSpaceOnUse">
						<stop  offset="5.925930e-02" style="stop-color:#FF7F9A"/>
						<stop  offset="0.5259" style="stop-color:#FF3B9C"/>
						<stop  offset="0.9926" style="stop-color:#D10059"/>
					</radialGradient>
					<path class="st71" d="M154.4,66.5c0.1-0.5,0.7-0.9,1.2-0.7s0.9,0.7,0.7,1.2c-0.1,0.5-0.7,0.9-1.2,0.7
						C154.6,67.6,154.3,67.1,154.4,66.5z M142.3,82.6c1.1,0.3,2.2-0.4,2.4-1.5c0.3-1.1-0.4-2.2-1.5-2.4c-1.1-0.3-2.2,0.4-2.4,1.5
						C140.5,81.3,141.2,82.4,142.3,82.6z M144,58.2c2.2,0.5,4.3-0.8,4.9-3c0.5-2.2-0.8-4.3-3-4.9c-2.2-0.5-4.3,0.8-4.9,3
						C140.5,55.5,141.8,57.7,144,58.2z M179.1,61.7c1.1,0.3,2.2-0.4,2.4-1.5c0.3-1.1-0.4-2.2-1.5-2.4c-1.1-0.3-2.2,0.4-2.4,1.5
						C177.3,60.4,178,61.5,179.1,61.7z"/>
					<radialGradient id="SVGID_71_" cx="-40.087" cy="94.9062" r="18.5156" gradientUnits="userSpaceOnUse">
						<stop  offset="5.925930e-02" style="stop-color:#FF7F9A"/>
						<stop  offset="0.5259" style="stop-color:#FF3B9C"/>
						<stop  offset="0.9926" style="stop-color:#D10059"/>
					</radialGradient>
					<path class="st72" d="M-34.1,95.7c-0.1,0.6-0.6,0.9-1.1,0.8c-0.6-0.1-0.9-0.6-0.8-1.1c0.1-0.6,0.6-0.9,1.1-0.8
						C-34.4,94.7-34,95.2-34.1,95.7z M-23.4,78.6c-1.1-0.2-2.1,0.6-2.3,1.7c-0.2,1.1,0.6,2.1,1.7,2.3c1.1,0.2,2.1-0.6,2.3-1.7
						C-21.5,79.8-22.3,78.8-23.4,78.6z M-23,103.2c-2.2-0.3-4.3,1.2-4.6,3.4c-0.3,2.2,1.2,4.3,3.4,4.6c2.2,0.3,4.3-1.2,4.6-3.4
						C-19.3,105.6-20.8,103.5-23,103.2z M-58.3,102.6c-1.1-0.2-2.1,0.6-2.3,1.7c-0.2,1.1,0.6,2.1,1.7,2.3c1.1,0.2,2.1-0.6,2.3-1.7
						C-56.4,103.8-57.2,102.8-58.3,102.6z"/>
					<radialGradient id="SVGID_72_" cx="243.1063" cy="41.4379" r="2.1991" gradientUnits="userSpaceOnUse">
						<stop  offset="5.925930e-02" style="stop-color:#FF7F9A"/>
						<stop  offset="0.5259" style="stop-color:#FF3B9C"/>
						<stop  offset="0.9926" style="stop-color:#D10059"/>
					</radialGradient>
					<path class="st73" d="M243.6,39.3c-1.2-0.3-2.4,0.4-2.6,1.6c-0.3,1.2,0.4,2.4,1.6,2.6c1.2,0.3,2.4-0.4,2.6-1.6
						C245.5,40.8,244.8,39.6,243.6,39.3z"/>
					<radialGradient id="SVGID_73_" cx="249.8605" cy="166.9059" r="2.1287" gradientUnits="userSpaceOnUse">
						<stop  offset="5.925930e-02" style="stop-color:#FF7F9A"/>
						<stop  offset="0.5259" style="stop-color:#FF3B9C"/>
						<stop  offset="0.9926" style="stop-color:#D10059"/>
					</radialGradient>
					<path class="st74" d="M250.4,164.8c0,0-0.7,1-1.1,1.2c-0.3,0.2-1.6,0.4-1.6,0.4s1,0.7,1.2,1.1c0.2,0.3,0.4,1.6,0.4,1.6
						s0.7-1,1.1-1.2c0.3-0.2,1.6-0.4,1.6-0.4s-1-0.7-1.2-1.1C250.6,166,250.4,164.8,250.4,164.8z"/>
					<radialGradient id="SVGID_74_" cx="200.8427" cy="111.9387" r="2.1286" gradientUnits="userSpaceOnUse">
						<stop  offset="5.925930e-02" style="stop-color:#FF7F9A"/>
						<stop  offset="0.5259" style="stop-color:#FF3B9C"/>
						<stop  offset="0.9926" style="stop-color:#D10059"/>
					</radialGradient>
					<path class="st75" d="M201.4,109.8c0,0-0.7,1-1.1,1.2c-0.3,0.2-1.6,0.4-1.6,0.4s1,0.7,1.2,1.1c0.2,0.3,0.4,1.6,0.4,1.6
						s0.7-1,1.1-1.2c0.3-0.2,1.6-0.4,1.6-0.4s-1-0.7-1.2-1.1C201.6,111,201.4,109.8,201.4,109.8z"/>
					<radialGradient id="SVGID_75_" cx="237.097" cy="89.8707" r="2.1287" gradientUnits="userSpaceOnUse">
						<stop  offset="5.925930e-02" style="stop-color:#FF7F9A"/>
						<stop  offset="0.5259" style="stop-color:#FF3B9C"/>
						<stop  offset="0.9926" style="stop-color:#D10059"/>
					</radialGradient>
					<path class="st76" d="M237.6,87.7c0,0-0.7,1-1.1,1.2c-0.3,0.2-1.6,0.4-1.6,0.4s1,0.7,1.2,1.1c0.2,0.3,0.4,1.6,0.4,1.6
						s0.7-1,1.1-1.2c0.3-0.2,1.6-0.4,1.6-0.4s-1-0.7-1.2-1.1C237.8,89,237.6,87.7,237.6,87.7z"/>
					<radialGradient id="SVGID_76_" cx="385.5043" cy="56.5502" r="2.1287" gradientUnits="userSpaceOnUse">
						<stop  offset="5.925930e-02" style="stop-color:#FF7F9A"/>
						<stop  offset="0.5259" style="stop-color:#FF3B9C"/>
						<stop  offset="0.9926" style="stop-color:#D10059"/>
					</radialGradient>
					<path class="st77" d="M386,54.4c0,0-0.7,1-1.1,1.2c-0.3,0.2-1.6,0.4-1.6,0.4s1,0.7,1.2,1.1c0.2,0.3,0.4,1.6,0.4,1.6
						s0.7-1,1.1-1.2c0.3-0.2,1.6-0.4,1.6-0.4s-1-0.7-1.2-1.1C386.2,55.6,386,54.4,386,54.4z"/>
					<radialGradient id="SVGID_77_" cx="337.7893" cy="146.9188" r="2.1286" gradientUnits="userSpaceOnUse">
						<stop  offset="5.925930e-02" style="stop-color:#FF7F9A"/>
						<stop  offset="0.5259" style="stop-color:#FF3B9C"/>
						<stop  offset="0.9926" style="stop-color:#D10059"/>
					</radialGradient>
					<path class="st78" d="M338.3,144.8c0,0-0.7,1-1.1,1.2c-0.3,0.2-1.6,0.4-1.6,0.4s1,0.7,1.2,1.1c0.2,0.3,0.4,1.6,0.4,1.6
						s0.7-1,1.1-1.2c0.3-0.2,1.6-0.4,1.6-0.4s-1-0.7-1.2-1.1C338.5,146,338.3,144.8,338.3,144.8z"/>
					<radialGradient id="SVGID_78_" cx="363.4045" cy="116.1368" r="13.3836" gradientUnits="userSpaceOnUse">
						<stop  offset="5.925930e-02" style="stop-color:#FF7F9A"/>
						<stop  offset="0.5259" style="stop-color:#FF3B9C"/>
						<stop  offset="0.9926" style="stop-color:#D10059"/>
					</radialGradient>
					<path class="st79" d="M358.5,116.2c0.1-0.4,0.5-0.6,0.9-0.5c0.4,0.1,0.6,0.5,0.5,0.9c-0.1,0.4-0.5,0.6-0.9,0.5
						C358.7,117,358.4,116.6,358.5,116.2z M349.7,127.9c0.8,0.2,1.6-0.3,1.8-1.1c0.2-0.8-0.3-1.6-1.1-1.8c-0.8-0.2-1.6,0.3-1.8,1.1
						C348.4,126.9,348.9,127.7,349.7,127.9z M351,110.1c1.6,0.4,3.2-0.6,3.5-2.2c0.4-1.6-0.6-3.2-2.2-3.5c-1.6-0.4-3.2,0.6-3.5,2.2
						C348.4,108.2,349.4,109.7,351,110.1z M376.4,112.7c0.8,0.2,1.6-0.3,1.8-1.1c0.2-0.8-0.3-1.6-1.1-1.8s-1.6,0.3-1.8,1.1
						S375.6,112.5,376.4,112.7z"/>
					<radialGradient id="SVGID_79_" cx="217.3992" cy="136.7772" r="13.4348" gradientUnits="userSpaceOnUse">
						<stop  offset="5.925930e-02" style="stop-color:#FF7F9A"/>
						<stop  offset="0.5259" style="stop-color:#FF3B9C"/>
						<stop  offset="0.9926" style="stop-color:#D10059"/>
					</radialGradient>
					<path class="st80" d="M221.7,137.4c-0.1,0.4-0.4,0.7-0.8,0.6c-0.4-0.1-0.7-0.4-0.6-0.8c0.1-0.4,0.4-0.7,0.8-0.6
						C221.5,136.6,221.8,137,221.7,137.4z M229.5,125c-0.8-0.1-1.5,0.4-1.7,1.2c-0.1,0.8,0.4,1.5,1.2,1.7c0.8,0.1,1.5-0.4,1.7-1.2
						C230.9,125.8,230.3,125.1,229.5,125z M229.8,142.8c-1.6-0.2-3.1,0.9-3.3,2.5c-0.2,1.6,0.9,3.1,2.5,3.3c1.6,0.2,3.1-0.9,3.3-2.5
						C232.5,144.5,231.4,143,229.8,142.8z M204.2,142.4c-0.8-0.1-1.5,0.4-1.7,1.2s0.4,1.5,1.2,1.7c0.8,0.1,1.5-0.4,1.7-1.2
						C205.6,143.2,205,142.5,204.2,142.4z"/>
					<radialGradient id="SVGID_80_" cx="214.9432" cy="443.8697" r="2.1989" gradientUnits="userSpaceOnUse">
						<stop  offset="5.925930e-02" style="stop-color:#FF7F9A"/>
						<stop  offset="0.5259" style="stop-color:#FF3B9C"/>
						<stop  offset="0.9926" style="stop-color:#D10059"/>
					</radialGradient>
					<path class="st81" d="M213.1,445c0.6,1,2,1.4,3,0.7c1-0.6,1.4-2,0.7-3c-0.6-1-2-1.4-3-0.7C212.8,442.6,212.4,444,213.1,445z"/>
					<radialGradient id="SVGID_81_" cx="298.8865" cy="350.3744" r="1.8652" gradientUnits="userSpaceOnUse">
						<stop  offset="5.925930e-02" style="stop-color:#FF7F9A"/>
						<stop  offset="0.5259" style="stop-color:#FF3B9C"/>
						<stop  offset="0.9926" style="stop-color:#D10059"/>
					</radialGradient>
					<path class="st82" d="M297,351.5c0,0,1.2-0.2,1.6-0.1c0.4,0.1,1.4,0.8,1.4,0.8s-0.2-1.2-0.1-1.6c0.1-0.4,0.8-1.4,0.8-1.4
						s-1.2,0.2-1.6,0.1c-0.4-0.1-1.4-0.8-1.4-0.8s0.2,1.2,0.1,1.6C297.7,350.5,297,351.5,297,351.5z"/>
					<radialGradient id="SVGID_82_" cx="294.6797" cy="423.9029" r="1.8652" gradientUnits="userSpaceOnUse">
						<stop  offset="5.925930e-02" style="stop-color:#FF7F9A"/>
						<stop  offset="0.5259" style="stop-color:#FF3B9C"/>
						<stop  offset="0.9926" style="stop-color:#D10059"/>
					</radialGradient>
					<path class="st83" d="M292.8,425c0,0,1.2-0.2,1.6-0.1c0.4,0.1,1.4,0.8,1.4,0.8s-0.2-1.2-0.1-1.6c0.1-0.4,0.8-1.4,0.8-1.4
						s-1.2,0.2-1.6,0.1c-0.4-0.1-1.4-0.8-1.4-0.8s0.2,1.2,0.1,1.6C293.5,424,292.8,425,292.8,425z"/>
					<radialGradient id="SVGID_83_" cx="253.4396" cy="413.8717" r="1.8652" gradientUnits="userSpaceOnUse">
						<stop  offset="5.925930e-02" style="stop-color:#FF7F9A"/>
						<stop  offset="0.5259" style="stop-color:#FF3B9C"/>
						<stop  offset="0.9926" style="stop-color:#D10059"/>
					</radialGradient>
					<path class="st84" d="M251.6,415c0,0,1.2-0.2,1.6-0.1c0.4,0.1,1.4,0.8,1.4,0.8s-0.2-1.2-0.1-1.6c0.1-0.4,0.8-1.4,0.8-1.4
						s-1.2,0.2-1.6,0.1c-0.4-0.1-1.4-0.8-1.4-0.8s0.2,1.2,0.1,1.6C252.3,414,251.6,415,251.6,415z"/>
					<radialGradient id="SVGID_84_" cx="124.9386" cy="332.4931" r="1.8652" gradientUnits="userSpaceOnUse">
						<stop  offset="5.925930e-02" style="stop-color:#FF7F9A"/>
						<stop  offset="0.5259" style="stop-color:#FF3B9C"/>
						<stop  offset="0.9926" style="stop-color:#D10059"/>
					</radialGradient>
					<path class="st85" d="M123.1,333.6c0,0,1.2-0.2,1.6-0.1c0.4,0.1,1.4,0.8,1.4,0.8s-0.2-1.2-0.1-1.6c0.1-0.4,0.8-1.4,0.8-1.4
						s-1.2,0.2-1.6,0.1c-0.4-0.1-1.4-0.8-1.4-0.8s0.2,1.2,0.1,1.6C123.8,332.6,123.1,333.6,123.1,333.6z"/>
					<radialGradient id="SVGID_85_" cx="222.5785" cy="302.3325" r="1.8652" gradientUnits="userSpaceOnUse">
						<stop  offset="5.925930e-02" style="stop-color:#FF7F9A"/>
						<stop  offset="0.5259" style="stop-color:#FF3B9C"/>
						<stop  offset="0.9926" style="stop-color:#D10059"/>
					</radialGradient>
					<path class="st86" d="M220.7,303.5c0,0,1.2-0.2,1.6-0.1c0.4,0.1,1.4,0.8,1.4,0.8s-0.2-1.2-0.1-1.6c0.1-0.4,0.8-1.4,0.8-1.4
						s-1.2,0.2-1.6,0.1c-0.4-0.1-1.4-0.8-1.4-0.8s0.2,1.2,0.1,1.6C221.4,302.5,220.7,303.5,220.7,303.5z"/>
					<radialGradient id="SVGID_86_" cx="184.6317" cy="311.0081" r="14.5023" gradientUnits="userSpaceOnUse">
						<stop  offset="5.925930e-02" style="stop-color:#FF7F9A"/>
						<stop  offset="0.5259" style="stop-color:#FF3B9C"/>
						<stop  offset="0.9926" style="stop-color:#D10059"/>
					</radialGradient>
					<path class="st87" d="M186.2,309.4c-0.3,0.2-0.8,0.1-1-0.2c-0.2-0.3-0.1-0.8,0.2-1c0.3-0.2,0.8-0.1,1,0.2
						C186.6,308.7,186.5,309.2,186.2,309.4z M200.7,307.4c-0.4-0.7-1.3-0.9-2-0.5c-0.7,0.4-0.9,1.3-0.5,2c0.4,0.7,1.3,0.9,2,0.5
						C200.9,309,201.1,308,200.7,307.4z M187.3,319c-0.8-1.4-2.6-1.8-4-1c-1.4,0.8-1.8,2.6-1,4c0.8,1.4,2.6,1.8,4,1
						C187.7,322.2,188.1,320.4,187.3,319z M171.1,299.2c-0.4-0.7-1.3-0.9-2-0.5c-0.7,0.4-0.9,1.3-0.5,2c0.4,0.7,1.3,0.9,2,0.5
						C171.3,300.8,171.5,299.9,171.1,299.2z"/>
					<radialGradient id="SVGID_87_" cx="299.899" cy="388.7881" r="14.386" gradientUnits="userSpaceOnUse">
						<stop  offset="5.925930e-02" style="stop-color:#FF7F9A"/>
						<stop  offset="0.5259" style="stop-color:#FF3B9C"/>
						<stop  offset="0.9926" style="stop-color:#D10059"/>
					</radialGradient>
					<path class="st88" d="M297.9,391.2c0.3-0.2,0.8-0.2,1,0.2c0.2,0.3,0.2,0.8-0.2,1s-0.8,0.2-1-0.2
						C297.5,391.9,297.6,391.4,297.9,391.2z M283.6,394.4c0.5,0.7,1.4,0.8,2,0.3c0.7-0.5,0.8-1.4,0.3-2c-0.5-0.7-1.4-0.8-2-0.3
						C283.3,392.8,283.1,393.8,283.6,394.4z M296,381.6c1,1.3,2.8,1.6,4.1,0.6c1.3-1,1.6-2.8,0.6-4.1c-1-1.3-2.8-1.6-4.1-0.6
						C295.3,378.5,295.1,380.3,296,381.6z M313.8,400c0.5,0.7,1.4,0.8,2,0.3c0.7-0.5,0.8-1.4,0.3-2c-0.5-0.7-1.4-0.8-2-0.3
						C313.5,398.4,313.3,399.4,313.8,400z"/>
					<radialGradient id="SVGID_88_" cx="-33.1495" cy="383.4667" r="3.0304" gradientUnits="userSpaceOnUse">
						<stop  offset="5.925930e-02" style="stop-color:#FF7F9A"/>
						<stop  offset="0.5259" style="stop-color:#FF3B9C"/>
						<stop  offset="0.9926" style="stop-color:#D10059"/>
					</radialGradient>
					<path class="st89" d="M-35.7,385.1c0.9,1.4,2.7,1.9,4.2,1c1.4-0.9,1.9-2.7,1-4.2c-0.9-1.4-2.7-1.9-4.2-1
						C-36.2,381.8-36.6,383.6-35.7,385.1z"/>
					<radialGradient id="SVGID_89_" cx="82.5397" cy="254.6132" r="2.5705" gradientUnits="userSpaceOnUse">
						<stop  offset="5.925930e-02" style="stop-color:#FF7F9A"/>
						<stop  offset="0.5259" style="stop-color:#FF3B9C"/>
						<stop  offset="0.9926" style="stop-color:#D10059"/>
					</radialGradient>
					<path class="st90" d="M80,256.2c0,0,1.7-0.2,2.2-0.1c0.5,0.1,1.9,1.1,1.9,1.1s-0.2-1.7-0.1-2.2c0.1-0.5,1.1-1.9,1.1-1.9
						s-1.7,0.2-2.2,0.1C82.4,253,81,252,81,252s0.2,1.7,0.1,2.2C80.9,254.8,80,256.2,80,256.2z"/>
					<radialGradient id="SVGID_90_" cx="76.7419" cy="355.9488" r="2.5705" gradientUnits="userSpaceOnUse">
						<stop  offset="5.925930e-02" style="stop-color:#FF7F9A"/>
						<stop  offset="0.5259" style="stop-color:#FF3B9C"/>
						<stop  offset="0.9926" style="stop-color:#D10059"/>
					</radialGradient>
					<path class="st91" d="M74.2,357.5c0,0,1.7-0.2,2.2-0.1c0.5,0.1,1.9,1.1,1.9,1.1s-0.2-1.7-0.1-2.2c0.1-0.5,1.1-1.9,1.1-1.9
						s-1.7,0.2-2.2,0.1c-0.5-0.1-1.9-1.1-1.9-1.1s0.2,1.7,0.1,2.2C75.1,356.1,74.2,357.5,74.2,357.5z"/>
					<radialGradient id="SVGID_91_" cx="19.9056" cy="342.124" r="2.5705" gradientUnits="userSpaceOnUse">
						<stop  offset="5.925930e-02" style="stop-color:#FF7F9A"/>
						<stop  offset="0.5259" style="stop-color:#FF3B9C"/>
						<stop  offset="0.9926" style="stop-color:#D10059"/>
					</radialGradient>
					<path class="st92" d="M17.3,343.7c0,0,1.7-0.2,2.2-0.1c0.5,0.1,1.9,1.1,1.9,1.1s-0.2-1.7-0.1-2.2c0.1-0.5,1.1-1.9,1.1-1.9
						s-1.7,0.2-2.2,0.1c-0.5-0.1-1.9-1.1-1.9-1.1s0.2,1.7,0.1,2.2C18.3,342.3,17.3,343.7,17.3,343.7z"/>
					<radialGradient id="SVGID_92_" cx="-157.1922" cy="229.9695" r="2.5706" gradientUnits="userSpaceOnUse">
						<stop  offset="5.925930e-02" style="stop-color:#FF7F9A"/>
						<stop  offset="0.5259" style="stop-color:#FF3B9C"/>
						<stop  offset="0.9926" style="stop-color:#D10059"/>
					</radialGradient>
					<path class="st93" d="M-159.8,231.5c0,0,1.7-0.2,2.2-0.1c0.5,0.1,1.9,1.1,1.9,1.1s-0.2-1.7-0.1-2.2c0.1-0.5,1.1-1.9,1.1-1.9
						s-1.7,0.2-2.2,0.1c-0.5-0.1-1.9-1.1-1.9-1.1s0.2,1.7,0.1,2.2C-158.8,230.2-159.8,231.5-159.8,231.5z"/>
					<radialGradient id="SVGID_93_" cx="-22.6265" cy="188.4026" r="2.5705" gradientUnits="userSpaceOnUse">
						<stop  offset="5.925930e-02" style="stop-color:#FF7F9A"/>
						<stop  offset="0.5259" style="stop-color:#FF3B9C"/>
						<stop  offset="0.9926" style="stop-color:#D10059"/>
					</radialGradient>
					<path class="st94" d="M-25.2,190c0,0,1.7-0.2,2.2-0.1c0.5,0.1,1.9,1.1,1.9,1.1s-0.2-1.7-0.1-2.2c0.1-0.5,1.1-1.9,1.1-1.9
						s-1.7,0.2-2.2,0.1c-0.5-0.1-1.9-1.1-1.9-1.1s0.2,1.7,0.1,2.2C-24.2,188.6-25.2,190-25.2,190z"/>
					<radialGradient id="SVGID_94_" cx="-74.9242" cy="200.3593" r="19.9868" gradientUnits="userSpaceOnUse">
						<stop  offset="5.925930e-02" style="stop-color:#FF7F9A"/>
						<stop  offset="0.5259" style="stop-color:#FF3B9C"/>
						<stop  offset="0.9926" style="stop-color:#D10059"/>
					</radialGradient>
					<path class="st95" d="M-72.8,198.1c-0.5,0.3-1.1,0.1-1.4-0.3c-0.3-0.5-0.1-1.1,0.3-1.4c0.5-0.3,1.1-0.1,1.4,0.3
						C-72.2,197.2-72.3,197.8-72.8,198.1z M-52.8,195.3c-0.6-0.9-1.8-1.2-2.8-0.7c-0.9,0.6-1.2,1.8-0.7,2.8c0.6,0.9,1.8,1.2,2.8,0.7
						C-52.5,197.5-52.2,196.3-52.8,195.3z M-71.3,211.4c-1.2-1.9-3.6-2.5-5.5-1.3c-1.9,1.2-2.5,3.6-1.3,5.5c1.2,1.9,3.6,2.5,5.5,1.3
						C-70.7,215.8-70.1,213.3-71.3,211.4z M-93.6,184.1c-0.6-0.9-1.8-1.2-2.8-0.7c-0.9,0.6-1.2,1.8-0.7,2.8c0.6,0.9,1.8,1.2,2.8,0.7
						C-93.3,186.3-93,185.1-93.6,184.1z"/>
					<radialGradient id="SVGID_95_" cx="83.935" cy="307.5543" r="19.8266" gradientUnits="userSpaceOnUse">
						<stop  offset="5.925930e-02" style="stop-color:#FF7F9A"/>
						<stop  offset="0.5259" style="stop-color:#FF3B9C"/>
						<stop  offset="0.9926" style="stop-color:#D10059"/>
					</radialGradient>
					<path class="st96" d="M81.2,310.8c0.4-0.3,1.1-0.2,1.4,0.2c0.3,0.4,0.2,1.1-0.2,1.4c-0.4,0.3-1.1,0.2-1.4-0.2
						C80.6,311.8,80.7,311.1,81.2,310.8z M61.5,315.3c0.7,0.9,1.9,1.1,2.8,0.4c0.9-0.7,1.1-1.9,0.4-2.8c-0.7-0.9-1.9-1.1-2.8-0.4
						C61,313.1,60.8,314.4,61.5,315.3z M78.6,297.7c1.3,1.8,3.8,2.2,5.6,0.9c1.8-1.3,2.2-3.8,0.9-5.6c-1.3-1.8-3.8-2.2-5.6-0.9
						C77.6,293.4,77.3,295.9,78.6,297.7z M103.1,323c0.7,0.9,1.9,1.1,2.8,0.4c0.9-0.7,1.1-1.9,0.4-2.8c-0.7-0.9-1.9-1.1-2.8-0.4
						C102.6,320.9,102.5,322.1,103.1,323z"/>
					<radialGradient id="SVGID_96_" cx="513.3861" cy="255.9448" r="3.0304" gradientUnits="userSpaceOnUse">
						<stop  offset="5.925930e-02" style="stop-color:#FF7F9A"/>
						<stop  offset="0.5259" style="stop-color:#FF3B9C"/>
						<stop  offset="0.9926" style="stop-color:#D10059"/>
					</radialGradient>
					<path class="st97" d="M510.8,257.5c0.9,1.4,2.7,1.9,4.2,1c1.4-0.9,1.9-2.7,1-4.2c-0.9-1.4-2.7-1.9-4.2-1
						C510.4,254.2,509.9,256.1,510.8,257.5z"/>
					<radialGradient id="SVGID_97_" cx="629.0753" cy="127.0914" r="2.5705" gradientUnits="userSpaceOnUse">
						<stop  offset="5.925930e-02" style="stop-color:#FF7F9A"/>
						<stop  offset="0.5259" style="stop-color:#FF3B9C"/>
						<stop  offset="0.9926" style="stop-color:#D10059"/>
					</radialGradient>
					<path class="st98" d="M626.5,128.7c0,0,1.7-0.2,2.2-0.1c0.5,0.1,1.9,1.1,1.9,1.1s-0.2-1.7-0.1-2.2c0.1-0.5,1.1-1.9,1.1-1.9
						s-1.7,0.2-2.2,0.1c-0.5-0.1-1.9-1.1-1.9-1.1s0.2,1.7,0.1,2.2C627.5,127.3,626.5,128.7,626.5,128.7z"/>
					<radialGradient id="SVGID_98_" cx="623.2775" cy="228.4269" r="2.5705" gradientUnits="userSpaceOnUse">
						<stop  offset="5.925930e-02" style="stop-color:#FF7F9A"/>
						<stop  offset="0.5259" style="stop-color:#FF3B9C"/>
						<stop  offset="0.9926" style="stop-color:#D10059"/>
					</radialGradient>
					<path class="st99" d="M620.7,230c0,0,1.7-0.2,2.2-0.1c0.5,0.1,1.9,1.1,1.9,1.1s-0.2-1.7-0.1-2.2c0.1-0.5,1.1-1.9,1.1-1.9
						s-1.7,0.2-2.2,0.1c-0.5-0.1-1.9-1.1-1.9-1.1s0.2,1.7,0.1,2.2C621.7,228.6,620.7,230,620.7,230z"/>
					<radialGradient id="SVGID_99_" cx="566.4412" cy="214.6021" r="2.5706" gradientUnits="userSpaceOnUse">
						<stop  offset="5.925930e-02" style="stop-color:#FF7F9A"/>
						<stop  offset="0.5259" style="stop-color:#FF3B9C"/>
						<stop  offset="0.9926" style="stop-color:#D10059"/>
					</radialGradient>
					<path class="st100" d="M563.9,216.2c0,0,1.7-0.2,2.2-0.1c0.5,0.1,1.9,1.1,1.9,1.1s-0.2-1.7-0.1-2.2c0.1-0.5,1.1-1.9,1.1-1.9
						s-1.7,0.2-2.2,0.1c-0.5-0.1-1.9-1.1-1.9-1.1s0.2,1.7,0.1,2.2C564.8,214.8,563.9,216.2,563.9,216.2z"/>
					<radialGradient id="SVGID_100_" cx="389.3434" cy="102.4476" r="2.5706" gradientUnits="userSpaceOnUse">
						<stop  offset="5.925930e-02" style="stop-color:#FF7F9A"/>
						<stop  offset="0.5259" style="stop-color:#FF3B9C"/>
						<stop  offset="0.9926" style="stop-color:#D10059"/>
					</radialGradient>
					<path class="st101" d="M386.8,104c0,0,1.7-0.2,2.2-0.1c0.5,0.1,1.9,1.1,1.9,1.1s-0.2-1.7-0.1-2.2c0.1-0.5,1.1-1.9,1.1-1.9
						s-1.7,0.2-2.2,0.1c-0.5-0.1-1.9-1.1-1.9-1.1s0.2,1.7,0.1,2.2C387.7,102.6,386.8,104,386.8,104z"/>
					<radialGradient id="SVGID_101_" cx="523.9091" cy="60.8808" r="2.5705" gradientUnits="userSpaceOnUse">
						<stop  offset="5.925930e-02" style="stop-color:#FF7F9A"/>
						<stop  offset="0.5259" style="stop-color:#FF3B9C"/>
						<stop  offset="0.9926" style="stop-color:#D10059"/>
					</radialGradient>
					<path class="st102" d="M521.3,62.5c0,0,1.7-0.2,2.2-0.1c0.5,0.1,1.9,1.1,1.9,1.1s-0.2-1.7-0.1-2.2c0.1-0.5,1.1-1.9,1.1-1.9
						s-1.7,0.2-2.2,0.1c-0.5-0.1-1.9-1.1-1.9-1.1s0.2,1.7,0.1,2.2C522.3,61.1,521.3,62.5,521.3,62.5z"/>
					<radialGradient id="SVGID_102_" cx="471.6113" cy="72.8374" r="19.9868" gradientUnits="userSpaceOnUse">
						<stop  offset="5.925930e-02" style="stop-color:#FF7F9A"/>
						<stop  offset="0.5259" style="stop-color:#FF3B9C"/>
						<stop  offset="0.9926" style="stop-color:#D10059"/>
					</radialGradient>
					<path class="st103" d="M473.8,70.6c-0.5,0.3-1.1,0.1-1.4-0.3c-0.3-0.5-0.1-1.1,0.3-1.4c0.5-0.3,1.1-0.1,1.4,0.3
						C474.4,69.7,474.2,70.3,473.8,70.6z M493.7,67.8c-0.6-0.9-1.8-1.2-2.8-0.7c-0.9,0.6-1.2,1.8-0.7,2.8c0.6,0.9,1.8,1.2,2.8,0.7
						C494,70,494.3,68.8,493.7,67.8z M475.2,83.9c-1.2-1.9-3.6-2.5-5.5-1.3c-1.9,1.2-2.5,3.6-1.3,5.5s3.6,2.5,5.5,1.3
						C475.8,88.3,476.4,85.8,475.2,83.9z M452.9,56.6c-0.6-0.9-1.8-1.2-2.8-0.7c-0.9,0.6-1.2,1.8-0.7,2.8c0.6,0.9,1.8,1.2,2.8,0.7
						C453.2,58.8,453.5,57.5,452.9,56.6z"/>
					<radialGradient id="SVGID_103_" cx="630.4706" cy="180.0324" r="19.8266" gradientUnits="userSpaceOnUse">
						<stop  offset="5.925930e-02" style="stop-color:#FF7F9A"/>
						<stop  offset="0.5259" style="stop-color:#FF3B9C"/>
						<stop  offset="0.9926" style="stop-color:#D10059"/>
					</radialGradient>
					<path class="st104" d="M627.7,183.3c0.4-0.3,1.1-0.2,1.4,0.2c0.3,0.4,0.2,1.1-0.2,1.4c-0.4,0.3-1.1,0.2-1.4-0.2
						C627.2,184.3,627.3,183.6,627.7,183.3z M608,187.8c0.7,0.9,1.9,1.1,2.8,0.4c0.9-0.7,1.1-1.9,0.4-2.8c-0.7-0.9-1.9-1.1-2.8-0.4
						C607.6,185.6,607.4,186.9,608,187.8z M625.1,170.2c1.3,1.8,3.8,2.2,5.6,0.9s2.2-3.8,0.9-5.6c-1.3-1.8-3.8-2.2-5.6-0.9
						C624.2,165.9,623.8,168.4,625.1,170.2z M649.7,195.5c0.7,0.9,1.9,1.1,2.8,0.4c0.9-0.7,1.1-1.9,0.4-2.8
						c-0.7-0.9-1.9-1.1-2.8-0.4C649.2,193.3,649,194.6,649.7,195.5z"/>
				</g>
			</g>
			<g class="st4">
				<radialGradient id="SVGID_104_" cx="588.3827" cy="62.8775" r="142.1144" gradientUnits="userSpaceOnUse">
					<stop  offset="5.925930e-02" style="stop-color:#000A57"/>
					<stop  offset="0.3092" style="stop-color:#000952;stop-opacity:0.7234"/>
					<stop  offset="0.5991" style="stop-color:#000744;stop-opacity:0.4027"/>
					<stop  offset="0.9078" style="stop-color:#00032D;stop-opacity:6.107533e-02"/>
					<stop  offset="0.963" style="stop-color:#000228;stop-opacity:0"/>
				</radialGradient>
				<circle class="st105" cx="588.4" cy="62.9" r="142.1"/>
				<radialGradient id="SVGID_105_" cx="-120.2826" cy="72.9101" r="142.1144" gradientUnits="userSpaceOnUse">
					<stop  offset="5.925930e-02" style="stop-color:#4D0057"/>
					<stop  offset="0.3092" style="stop-color:#480052;stop-opacity:0.7234"/>
					<stop  offset="0.5991" style="stop-color:#3B0044;stop-opacity:0.4027"/>
					<stop  offset="0.9078" style="stop-color:#26002D;stop-opacity:6.107533e-02"/>
					<stop  offset="0.963" style="stop-color:#210028;stop-opacity:0"/>
				</radialGradient>
				<circle class="st106" cx="-120.3" cy="72.9" r="142.1"/>
				<radialGradient id="SVGID_106_" cx="-123.0405" cy="461.1384" r="142.1144" gradientUnits="userSpaceOnUse">
					<stop  offset="5.925930e-02" style="stop-color:#000A57"/>
					<stop  offset="0.3092" style="stop-color:#000952;stop-opacity:0.7234"/>
					<stop  offset="0.5991" style="stop-color:#000744;stop-opacity:0.4027"/>
					<stop  offset="0.9078" style="stop-color:#00032D;stop-opacity:6.107533e-02"/>
					<stop  offset="0.963" style="stop-color:#000228;stop-opacity:0"/>
				</radialGradient>
				<circle class="st107" cx="-123" cy="461.1" r="142.1"/>
				<radialGradient id="SVGID_107_" cx="443.7153" cy="428.8009" r="205.3595" gradientUnits="userSpaceOnUse">
					<stop  offset="5.925930e-02" style="stop-color:#4D0057"/>
					<stop  offset="0.3092" style="stop-color:#480052;stop-opacity:0.7234"/>
					<stop  offset="0.5991" style="stop-color:#3B0044;stop-opacity:0.4027"/>
					<stop  offset="0.9078" style="stop-color:#26002D;stop-opacity:6.107533e-02"/>
					<stop  offset="0.963" style="stop-color:#210028;stop-opacity:0"/>
				</radialGradient>
				<circle class="st108" cx="443.7" cy="428.8" r="205.4"/>
				<radialGradient id="SVGID_108_" cx="211.4179" cy="222.4803" r="205.3595" gradientUnits="userSpaceOnUse">
					<stop  offset="5.925930e-02" style="stop-color:#000A57"/>
					<stop  offset="0.3092" style="stop-color:#000952;stop-opacity:0.7234"/>
					<stop  offset="0.5991" style="stop-color:#000744;stop-opacity:0.4027"/>
					<stop  offset="0.9078" style="stop-color:#00032D;stop-opacity:6.107533e-02"/>
					<stop  offset="0.963" style="stop-color:#000228;stop-opacity:0"/>
				</radialGradient>
				<circle class="st109" cx="211.4" cy="222.5" r="205.4"/>
			</g>
			<g class="st4">
				<radialGradient id="SVGID_109_" cx="137.924" cy="299.1611" r="324.4814" gradientUnits="userSpaceOnUse">
					<stop  offset="5.925930e-02" style="stop-color:#000A57"/>
					<stop  offset="0.3092" style="stop-color:#000952;stop-opacity:0.7234"/>
					<stop  offset="0.5991" style="stop-color:#000744;stop-opacity:0.4027"/>
					<stop  offset="0.9078" style="stop-color:#00032D;stop-opacity:6.107533e-02"/>
					<stop  offset="0.963" style="stop-color:#000228;stop-opacity:0"/>
				</radialGradient>
				<path class="st110" d="M-196.1,270.7C-51.7,166.2,104.3,75.5,273.5,19.6C305,9.2,337.1,0,370-3.4c23.7-2.5,52.4,0.8,63.6,21.9
					c4,7.6,5,16.5,4.3,25c-2.8,35.7-31.2,63.3-57.5,87.5c-35.4,32.5-70.3,65.6-108.1,95.2c-38.6,30.3-80,57-116.1,90.1
					c-36.1,33.1-67.4,74-78.4,121.7c-2.3,9.9-3.1,21.8,4.4,28.6c7.9,7.1,20.2,4.5,30.4,1.3c111.7-35.4,218.6-89.2,334.7-105.3
					c7.8-1.1,16.1-1.9,23.1,1.7c14.2,7.4,14,28,8.6,43.2c-9.1,25.4-26.7,46.8-45.3,66.3c-45.8,47.7-99.5,86.7-153,125.5
					c-3.3-16.8-25.7-19.9-42.8-18.7c-45.2,3.4-90,10.7-133.9,21.9c-6.3-12.8,6.6-26.3,18.1-34.8c41.6-30.6,83.2-61.1,124.8-91.7
					c-74.7,1-143.7,39.3-217.2,52.8c-15.8,2.9-32.2,4.7-47.9,1.2c-15.7-3.5-30.8-12.9-37.7-27.4c-6.9-14.4-4.9-31.7,1.5-46.3
					c6.4-14.6,16.9-26.9,27.1-39.1C16.1,366,65.8,316.3,104.7,261.6c6.2-8.8,11.2-19,10.9-29.8c-0.1-4.1-1.1-8.4-3.8-11.6
					c-5.8-6.9-16.8-5.7-25.2-2.4c-28.5,11-57.9,30.4-81.3,49.6c-31.6,26-67.3,48.3-102.2,69.5c-15.2,9.3-31.1,18.4-48.7,21.6
					s-37.4-0.7-49.3-13.9c-15.5-17.2-13.1-44-5.7-65.9c8.6-25.6,22.9-49.4,41.5-69"/>
				<radialGradient id="SVGID_110_" cx="393.9337" cy="86.041" r="349.5457" gradientUnits="userSpaceOnUse">
					<stop  offset="5.925930e-02" style="stop-color:#000A57"/>
					<stop  offset="0.3092" style="stop-color:#000952;stop-opacity:0.7234"/>
					<stop  offset="0.5991" style="stop-color:#000744;stop-opacity:0.4027"/>
					<stop  offset="0.9078" style="stop-color:#00032D;stop-opacity:6.107533e-02"/>
					<stop  offset="0.963" style="stop-color:#000228;stop-opacity:0"/>
				</radialGradient>
				<path class="st111" d="M801.9,133.5C731.8,179.6,668,235,596.7,279.2c-71.3,44.2-153.2,77.5-236.9,72.3c-1.7-0.1-3.4-0.2-5-1
					c-8.1-3.9-2-16.1,4.7-22.1c47.2-42.9,90.4-90.2,128.9-141c18.8-24.8,36.5-50.5,51.2-77.8c6.5-12.1,38.3-72.5,6.2-76.4
					c-15.1-1.8-35.9,6.7-48.2,15c-21,14.1-37.1,34.2-53.5,53.3c-34.8,40.5-72.8,78.4-113.3,113.2c-13.7,11.7-27.8,23.2-44.2,30.9
					c-3.5,1.6-7.4,3.1-11.2,2.2c-11.5-2.8-7.8-20.2-0.9-29.8c19.1-26.6,42.9-49.4,63.3-75c20.4-25.6-27.9-2.2-24.7-34.7
					c1.7-17.6,63.6-90.7,49-100.8c-17.1-11.8-40.4-4.8-59.2,4.1C250,37,204.2,75.1,156.3,109.3C108.4,143.6,56,174.9-2.3,183.3
					c-4.4,0.6-9,1.1-13-0.8c-11.2-5.3-7.9-22-2-32.9c20.1-37.2,49.4-68.3,78.4-99C106.2,2.8,151.3-45,196.4-92.8
					c21.2-22.5,42.7-45.2,68.5-62.1c25.8-17,56.8-28,87.5-24.4C313.2-135.1,274-91,234.8-46.8C225.3-36,215-22.2,219.7-8.6
					c29.6,1.8,56.4-15.8,82-30.7c36.3-21.1,75-38.1,115.2-50.6c9.9-3.1,23-4.8,28.7,3.9c4,6.1,1.9,14.3-1,21
					c-23.1,53.5-84,85.6-100,141.6c-1.3,4.7-2.3,10-0.1,14.4c5.2,10.3,20.8,6.4,30.8,0.7c55.8-31.6,104.7-74,157.1-110.9
					C585-56.2,643.2-88.4,707-95.5c25.3-2.8,55.6,1,68.3,23.1c13.7,23.7-1,53.3-16.8,75.7c-29.6,41.9-64.4,80.1-103.4,113.5
					c-26.9,23-56.2,44.3-75.7,73.8c-7.2,10.8-13,23.1-13.1,36.1c-0.1,13,6.8,26.6,18.9,31.3c6.5,2.6,13.8,2.3,20.8,1.6
					c59.3-6.1,111.7-44.8,171.1-50c9.9-0.9,21.1-0.3,28,6.9c7.2,7.6,6.7,20.1,1.5,29.2s-13.9,15.5-22.5,21.4
					c-52.3,35.9-109.8,64.3-170,84.1"/>
				<radialGradient id="SVGID_111_" cx="503.7618" cy="377.7019" r="210.0515" gradientUnits="userSpaceOnUse">
					<stop  offset="5.925930e-02" style="stop-color:#4D0057"/>
					<stop  offset="0.3092" style="stop-color:#480052;stop-opacity:0.7234"/>
					<stop  offset="0.5991" style="stop-color:#3B0044;stop-opacity:0.4027"/>
					<stop  offset="0.9078" style="stop-color:#26002D;stop-opacity:6.107533e-02"/>
					<stop  offset="0.963" style="stop-color:#210028;stop-opacity:0"/>
				</radialGradient>
				<path class="st112" d="M619.3,173.3C531.4,252,432,317.6,348.1,400.6c-30.9,30.6-61.5,68.1-59.8,111.6c0.1,2.8,0.4,5.8,2,8.2
					c3.4,5.1,10.9,5.1,16.9,4.1c76-12.7,130.6-86.6,206.5-100.1c0.8,11-7.8,20.1-15.7,27.7c-35.1,34.3-69.7,73-79.9,121
					c-0.5,2.4-0.9,5.3,0.7,7.2c1.8,2.2,5.1,2.1,7.9,1.7c40.7-5.6,77-28.8,107.5-56.3c30.5-27.5,56.6-59.5,86.5-87.7
					c33.9-31.9,73-59.3,98.6-98.2c-7.1-4.7-16.8-3.7-24.4,0.2c-7.6,3.9-13.5,10.3-19.3,16.5c-31,33-64,64.2-98.6,93.5
					c-13.3,11.2-27.6,22.5-44.6,26.2c32.8-45.8,83.1-79.2,105.6-130.7c1.8-4,3.3-8.6,1.7-12.6c-1.5-3.7-5.3-5.9-9.1-7.2
					c-14.6-5.1-30.7-0.3-44.7,6c-43.4,19.5-80.9,54.3-127.9,61.6c-6.8,1-15.8,0.1-17.6-6.5c-0.9-3.4,0.6-6.9,2.2-10
					c15.8-30.4,45.1-50.8,72.5-71.4c38.7-29,76.6-61.8,97.1-105.5c2.9-6.2,5.4-13.3,2.7-19.6c-2.7-6.3-13.1-8.6-16-2.4"/>
				<radialGradient id="SVGID_112_" cx="-48.2483" cy="84.2625" r="213.6965" gradientUnits="userSpaceOnUse">
					<stop  offset="5.925930e-02" style="stop-color:#4D0057"/>
					<stop  offset="0.3092" style="stop-color:#480052;stop-opacity:0.7234"/>
					<stop  offset="0.5991" style="stop-color:#3B0044;stop-opacity:0.4027"/>
					<stop  offset="0.9078" style="stop-color:#26002D;stop-opacity:6.107533e-02"/>
					<stop  offset="0.963" style="stop-color:#210028;stop-opacity:0"/>
				</radialGradient>
				<path class="st113" d="M133.5-77.3C89-26.4,65.4,53.5,11,93.6c-7.5,5.5-15.4,10.9-24.4,13.1c-9,2.2-19.6,0.4-25.7-6.6
					c-6.1-7-6.5-17.2-4.9-26.4C-36.7,32.1,3.2,3.2,15.8-37.2c2.6-8.4,3.4-18.8-3.2-24.6C7.4-66.3-0.3-66-7-64.5
					c-21.7,5.1-38.8,21.3-55.5,36.1C-81-12-100.3,3.4-120.4,17.7c-8.1,5.8-18.7,11.6-27.5,6.9C-141.1,6.8-128-7.8-115.2-22
					c23.7-26.3,47.5-53,65.1-83.7c4.9-8.5,9.3-18.8,5.2-27.7c-13.4-0.4-25.4,7.7-36,15.9C-136.2-74.6-180.8-20-225,34.2
					c-11.2,13.8-22.6,27.8-29.3,44.3c-2.6,6.3-4.4,13.2-3.4,20c1,6.8,5.4,13.4,11.9,15.3c4,1.2,8.3,0.6,12.3-0.4
					c21-5.4,36.8-22.3,52.4-37.4c15.7-15.1,32.6-29.1,50.4-41.8c11.8-8.4,26-16.6,40-12.7c-5.9,10.8-16.6,18-25.7,26.3
					c-9.1,8.3-17.4,19.6-15.8,31.8c0.3,2.4,1.1,4.9,3,6.5c3.7,3.1,9.3,1.1,13.5-1.2C-88,69.4-69.6,42.2-47.8,19.3
					C-42.6,13.8-36,8.2-28.4,8.9c-9.5,28.8-29.8,52.7-51.1,74.3c-44.1,44.9-94.4,84.2-132.7,134.1c-11.6,15.1-22.3,32-24,51
					c-0.7,8.2,0.5,17,5.5,23.5c10.9,13.9,32.6,10.9,49.2,4.8c49.6-18.4,92.2-51.9,130.7-88.2C28.6,133.7,94.7,44.8,143.5-52.7
					c4.6-9.2,9.4-19,17.9-24.8L133.5-77.3z"/>
			</g>
		</g>
	</g>
</g>
<g id="Слой_6" class="st0">
	<linearGradient id="SVGID_113_" gradientUnits="userSpaceOnUse" x1="162.7684" y1="258.1013" x2="331.0148" y2="258.1013">
		<stop  offset="4.042166e-02" style="stop-color:#49D6FF"/>
		<stop  offset="0.4594" style="stop-color:#6C99FE"/>
		<stop  offset="0.8783" style="stop-color:#9061FF"/>
	</linearGradient>
	<circle class="st114" cx="246.9" cy="258.1" r="84.1"/>
</g>
<g id="Слой_7" class="st0">
	<g class="st2">
		<defs>
			<rect id="SVGID_114_" width="500" height="500"/>
		</defs>
		<clipPath id="SVGID_115_">
			<use xlink:href="#SVGID_114_"  style="overflow:visible;"/>
		</clipPath>
		<g style="opacity:0.6;clip-path:url(#SVGID_115_);">

				<image style="overflow:visible;" width="3111" height="2567" xlink:href="D8E41EC4.png"  transform="matrix(0.24 0 0 0.24 -116.4 -58.56)">
			</image>
		</g>
	</g>
</g>
<g id="Слой_4">
	<linearGradient id="SVGID_116_" gradientUnits="userSpaceOnUse" x1="56.3977" y1="330.9203" x2="420.3517" y2="93.9015">
		<stop  offset="0.1792" style="stop-color:#6CFFFF"/>
		<stop  offset="0.4594" style="stop-color:#7BABFF"/>
		<stop  offset="0.7644" style="stop-color:#B180FF"/>
	</linearGradient>
	<path class="st115" d="M46.6,243.6 M287.3,319.4c-13.9,0.3-35.2,0.6-61.3,0.1c-37.1-0.8-65.3-2.8-77.2-3.8
		c-11.1-0.9-21-1.8-29.8-2.8c17,38.6,50.6,69.5,94.6,81.4c69.7,18.9,141.3-16.7,169.7-80.8c-2.1,0.2-3.9,0.4-5.6,0.5
		C351.4,316.5,321.4,318.5,287.3,319.4z M491.5,256.2c0,27.7-109.2,50.1-244,50.1s-244-22.4-244-50.1c0-17.1,41.8-32.2,105.5-41.3
		c0.3-1.4,0.7-2.7,1-4c-9.6-4.8-15.4-10.6-18.3-14.6c-3.5-5-8.4-13-12.7-28.1c-3.2-11.1-3-15.3-7.8-44.1c-1.6-9.4-2.4-14.2-2.6-15.1
		c-1-3.7-2.8-6.6-1.5-8.3c1.3-1.6,4.4-1.1,6.5-0.7c8.4,1.4,16.9,2.3,25.2,4.1c7.7,1.7,6,0.8,15.7,2.7c9.6,1.9,22.1,4.6,33.9,10.7
		c8.4,4.4,17.2,9,22.5,16.4c32.7-21.3,73.9-29.4,114.7-19c16.4,4.2,31.4,11,44.7,20c5.4-7,14.2-11.4,22.5-15.6
		c11.8-6,24.4-8.4,34-10.1c9.6-1.8,8-0.9,15.7-2.5c8.3-1.7,16.9-2.4,25.3-3.7c2.2-0.3,5.3-0.8,6.5,0.8c1.3,1.7-0.6,4.5-1.7,8.3
		c-0.3,0.9-1.1,5.6-2.9,15c-4.3,23.3-5.1,30.5-7,38.2c-0.4,1.5-0.9,3.4-1.6,5.8c-1.2,3.9-2.9,9.3-6,15.7c-3.1,6.4-6.2,10.8-7.2,12.2
		c-2.7,3.7-4.5,6.3-7.8,8.9c-4,3.2-8,4.7-10.6,5.4c0.1,0.4,0.2,1.2,0.5,2.2C451.6,224.7,491.5,239.5,491.5,256.2z M367.3,170.8
		c7.8,10.8,14,22.7,18.5,35.3c2.3-0.2,6.4-1.2,11.5-5.5c3.2-2.7,7.3-7.1,12.9-19.4c2.4-5.3,5.4-12,7.8-21.7
		c2.4-9.9,2.1-14.3,5.2-30.3c1.1-5.6,1.8-8.7,3.1-12.3c1.6-4.5,3.2-7.6,2.8-7.8c-0.4-0.2-2.9,3.7-7.6,9.6
		c-5.8,7.2-11.9,11.3-17.6,14.7c-12.6,7.6-15.4,5.9-22.3,11.4c-3.3,2.6-10.2,8.4-13.2,18.2C367.6,165.6,367.3,168.2,367.3,170.8z
		 M114.8,203.9c4.6-12.3,10.8-23.6,18.2-33.9c0.2-3,0-6-0.9-9.1c-2.8-9.9-9.6-15.8-12.8-18.4c-6.9-5.6-9.7-3.9-22.1-11.7
		c-5.6-3.5-11.6-7.7-17.3-15c-4.7-6-7-9.9-7.4-9.7c-0.4,0.2,1.2,3.4,2.6,7.9c1.2,3.6,1.9,6.7,2.9,12.3c2.9,16.1,2.4,20.4,4.7,30.4
		c2.2,9.7,5.1,16.5,7.4,21.9c5.4,12.4,9.4,16.9,12.6,19.6C108.3,203.1,112.7,203.8,114.8,203.9z M108.1,282.3
		c-1-5.4-1.8-10.8-2.2-16.3c0-0.5-0.2-2.7-0.2-3.3c-0.1-0.9-0.1-3.1-0.1-3.3c-0.4-11,0.5-21.8,2.6-32.3c0-0.1,0.3-2,0.3-3.7
		c-33.2,7.7-53.5,18-53.5,29.5C55,264.3,75.2,274.7,108.1,282.3z M440.2,252.9c0-10.9-18.6-20.9-49.1-28.4c1.3,6.1,2.4,13.1,3,20.9
		c0.9,13.9-0.3,26.1-2.1,35.7C421.9,273.6,440.2,263.7,440.2,252.9z"/>
</g>
<g id="Слой_8" class="st0">
</g>
</svg>
