<?xml version="1.0" encoding="utf-8"?>
<!-- Generator: Adobe Illustrator 25.0.0, SVG Export Plug-In . SVG Version: 6.00 Build 0)  -->
<svg version="1.1" xmlns="http://www.w3.org/2000/svg" xmlns:xlink="http://www.w3.org/1999/xlink" x="0px" y="0px"
	 viewBox="0 0 4000 4000" style="enable-background:new 0 0 4000 4000;" xml:space="preserve">
<style type="text/css">
	.st0{display:none;}
	.st1{display:inline;}
	.st2{fill:#450BA0;}
	.st3{fill:#FFFFFF;}
	.st4{opacity:0.5;}
	.st5{fill:#000072;}
	.st6{opacity:0.3;}
	.st7{fill:url(#SVGID_1_);}
	.st8{fill:#979BB2;}
	.st9{fill:#EA9DAD;}
	.st10{fill:#8FC1D1;}
	.st11{fill:#DDA2AC;}
	.st12{fill:#3C3C3B;}
	.st13{fill:#63AABA;}
</style>
<g id="Layer_1" class="st0">
	<g class="st1">
		<rect class="st2" width="4000" height="4000"/>
	</g>
	<g class="st1">
		<g>
			<path class="st3" d="M836.8,3429.3c0.5,4.9-9.3,10.2-24.2,14c-7.5,1.9-13,8.5-13.4,16.3c-0.9,15.4-4.3,25.9-9.2,26.4
				c-4.9,0.5-10.2-9.3-14-24.2c-1.9-7.5-8.5-13-16.3-13.4c-15.4-0.9-25.9-4.3-26.4-9.2c-0.5-5,9.3-10.3,24.2-14.1
				c7.5-1.9,13-8.5,13.5-16.3c0.9-15.4,4.3-25.9,9.2-26.4s10.2,9.3,14,24.2c1.9,7.5,8.5,13,16.3,13.4
				C825.8,3421,836.4,3424.4,836.8,3429.3z"/>
		</g>
		<g>
			<path class="st3" d="M3045,2777c0,6.1-12.6,11.5-31.4,14.4c-9.5,1.5-16.9,9-18.4,18.4c-2.9,18.8-8.3,31.4-14.4,31.4
				c-6.1,0-11.5-12.6-14.4-31.4c-1.5-9.5-9-16.9-18.4-18.4c-18.8-2.9-31.4-8.3-31.4-14.4c0-6.2,12.6-11.5,31.4-14.4
				c9.5-1.5,17-9,18.5-18.4c2.9-18.8,8.3-31.4,14.4-31.4c6.1,0,11.5,12.6,14.4,31.4c1.5,9.5,9,17,18.5,18.4
				C3032.5,2765.5,3045,2770.8,3045,2777z"/>
		</g>
		<g>
			<path class="st3" d="M2662.4,506.3c0,6.8-13.9,12.7-34.8,16c-10.5,1.6-18.8,9.9-20.4,20.4c-3.3,20.8-9.2,34.8-16,34.8
				c-6.8,0-12.7-13.9-16-34.8c-1.6-10.5-9.9-18.8-20.4-20.4c-20.8-3.3-34.8-9.2-34.8-16c0-6.8,14-12.8,34.8-16
				c10.5-1.6,18.8-9.9,20.5-20.5c3.3-20.8,9.2-34.8,16-34.8s12.7,13.9,16,34.8c1.6,10.5,9.9,18.8,20.5,20.4
				C2648.4,493.5,2662.4,499.4,2662.4,506.3z"/>
		</g>
		<g>
			<circle class="st3" cx="3254.5" cy="862.2" r="18.3"/>
		</g>
		<g>
			
				<ellipse transform="matrix(0.7071 -0.7071 0.7071 0.7071 -984.4911 3227.2983)" class="st3" cx="3403.4" cy="2802" rx="21.7" ry="21.7"/>
		</g>
		<g>
			<circle class="st3" cx="2599.3" cy="3352.7" r="21.7"/>
		</g>
		<g>
			
				<ellipse transform="matrix(0.7071 -0.7071 0.7071 0.7071 -534.5935 816.5015)" class="st3" cx="718.3" cy="1053.6" rx="21.7" ry="21.7"/>
		</g>
		<g>
			
				<ellipse transform="matrix(0.2298 -0.9732 0.9732 0.2298 1445.7632 3406.2458)" class="st3" cx="2874.9" cy="789.7" rx="18.3" ry="18.3"/>
		</g>
		<g>
			
				<ellipse transform="matrix(0.9239 -0.3827 0.3827 0.9239 -176.3818 296.7298)" class="st3" cx="657.7" cy="591.7" rx="21.7" ry="21.7"/>
		</g>
		<g>
			<path class="st3" d="M491.3,3398.1c1.1,11.3-7.2,21.4-18.5,22.4c-11.3,1.1-21.4-7.2-22.4-18.5c-1.1-11.3,7.2-21.4,18.5-22.4
				S490.3,3386.8,491.3,3398.1z"/>
		</g>
		<g>
			
				<ellipse transform="matrix(0.9239 -0.3827 0.3827 0.9239 35.8431 1344.1731)" class="st3" cx="3396.7" cy="582" rx="9.4" ry="9.4"/>
		</g>
		<g>
			
				<ellipse transform="matrix(0.1602 -0.9871 0.9871 0.1602 -923.3245 5853.5483)" class="st3" cx="2978.3" cy="3469.4" rx="11.2" ry="11.2"/>
		</g>
		<g>
			
				<ellipse transform="matrix(0.2298 -0.9732 0.9732 0.2298 305.5971 1552.2744)" class="st3" cx="1133.5" cy="583.1" rx="11.2" ry="11.2"/>
		</g>
		<g>
			
				<ellipse transform="matrix(0.7071 -0.7071 0.7071 0.7071 -824.2795 613.3666)" class="st3" cx="328.3" cy="1301.7" rx="11.2" ry="11.2"/>
		</g>
		<g>
			
				<ellipse transform="matrix(0.6369 -0.771 0.771 0.6369 -2166.9331 1527.9348)" class="st3" cx="538.5" cy="3064.3" rx="10.6" ry="10.6"/>
		</g>
		<g>
			
				<ellipse transform="matrix(0.7071 -0.7071 0.7071 0.7071 -1282.08 3261.5613)" class="st3" cx="3296" cy="3178.4" rx="11.2" ry="11.2"/>
		</g>
		<g>
			
				<ellipse transform="matrix(0.2298 -0.9732 0.9732 0.2298 -1214.4344 1886.5846)" class="st3" cx="584.7" cy="1710.5" rx="20.6" ry="20.6"/>
		</g>
	</g>
</g>
<g id="Слой_2">
	<g class="st4">
		<path class="st3" d="M1927.6,882.9c0,0-593.7-22.9-593.7,437.5c0,0,0,82.8,57,172.7c-22.3-59-22.4-103.5-22.4-103.5
			c0-124.4,43.4-213.4,106.6-277.2c8.6-8.7,21.5-12.1,33.1-8.4c37.3,11.7,100.7,4.6,166.6-21.8c68.5-27.4,120.7-68.1,137.7-103.3
			c5.2-10.8,15.2-18.5,27-19.9c71.9-8.7,122.7-6.8,122.7-6.8s383.5-14.7,534,218.5C2383.3,865.3,1927.6,882.9,1927.6,882.9z"/>
	</g>
	<g>
		<path class="st3" d="M1467.1,1834.6c-2,132-42.1,297.8-246.7,214.3c-321.9-131.3-429-392.7-429-392.7
			c-105-48.2-143.7-152.6-143.7-152.6s-23.6,8.5-48.4-0.9c-17.8-6.7-36.2-22.7-47.1-57.5c-26-83.4,27.8-113.1,27.8-113.1
			c8.4-80.6,58.4-70.4,58.4-70.4c-48.2-165.9,12.7-173.4,34.3-167.8c28.7,7.4,62.1,113.1,62.1,113.1s-12.1-103.8,21.3-134.4
			c16.7-15.3,30.6-13.2,40.3-7.3c9.1,5.5,15.1,14.9,17.6,25.2c15.6,62.2,37.1,118.9,59.5,167.7c12.5,27.2,25.2,52,37.3,73.9
			c37.7,68.1,69.6,108.5,69.6,108.5c160.1,126.2,289,190.5,372.1,222.8c40.7,15.8,73.1,45.4,92.9,82.3
			C1459.9,1772.4,1467.7,1802.9,1467.1,1834.6z"/>
	</g>
	<g>
		<path class="st5" d="M1319.1,2091.6c-31.6,0-67.1-8-106.3-24c-299.6-122.3-416.4-351.6-436.8-396.4
			c-82.5-40.7-124.6-112.5-140.1-144.5c-13.4,1.6-32.3,1-51.4-8.5c-24-12-41.3-34.5-51.5-67c-21.4-68.9,5.4-112.2,28.2-130.6
			c4.7-31.3,16.4-53.9,34.6-67.2c5.8-4.2,11.6-7.1,17.1-9c-19.7-77.4-16.6-128.2,9.2-154.8c17-17.5,40-19.4,55.8-15.3
			c14.3,3.7,27.5,18.6,39,37.9c4.2-21.7,12-41.9,25.7-54.5c20.4-18.6,43.8-22.2,64.4-9.7c13.2,8,22.7,21.3,26.7,37.5
			c46.7,186,148.2,323.6,161.2,340.7c159,125,286.1,187.7,364.9,218.3c77.5,30.1,128.7,106.6,127.4,190.3
			c-1.8,118.1-31.2,196.8-87.2,233.8C1377,2084,1349.9,2091.6,1319.1,2091.6z M647.7,1483.5c8.3,0,16.1,5,19.1,13.1
			c0.3,0.9,37.4,97.3,133.2,141.3c4.7,2.1,8.3,6,10.3,10.7c1,2.5,108.3,255.3,417.9,381.6c64.4,26.3,114.8,27.9,149.9,4.8
			c55.1-36.4,68-129.2,69.1-200.7c1-67-39.8-128.1-101.6-152.1l0,0c-81.7-31.7-213.5-96.6-377.3-225.8c-1.2-1-2.4-2.1-3.3-3.3
			c-4.8-6.1-118.3-151.4-170.1-357.7c-1.4-5.8-4.6-10.5-8.5-12.9c-2.4-1.5-6.5-3.9-16.2,4.9c-17.7,16.2-19.4,78.3-14.9,117.2
			c1.2,10.3-5.7,19.9-15.8,22.1c-10.2,2.2-20.3-3.7-23.5-13.6c-15-47.3-37.4-93.6-48.4-99.7c-2.4-0.5-10.3-1.7-16.2,4.5
			c-6,6.2-23.3,34.5,6.9,138.3c2,7,0.7,14.6-4.4,19.8c-5.1,5.2-12,7.4-19,5.6c0.1,0.1-0.4-0.1-1.3-0.1c-2.5,0-8.3,0.5-14,5
			c-10,7.7-16.5,24.3-18.9,47.8c-0.7,6.6-4.5,12.4-10.3,15.6c-3.8,2.2-38.3,24.9-18.3,89.4c6.7,21.4,16.9,35.7,30.5,42.7
			c18.5,9.4,38.8,2.7,39,2.7C643.3,1483.8,645.5,1483.5,647.7,1483.5z"/>
	</g>
	<g class="st6">
		<path class="st5" d="M1467.1,1834.6c-2,132-42.1,297.8-246.7,214.3c-321.9-131.3-429-392.7-429-392.7
			c-105-48.2-143.7-152.6-143.7-152.6s-23.6,8.5-48.4-0.9c-17.1-55,9.2-98.6,9.2-98.6c-5-73,39.2-117.3,39.2-117.3
			c71.7-47.8,160.7-42.7,225.9-28.7c12.5,27.2,25.2,52,37.3,73.9c-111.6-44.8-215.9-28.1-215.9-28.1
			c-113.7,64.3,30.3,125.1,30.3,125.1l106.8,43c-122.6-8.5-154.7,85.8-40.8,100.1c114,14.2,189.1-131.6,189.1-131.6
			c2.5,109.4-107.7,189.1-107.7,189.1c35.3,67.1,74.6,119.9,113,161.2c78.2,84.2,208.3,90.8,297.1,17.9
			c69.7-57.2,131.3-64.1,162.5-63C1459.9,1772.4,1467.7,1802.9,1467.1,1834.6z"/>
	</g>
	<g>
		<g>
			<path class="st5" d="M794.1,1676.3l-5.2-40c162.9-21,171.2-189.3,171.5-196.4l40.3,1.6C1000.7,1443.5,990.4,1650.9,794.1,1676.3z
				"/>
		</g>
		<g>
			<path class="st5" d="M908.8,1362c-38.4-15.1-79.3-28.5-119.2-36.4c-20-3.7-40-6.1-58.6-5c-18.4,1.4-35.2,5.9-45.1,15.8
				c-5.2,5.1-8.8,11.2-9.6,15.6c-1.2,4.3,0.1,9.8,4,16.5c3.9,6.6,10.2,13.4,17.4,19.6c7.2,6.4,15.6,12,24,17.8
				c34.3,22.6,72.6,42.3,110.5,66.2c-22.6-0.4-44.6-4.4-66.2-10.1c-21.6-5.8-42.7-13.6-63.1-24.5c-10.2-5.4-20.1-11.6-29.8-18.9
				c-9.6-7.4-19.1-15.9-27.3-27.5c-4.1-5.7-7.6-12.5-10.1-20.1c-1.3-3.8-1.8-8.1-2.6-12.1c-0.1-4.2-0.4-8.6,0.2-12.8
				c1.2-8.4,3.9-16.4,7.6-23c3.6-6.8,8.1-12.5,13.1-17.9c10.1-10.7,22.9-18.3,35.5-23c12.7-4.8,25.6-6.9,38-8
				c24.8-1.8,48.3,0.8,70.9,5.5c22.6,4.5,44.4,11,65.6,18.7c21.3,7.7,41.5,16.3,62.1,27.1L908.8,1362z"/>
		</g>
		<g>
			<path class="st5" d="M672.6,1477.6c-5.9,0-11.8-0.8-17.7-2.4c-63.3-17.4-91.3-125.9-94.3-138.3l39.2-9.5c0,0,0,0,0,0l0,0
				c9.2,37.6,35.2,100.5,65.8,108.9c12.9,3.6,28.2-3.6,45.4-21.2l28.9,28.2C717.5,1466.1,694.9,1477.6,672.6,1477.6z"/>
		</g>
		<g>
			<path class="st5" d="M656.9,1521.6l-18.3-36l-0.6,0.3c1.8-1.1,10.8-7.6,8.3-26.3l40-5.4C691.6,1493,670.3,1514.8,656.9,1521.6z"
				/>
		</g>
		<g>
			<path class="st5" d="M649.7,1334.5c-22.8-37.9-30.4-66.5-30.7-67.7l39.1-10.2c0.1,0.2,6.7,24.6,26.3,57.1L649.7,1334.5z"/>
		</g>
		<g>
			<path class="st5" d="M737.5,1304.9c-14.6-37.4-22.2-92.8-22.5-95.1l40-5.4c0.1,0.5,7.3,53,20.1,85.9L737.5,1304.9z"/>
		</g>
	</g>
	<g>
		<g>
			<path class="st3" d="M2762.8,1748.6c-61,701.8-342.2,1083.4-468,1221.5c-33.4,36.7-88,44.8-130.8,19.7l-96.1-56.1l-140.3-67.4
				l44.4-104.9l484.3-1144.2c62.5-2.9,113.6,5.4,154.9,18.9C2722.9,1672.9,2762.8,1748.6,2762.8,1748.6z"/>
		</g>
		<g class="st6">
			<path class="st5" d="M2119.7,2850.6l-52.8-39.6l-95-49.5l484.3-1144.2c0.6,0,1.2-0.1,1.9-0.1c88.8-3.8,164.2,64.6,170.8,153.2
				c33.1,444.3-183.4,849.8-309.3,1044.5C2276,2882.6,2184.1,2898.9,2119.7,2850.6z"/>
		</g>
		<g>
			<path class="st5" d="M2217,3024.3c-21.7,0-43.5-5.6-63.2-17l-95.4-55.7l-139.6-67.1c-9.7-4.7-14-16.1-9.8-26.1l528.7-1249
				c3-7.2,9.9-11.9,17.7-12.3c241.8-11.2,322,135.8,325.3,142.1c1.8,3.4,2.6,7.3,2.3,11.2c-61.9,712.2-351.5,1099.7-473.2,1233.3
				C2285.5,3010.3,2251.4,3024.3,2217,3024.3z M1953.7,2856.4l122.9,59.1c0.5,0.2,1,0.5,1.4,0.8l96.1,56.2
				c34.5,20.2,79,13.5,105.7-15.9c118.5-130.1,400.2-507.4,462.2-1203.2c-14.7-23.2-87.6-120.6-272.3-116.3L1953.7,2856.4z"/>
		</g>
	</g>
	<g>
		<g>
			<path class="st3" d="M3183,1629.7c22.2,420.9-231.7,385.6-231.7,385.6c-133.5,123.3-470.3,157.6-470.3,157.6
				c-97.7,359.7-269.3,677.3-514.1,840.4c-244.7,163.1-386.8,468.4-402.9,567.2c-16,98.9-179.2,154.5-233.6,116.4
				c-54.4-38.1-407.8-232.5-495.6-274.6c-87.7-42-81.6-95.2-81.6-95.2c3.8-41.4,12.3-76,24.4-104.9
				c89.4-214.5,373.6-113.3,373.6-113.3c96.4-222.5,198.3-341.1,198.3-341.1c-16.7-9.3-45.1-24.1-45.1-24.1
				c-180.4,7.4-462.2,160.7-541.3,269.5c-37.4,51.4-87,85.7-134.8,100.8c-22,6.9-43.8,9.8-63.7,8.3c-28.4-2-53.2-12.6-70.8-32.5
				c-56.9-64.3-227.4-160.7-328.8-254.6c-101.3-94-37.1-192.8-37.1-192.8c11.8-14.4,23.5-27.3,35.1-38.9
				c195-194.2,357.9,1.8,357.9,1.8c388.1-331.2,619.2-262,619.2-262c63-378.2,237.2-574.7,237.2-574.7c0-0.1,0-0.1,0-0.1
				c300.2-196.7,877-62.9,877-62.9s101.9,13.3,229,17.4c117.7,3.6,257.1-0.7,357.5-31c208.8-63,247.2-212.5,312.7-192.2
				C3217.7,1519.9,3184.1,1626.1,3183,1629.7L3183,1629.7z"/>
		</g>
		<g class="st6">
			<path class="st5" d="M2951.2,2015.3c-133.5,123.3-470.3,157.6-470.3,157.6c-97.7,359.7-269.3,677.3-514.1,840.4
				c-244.7,163.1-386.8,468.4-402.9,567.2c-16,98.9-179.2,154.5-233.6,116.4c-54.4-38.1-407.8-232.5-495.6-274.6
				c-87.7-42-81.6-95.2-81.6-95.2c3.8-41.4,12.3-76,24.4-104.9c113.9,119.2,237.2,179.5,347.8,207.9
				c174.2,44.8,356.5-33.4,445.9-189.5c49.3-86,97.7-160,141.2-221.1c100.4-141.2,76.5-361.7-103.3-420.4
				c-301.7-98.5-336.8-164.4-336.8-164.4l582.1,95.8l17.7-118.6l178.2,45.7c81.3,20.8,166.7-18.2,202.6-94
				c32.6-68.8,45.3-135.3,48-193c4.6-99.8-81-179.7-180.5-170.2c-612,58.6-740.8-226.4-743.2-231.8c0-0.1,0-0.1,0-0.1
				c300.2-196.7,877-62.9,877-62.9s101.9,13.3,229,17.4c44.1,66.4,40.9,160.7,31.5,225.1c-6,41.1,26.1,77.9,67.6,76.9
				c139.2-3.3,264.3-61.8,264.3-61.8l53.7-17.9c36.3-12.1,62.5-44.2,66.7-82.2c0-0.4,0.1-0.7,0.1-0.7c-17.6-19.4-0.9-61.3-0.9-61.3
				c-7.4-167.8,216.9-171.4,216.9-171.4C3205.2,2050.5,2951.2,2015.3,2951.2,2015.3z"/>
		</g>
		<g class="st6">
			<path class="st5" d="M1531.8,2622.7c-86.5,38.3-182.3,145.2-182.3,145.2c-16.7-9.3-45.1-24.1-45.1-24.1
				c-180.4,7.4-462.2,160.7-541.3,269.5c-37.4,51.4-87,85.7-134.8,100.8c-22,6.9-43.8,9.8-63.7,8.3c-28.4-2-53.2-12.6-70.8-32.5
				c-56.9-64.3-227.4-160.7-328.8-254.6c-101.3-94-37.1-192.8-37.1-192.8c11.8-14.4,23.5-27.3,35.1-38.9
				C166.1,2726,298.3,2818.4,421,2878c101.1,49.1,222.3,36.8,308.9-34.7c120.1-99.3,276.6-146,366.5-166c38.4-8.5,65-43.5,63.4-82.8
				c-1.4-34.8,2.2-62.1,6.6-81.6c3.4-15.1,23.2-18.8,32.2-6.2c41.7,58.7,82.9,101.3,110.8,127.2c18.7,17.4,45.9,22.4,69.4,12.5
				C1452.9,2615.4,1531.8,2622.7,1531.8,2622.7z"/>
		</g>
		<g>
			<path class="st5" d="M1378.7,3729.2c-24,0-44.9-5.2-59.9-15.7c-52.4-36.7-406.7-231.7-492.7-272.9
				c-99.6-47.7-93.2-113-92.9-115.7c9.5-102.7,48.1-176.5,114.8-219.1c103.7-66.2,242.8-35.5,292-21.4
				c73.1-164.5,147.2-269.3,178.7-310.2c-7.4-3.9-14.3-7.6-18.8-9.9c-175.3,9.9-444.5,156.4-520.5,260.9
				c-50.3,69.2-125.6,114.3-196.5,117.6c-42.9,2.1-80-12-104.4-39.5c-27.3-30.9-85.7-71.9-147.4-115.3
				c-60.5-42.5-129.1-90.8-179.9-137.9c-112.5-104.3-41-217.5-40.3-218.6c0.4-0.6,0.8-1.2,1.3-1.8
				c71.4-87.3,148.2-131.8,228.3-132.1c0.3,0,0.6,0,0.9,0c87.8,0,153.5,53.3,181,80.1c320.5-268.1,534.3-267.2,601.3-258
				c65.9-366.2,231.3-556.4,238.5-564.5c1.2-1.3,2.6-2.5,4.1-3.5c300.5-196.8,856.1-74,891.6-65.9c21,2.6,379.8,46.5,577.1-13
				c113.3-34.2,173.8-94.5,218.1-138.5c37.1-36.9,66.3-66.1,106.4-53.6c18.9,5.9,33.7,18.2,42.7,35.7c21.1,41,6.2,99.5,1.3,115.9
				c8.2,164.9-24.3,282.2-96.5,348.5c-58.1,53.4-124,56.3-148.5,55.3c-125.9,108.9-396.5,147.4-461.5,155.3
				c-108.2,390.1-292.2,687.7-518.7,838.7c-239.7,159.8-379.1,460.9-394.2,553.7c-8.4,51.5-52,98.6-116.8,125.9
				C1436.3,3722.7,1405.5,3729.2,1378.7,3729.2z M1004.7,3105.5c-45.2,0-94.2,8.2-135.2,34.4c-55.5,35.5-87.9,99.2-96.2,189.2
				c-0.1,1.6-1.6,40.7,70.2,75.1c89.4,42.8,443.4,237.7,498.5,276.3c19.7,13.8,65.8,10.5,109.5-7.9c51.9-21.9,86.5-57.5,92.6-95.2
				c16.4-101.1,158.2-411.9,411.6-580.8c221-147.3,400.6-441.7,505.8-828.9c2.2-8.1,9.1-13.9,17.4-14.8
				c3.3-0.3,331.7-35.1,458.7-152.3c4.4-4.1,10.5-6,16.5-5.2c2.7,0.3,68.8,8.2,126-44.8c62.1-57.6,90.8-168.2,82.8-319.7
				c-0.1-2.5,0.2-5,1-7.3c5.2-15.9,15.6-62.8,2.3-88.6c-4.1-8-10.1-12.9-18.8-15.6c-16.1-5-33.7,11.5-66,43.7
				c-44.6,44.4-111.9,111.5-234.9,148.6c-210.6,63.6-579.3,16.3-594.9,14.3c-0.6-0.1-1.3-0.2-1.9-0.4c-5.7-1.3-568.8-128.8-859,58.6
				c-17.8,21.3-172.8,215.1-230.7,562.8c-1,5.7-4.3,10.7-9.2,13.8c-4.9,3.1-10.9,3.9-16.5,2.2c-2.1-0.6-227.3-60.4-600.3,258
				c-4.1,3.5-9.4,5.2-14.8,4.8c-5.4-0.5-10.4-3.1-13.8-7.2c-0.6-0.8-68.5-80.4-164-80.4c-0.4,0-0.7,0-1.1,0
				c-67,0.4-133,39.5-196,116.3c-5.5,9.2-49.3,88.7,34.4,166.2c48.8,45.2,113.3,90.6,175.7,134.4c66.5,46.7,123.9,87.1,154.4,121.6
				c20.6,23.3,50.7,27,72.2,25.9c58.1-2.8,123.2-42.4,165.8-101.1c83.4-114.7,368.4-270,556.8-277.7c3.6-0.2,7,0.6,10.2,2.3
				c1.2,0.6,28.9,15.1,45.6,24.4c5.3,2.9,9,8.1,10.1,14.1c1.1,6-0.6,12.1-4.5,16.7c-1,1.2-101.3,119.4-195.2,336
				c-4.2,9.8-15.3,14.6-25.3,11C1143.3,3127.7,1079.2,3105.5,1004.7,3105.5z"/>
		</g>
		<g>
			<g>
				<path class="st5" d="M534.9,2619.9c-4.5,3.4-9.5,6.8-14.5,10c-5,3.3-10.2,6.4-15.4,9.6c-5.2,3.1-10.5,6.3-15.9,9.3
					c-5.4,3.1-10.8,6.2-16.5,9.2c1.7-6.3,3.9-12.3,6.3-18.1c2.4-5.9,5.2-11.6,8-17.2c2.9-5.6,5.9-11,9.2-16.3
					c3.2-5.3,6.7-10.3,10.6-15.3L534.9,2619.9z"/>
			</g>
			<g>
				<path class="st5" d="M901.7,2905.7C625.8,2744.8,632.5,2512,633,2502.2l40.3,1.7c-0.3,8.9-5.2,218.8,248.7,366.9L901.7,2905.7z"
					/>
			</g>
			<g>
				<path class="st5" d="M1292,2759.8c-2.1-1.8-3.4-3.1-5-4.6c-1.5-1.4-2.9-2.9-4.3-4.3c-2.8-2.9-5.4-5.9-8-8.8
					c-5.2-5.9-9.9-12.1-14.4-18.4c-9.1-12.5-17.2-25.6-24.4-39.1c-6.9-13.6-13.6-27.3-18.6-41.6c-2.7-7-4.7-14.4-6.8-21.6
					c-1.9-7.3-3.4-14.7-4.7-22.1l25.5,36.4c8.3,12,17.1,23.4,26.2,34.5c9.2,11,18.8,21.5,28.7,31.4c5,5,10.2,9.6,15.3,14.2
					c2.6,2.3,5.2,4.5,7.8,6.6l3.9,3.1c1.2,0.9,2.7,2.1,3.4,2.6L1292,2759.8z"/>
			</g>
			<g>
				<path class="st5" d="M1333.6,2755.5c6.6-8.8,12.9-16.3,19.9-23.8c6.8-7.5,14.1-14.6,21.4-21.6c7.4-6.9,15.1-13.5,22.8-20
					c7.9-6.3,15.9-12.5,24.1-18.4c16.5-11.6,33.6-22.6,51.8-31.3c4.6-2.1,9.2-4.2,13.9-6.2c4.8-1.7,9.6-3.5,14.4-5l7.3-2.3
					c2.5-0.7,5-1.1,7.5-1.7c5-1.1,10-2,15.1-2.7c-14.9,14.4-30.1,26.2-44.6,39c-3.7,3-7.3,6.2-11,9.3c-3.6,3.2-7.4,6-11,9.2
					c-7.2,6.3-14.3,12.6-21.2,19.1c-7.1,6.3-13.8,13.1-20.6,19.7l-10.1,10c-3.3,3.4-6.5,6.9-9.9,10.2c-6.6,6.8-13,13.8-19.4,20.7
					l-18.6,20.6L1333.6,2755.5z"/>
			</g>
			<g>
				<path class="st5" d="M1170.1,3115.9c-3,6.8-6.3,13.8-9.8,20.5c-3.5,6.8-7.2,13.6-11,20.3c-7.6,13.5-15.5,26.9-25.1,40.4
					c-2.5-16.4-1.8-32.5-0.3-48.3c0.8-7.9,1.8-15.7,3.1-23.5c1.3-7.8,2.9-15.4,5.1-23L1170.1,3115.9z"/>
			</g>
			<g>
				<path class="st5" d="M1719.7,3279.9c-189.7-7.7-320-89.8-395.9-157.3c-82.4-73.3-119.6-144.3-121.1-147.3l35.9-18.5l-17.9,9.3
					l17.9-9.3c1.4,2.7,143.8,269.1,482.8,282.8L1719.7,3279.9z"/>
			</g>
			<g>
				<path class="st5" d="M2946.3,2035.7c-41.6,0-119.4-27.3-155.1-134.1c-46-137.6,31.6-220,34.9-223.5l29.1,28
					c-2.6,2.8-63.7,69.1-25.7,182.7c36.8,110.1,117,106.7,120.4,106.4l2.9,40.3C2950.7,2035.6,2948.5,2035.7,2946.3,2035.7z"/>
			</g>
			<g>
				<path class="st5" d="M2484.3,2192.8c-11.4,3-22.1,4.1-33.3,4.6c-11.1,0.5-22.2,0.1-33.3-0.9c-11.1-1-22.2-2.8-33.1-5.6
					c-10.9-2.6-21.8-6.3-32.2-11.5c11-4.1,21.6-6.9,32.2-9.6c10.5-2.8,20.9-5.2,31.3-7.4c10.4-2.2,20.7-4.2,31-5.9
					c10.2-1.6,20.8-3.2,30.6-3.5l0.8,0c11.2-0.4,20.6,8.3,21,19.5C2499.7,2182.1,2493.3,2190.4,2484.3,2192.8z"/>
			</g>
		</g>
	</g>
	<g>
		<g>
			<path class="st3" d="M3172.2,2244.4L3172.2,2244.4c-21.1,2.8-40.5-12.1-43.3-33.2L2945.8,828.5c-2.8-21.1,12.1-40.5,33.2-43.3
				l0,0c21.1-2.8,40.5,12.1,43.3,33.2l183.1,1382.8C3208.1,2222.2,3193.3,2241.6,3172.2,2244.4z"/>
		</g>
		<g class="st6">
			<path class="st5" d="M3205.3,2201.1L3022.3,818.3c-2.8-21.1-22.2-36-43.3-33.2h0c-0.1,0-0.2,0-0.4,0.1l180.6,1364
				c2.8,21-11.9,40.3-32.8,43.2l2.5,18.8c2.8,21.1,22.2,36,43.3,33.2C3193.3,2241.6,3208.1,2222.2,3205.3,2201.1z"/>
		</g>
		<g>
			<path class="st5" d="M3167.1,2264.9c-29,0-54.3-21.5-58.2-51L2925.8,831.1c-2.1-15.6,2.1-31,11.6-43.4
				c9.5-12.5,23.4-20.5,38.9-22.5c32.1-4.3,61.7,18.4,66,50.5l183.1,1382.8c2.1,15.6-2.1,31-11.6,43.4
				c-9.5,12.5-23.4,20.5-38.9,22.5h0C3172.2,2264.8,3169.6,2264.9,3167.1,2264.9z M2984,805c-0.8,0-1.6,0.1-2.4,0.2
				c-4.9,0.6-9.2,3.1-12.2,7c-3,3.9-4.3,8.7-3.6,13.6l183.1,1382.8c1.3,10,10.6,17.1,20.6,15.8l0,0c4.9-0.6,9.2-3.1,12.2-7
				c3-3.9,4.3-8.7,3.6-13.6L3002.2,821C3001,811.8,2993.1,805,2984,805z"/>
		</g>
	</g>
	<polygon class="st5" points="3755.5,1009.6 3795,930.6 3893.5,733.2 3026.2,848 3091.6,1342.5 3959,1227.7 	"/>
	<g class="st4">
		<g>
			<polygon class="st3" points="3767.2,1050.2 3935.6,1230.8 3959,1227.7 3776.3,1031.9 			"/>
		</g>
		<g>
			<polygon class="st3" points="3037.8,888.7 3871,778.4 3893.5,733.2 3026.2,848 3091.6,1342.5 3097.8,1341.7 			"/>
		</g>
	</g>
	<g class="st6">
		<path class="st5" d="M3959,1227.7l-867.4,114.8l-17.2-129.6c299.4,12.7,351.5-166.2,351.5-166.2s63.3,61,229.5-2.2
			c57.4-21.9,103.6-65.8,139.5-114l-39.5,79L3959,1227.7z"/>
	</g>
	<g>
		<path class="st5" d="M3091.7,1362.7c-4.4,0-8.7-1.4-12.3-4.2c-4.2-3.3-7-8.1-7.7-13.4l-65.5-494.4c-1.5-11,6.3-21.2,17.4-22.7
			l867.3-114.8c7.4-1,14.7,2.2,19.1,8.3c4.3,6.1,5,14.1,1.6,20.7l-131.7,263.9l193.9,207.8c5.2,5.5,6.8,13.5,4.2,20.6
			c-2.6,7.1-8.9,12.2-16.4,13.2l-867.3,114.8C3093.4,1362.6,3092.5,1362.7,3091.7,1362.7z M3048.9,865.4l60.2,454.4l808.5-107
			l-176.7-189.4c-5.8-6.2-7.1-15.3-3.3-22.8l121-242.4L3048.9,865.4z"/>
	</g>
	<g>
		<g>
			<path class="st3" d="M3021.7,1764.1c0,0-60.3-54.7,14.8-114.9c75.1-60.3,216-35.2,190,75.1c0,0,48.2,48.2,8.3,105.7
				c0,0,37.1,47.3-1.9,90.8c0,0,36.2,91.8-71.4,98.3c-107.5,6.5-144.6-35.2-119.6-108.5c0,0-29.2-26.9-15.3-70
				C3026.8,1840.6,2996.6,1810.5,3021.7,1764.1z"/>
		</g>
		<g class="st6">
			<path class="st5" d="M3134.3,1927.9c0,0-29.2-26.9-15.3-70c0,0-30.1-30.1-5.1-76.5c0,0-60.3-54.7,14.8-114.9
				c19.9-16,44.5-25.9,69.4-29.9c-41.4-29.4-114.5-25.2-161.7,12.6c-75.1,60.3-14.8,114.9-14.8,114.9c-25,46.3,5.1,76.5,5.1,76.5
				c-13.9,43.1,15.3,70,15.3,70c-24.4,71.4,10.3,112.8,111.8,108.8C3126.1,2001.2,3120,1969.7,3134.3,1927.9z"/>
		</g>
		<g>
			<path class="st5" d="M3140.9,2039.8c-53.5,0-90.7-13.2-110.7-39.5c-16.7-21.9-20.2-50.6-10.7-85.3c-9.3-13-21.6-37.4-14.8-70.1
				c-9-13.9-20.9-41.4-6.9-77.5c-8.8-11.7-20-31.7-19.2-56.6c0.9-28,16.1-54.1,45.2-77.5c51.2-41.1,130.8-48.4,181.2-16.6
				c34.6,21.8,50,58.5,43.2,101.6c17.7,22.9,34.9,65.6,10.4,111.2c12.4,22.9,21.2,60.5-3.3,95.4c4.1,16.5,8.2,47.5-8.6,73.8
				c-15.5,24.3-43.7,37.9-83.9,40.3C3155.3,2039.6,3147.9,2039.8,3140.9,2039.8z M3130.6,1637.3c-28.6,0-59,9.5-81.5,27.6
				c-19.4,15.6-29.5,31.3-30.1,46.9c-0.8,21.1,16.2,37.3,16.3,37.4c6.7,6.3,8.4,16.4,4.1,24.4c-17.7,32.7,1.4,52.4,1.6,52.6
				c5.4,5.4,7.3,13.3,4.9,20.5c-9.8,30.5,9.6,48.8,9.8,48.9c5.9,5.4,8,13.8,5.4,21.4c-9,26.2-8.6,46,1.2,58.8
				c13.6,17.8,48.4,26,98.1,23c26.5-1.6,44.1-8.9,52.3-21.7c12.3-19.3,1.6-48.7,1.5-49c-2.8-7.1-1.4-15.2,3.7-20.8
				c26.5-29.6,3.6-61.5,0.9-65c-5.3-7-5.6-16.7-0.6-23.8c29-41.8-2.4-76.2-6.1-80c-4.8-4.9-6.9-12.1-5.3-18.8
				c7.3-31.1-0.5-54.2-23.4-68.6C3168.8,1641.7,3150.2,1637.3,3130.6,1637.3z"/>
		</g>
		<g>
			<path class="st5" d="M3089.7,1793.2c-22.1,0-46.4-2.8-73-9.5l10-39.1c118.5,30.2,182.9-31.9,185.6-34.6l28.7,28.4
				C3238.2,1741.1,3185.5,1793.2,3089.7,1793.2z"/>
		</g>
		<g>
			<path class="st5" d="M3119.8,1888.2c-31.8,0-67.2-7.9-103.6-30.5l21.3-34.3c94.1,58.4,181.5-6.7,185.2-9.5l24.6,32
				C3244.1,1848.3,3191.2,1888.2,3119.8,1888.2z"/>
		</g>
		<g>
			<path class="st5" d="M3146.4,1968.8c-33.6,0-73.5-10.2-116.4-42l24-32.4c92.8,68.8,163.1,13.2,166.1,10.8l25.8,31.1
				C3245.3,1936.8,3205.9,1968.8,3146.4,1968.8z"/>
		</g>
	</g>
	<g>
		<g>
			<path class="st3" d="M1286.3,2239.6c0,0-40-12.8-83.3-23.6c-34-8.5-54.6-46.8-43.2-82.3c0.2-0.5,0.3-1.1,0.5-1.6
				c9.8-28.6,37.8-45,65.7-39.8c25.4,4.7,65.6,13.4,100.6,27.2C1326.7,2119.5,1387.3,2213.4,1286.3,2239.6z"/>
		</g>
		<g class="st6">
			<path class="st5" d="M1292.1,2181.9c0,0-40-12.8-83.3-23.6c-20-5-35.2-20.3-42.2-39.2c-2.5,4-4.6,8.3-6.2,13
				c-0.2,0.5-0.4,1.1-0.5,1.6c-11.4,35.5,9.2,73.8,43.2,82.3c43.3,10.8,83.3,23.6,83.3,23.6c62-16.1,63.1-57.7,54.7-87.5
				C1332.5,2164.6,1317.3,2175.4,1292.1,2181.9z"/>
		</g>
		<g>
			<path class="st5" d="M1286.3,2259.8c-2.1,0-4.1-0.3-6.1-1c-0.4-0.1-39.9-12.7-82-23.2c-21.2-5.3-39.7-19.8-50.8-39.6
				c-11.6-20.9-14-45.8-6.7-68.5l0.6-1.9c13-37.9,50.2-60.2,88.5-53.2c27.8,5.1,68.5,14.2,104.3,28.2c3.9,1.5,7.3,4.3,9.6,7.9
				c3.5,5.4,33.3,53.7,15.9,98.1c-10.1,25.7-33,43.4-68.2,52.5C1289.7,2259.6,1288,2259.8,1286.3,2259.8z M1215.9,2111.5
				c-16,0-30.7,10.6-36.4,27.1l-0.4,1.2c-3.9,12-2.6,25.3,3.6,36.5c5.7,10.3,14.7,17.4,25.3,20.1c34.2,8.5,66,18.2,78.7,22.1
				c18.8-5.8,30.7-14.7,35.4-26.6c7.2-18.4-2.5-43.5-9.1-56.1c-31.2-11.5-66-19.1-90.4-23.6
				C1220.2,2111.7,1218,2111.5,1215.9,2111.5z"/>
		</g>
	</g>
	<g>
		<g>
			<path class="st3" d="M2054,2292.8c-82.2,171.8-172.5,360.2-172.5,360.2c-202-116.8-609.3-218.1-609.3-218.1l-19.8-71.7
				c35.9-186.6,129.5-369.2,129.5-369.2c207.2,10,403.3,85.5,524.6,142.7c77.5,36.6,124.5,65.8,124.5,65.8L2054,2292.8z"/>
		</g>
		<g class="st6">
			<path class="st5" d="M2054,2292.8c-82.2,171.8-172.5,360.2-172.5,360.2c-202-116.8-609.3-218.1-609.3-218.1l-19.8-71.7
				c0,0,608.1,180.2,654.1-226.5c77.5,36.6,124.5,65.8,124.5,65.8L2054,2292.8z"/>
		</g>
		<g>
			<path class="st5" d="M1881.5,2673.2c-3.5,0-7-0.9-10.1-2.7c-197.3-114.1-600-215-604.1-216c-7.1-1.8-12.6-7.2-14.6-14.2
				l-19.8-71.7c-0.8-3-0.9-6.1-0.4-9.2c36-187.3,127.4-367.1,131.3-374.6c3.6-7.1,11.1-11.3,18.9-11
				c340.9,16.4,646,203.6,658.8,211.6c4.4,2.8,7.6,7.1,8.9,12.2l22.9,90.2c1.2,4.6,0.7,9.4-1.4,13.7
				c-82.2,171.8-172.4,360.3-172.4,360.3c-2.4,5.1-6.9,8.9-12.2,10.6C1885.6,2672.9,1883.6,2673.2,1881.5,2673.2z M1288.6,2418.2
				c66.6,17.1,394.6,104,584,206.7c24.7-51.6,94.5-197.4,160-334.3l-19-75.1c-46.5-27.4-321.7-182.2-619.4-200.7
				c-20.6,42.5-90.7,194.1-120.9,347.5L1288.6,2418.2z"/>
		</g>
		<g>
			<g>
				<path class="st5" d="M1691.4,2236.3l-68.1-24.7c-5.7-2.1-8.7-8.4-6.6-14.2l24.7-68.1c2.1-5.7,8.4-8.7,14.2-6.6l68.1,24.7
					c5.7,2.1,8.7,8.4,6.6,14.2l-24.7,68.1C1703.5,2235.4,1697.1,2238.4,1691.4,2236.3z"/>
			</g>
			<g>
				<path class="st5" d="M1828.9,2286.2l-68.1-24.7c-5.7-2.1-8.7-8.4-6.6-14.2l24.7-68.1c2.1-5.7,8.4-8.7,14.2-6.6l68.1,24.7
					c5.7,2.1,8.7,8.4,6.6,14.2l-24.7,68.1C1841,2285.3,1834.6,2288.3,1828.9,2286.2z"/>
			</g>
			<g>
				<path class="st5" d="M1641.3,2368.9l-68.1-24.7c-5.7-2.1-8.7-8.4-6.6-14.2l24.7-68.1c2.1-5.7,8.4-8.7,14.2-6.6l68.1,24.7
					c5.7,2.1,8.7,8.4,6.6,14.2l-24.7,68.1C1653.4,2368,1647.1,2371,1641.3,2368.9z"/>
			</g>
			<g>
				<path class="st5" d="M1778.8,2418.9l-68.1-24.7c-5.7-2.1-8.7-8.4-6.6-14.2l24.7-68.1c2.1-5.7,8.4-8.7,14.2-6.6l68.1,24.7
					c5.7,2.1,8.7,8.4,6.6,14.2l-24.7,68.1C1790.9,2418,1784.6,2421,1778.8,2418.9z"/>
			</g>
			<g>
				<path class="st5" d="M1854.4,2587.3c-3.4,0-6.8-0.9-9.9-2.6c-214.8-120.7-592.4-201-596.2-201.8l8.3-39.5
					c15.3,3.2,366.7,78,588.5,195.7c26-55.3,102.6-217.7,167.9-345.8l36,18.3c-79.2,155.4-175.5,361.9-176.4,363.9
					c-2.4,5.1-6.8,9-12.1,10.7C1858.5,2587,1856.4,2587.3,1854.4,2587.3z"/>
			</g>
			<g>
				
					<rect x="1847.8" y="2569.9" transform="matrix(0.948 -0.3184 0.3184 0.948 -734.658 730.7724)" class="st5" width="40.4" height="85.4"/>
			</g>
			<g>
				<path class="st5" d="M1434.5,2409.6l-38.3-12.7l60.5-183.5l-46-10.7c-5.7-1.3-10.5-5-13.2-10.1c-2.7-5.1-3.1-11.2-1.1-16.6
					l67.4-179.3l37.8,14.2l-59.3,157.7l45,10.5c5.5,1.3,10.2,4.8,13,9.8c2.8,4.9,3.3,10.8,1.6,16.2L1434.5,2409.6z"/>
			</g>
		</g>
	</g>
	<g>
		<g>
			<path class="st3" d="M1971.3,2508c33.2,17.9,129.3,75,230.9,185.3c28,30.4,78,25.9,99-9.7c0.4-0.7,0.8-1.4,1.3-2.2
				c13.3-23.1,10.2-52.2-7.4-72.2c-44.1-50-143.3-152.5-270.8-221.1c-6.7-3.6-14.5-4.3-21.8-2.1c-20,6.1-55,27.3-45.8,100.2
				C1957.8,2495.5,1963.2,2503.6,1971.3,2508z"/>
		</g>
		<g class="st6">
			<path class="st5" d="M2213.7,2624.1c-101.6-110.4-197.7-167.5-230.9-185.3c-8.1-4.4-13.5-12.5-14.7-21.6c-0.2-1.6-0.3-3-0.4-4.5
				c-9.6,15.2-15.6,38.3-11.1,73.7c1.2,9.2,6.5,17.3,14.7,21.6c33.2,17.9,129.3,75,230.9,185.3c28,30.4,78,25.9,99-9.7
				c0.4-0.7,0.8-1.4,1.3-2.2c10.2-17.7,10.7-38.9,2.5-56.8C2281.2,2650.5,2238.7,2651.2,2213.7,2624.1z"/>
		</g>
		<g>
			<path class="st5" d="M2248,2733.7c-23.1,0-44.9-9.5-60.7-26.7c-98.4-106.9-190.5-162.4-225.6-181.2l0,0
				c-13.7-7.4-23.1-21.2-25.1-36.9c-11.3-90.1,38.1-115.4,59.9-122c12.4-3.8,26-2.5,37.3,3.6c128.6,69.2,228.3,171,276.4,225.5
				c23.4,26.6,27.3,65,9.8,95.6l-1.4,2.4c-13.2,22.2-35.6,36.6-61.5,39.3C2254,2733.5,2251,2733.7,2248,2733.7z M1980.9,2490.2
				c36.8,19.8,133.6,78,236.1,189.4c9.2,10,22.2,14.9,35.8,13.4c13.1-1.4,24.4-8.6,31-19.7l1.1-1.9c9-15.7,7-35.3-5-48.8
				c-46.2-52.5-142.2-150.4-265.2-216.7c-1.9-1-4.2-1.2-6.3-0.6c-26.2,8-37.1,35.1-31.7,78.4C1977,2486.6,1978.6,2489,1980.9,2490.2
				L1980.9,2490.2z"/>
		</g>
	</g>
	
		<linearGradient id="SVGID_1_" gradientUnits="userSpaceOnUse" x1="3200.1401" y1="1181.3894" x2="3621.5835" y2="906.9317" gradientTransform="matrix(0.9879 -0.1549 0.1549 0.9879 -112.7875 519.7517)">
		<stop  offset="0.1792" style="stop-color:#6CFFFF"/>
		<stop  offset="0.4594" style="stop-color:#7BABFF"/>
		<stop  offset="0.7644" style="stop-color:#B180FF"/>
	</linearGradient>
	<path class="st7" d="M3204.9,1092.8 M3493.8,1136.4c-15.8,2.9-40.1,7-70.1,11.1c-42.5,5.8-75.2,8.5-88.9,9.5
		c-12.9,1-24.3,1.7-34.5,2.2c26.4,41.2,70.4,70.5,122.8,76.2c83.1,9.1,158.7-44.5,179.6-122.8c-2.3,0.6-4.5,1.1-6.3,1.6
		C3566.7,1121.6,3532.6,1129.3,3493.8,1136.4z M3716.2,1027.5c5,31.7-116,76.9-270.1,101.1s-283.1,18.1-288.1-13.6
		c-3.1-19.6,42-44.4,113.3-66.1c0.1-1.6,0.3-3.2,0.5-4.8c-11.9-3.8-19.6-9.4-23.5-13.4c-4.9-5-11.9-13.4-19.6-29.9
		c-5.6-12.1-6.2-16.9-16.9-49.1c-3.5-10.5-5.3-15.8-5.7-16.8c-1.8-4.1-4.4-7.1-3.2-9.2c1.2-2.1,4.8-2,7.4-2
		c9.9,0.1,19.7-0.4,29.6,0.2c9.1,0.6,7.1-0.2,18.4,0.3c11.3,0.5,26.1,1.2,40.7,6.2c10.3,3.5,21.3,7.2,28.7,14.7
		c33.6-30.3,79.2-46.9,127.8-42.3c19.5,1.9,37.9,7,54.7,14.8c5-9,14.2-15.6,22.9-21.9c12.5-8.9,26.5-13.9,37.1-17.7
		c10.7-3.8,9-2.4,17.5-5.7c9.2-3.5,18.9-5.8,28.3-8.8c2.4-0.8,5.9-1.9,7.6-0.2c1.8,1.7,0.1,5.3-0.4,9.8c-0.1,1.1-0.3,6.6-0.6,17.7
		c-0.8,27.4-0.3,35.7-1.1,44.9c-0.2,1.8-0.4,4.1-0.8,6.9c-0.7,4.7-1.6,11.2-4,19.1c-2.4,7.9-5.2,13.5-6.1,15.2
		c-2.4,4.7-4.1,8-7.4,11.5c-4,4.3-8.3,6.8-11.2,8.1c0.1,0.5,0.4,1.4,1,2.5C3664.8,998.6,3713.2,1008.4,3716.2,1027.5z M3558.7,952.1
		c10.8,11,20.1,23.5,27.5,37c2.6-0.6,7.1-2.5,12.2-8.3c3.2-3.7,7.1-9.5,11.3-24.5c1.8-6.5,4-14.7,5-26.3c1-11.8-0.2-16.8,0.5-35.7
		c0.2-6.6,0.5-10.3,1.3-14.6c1-5.4,2.2-9.3,1.8-9.4c-0.5-0.2-2.6,4.7-7,12.3c-5.4,9.3-11.6,15-17.5,20c-13,11-16.5,9.5-23.5,17
		c-3.3,3.6-10.2,11.4-11.8,23.2C3558.1,946.1,3558.2,949.1,3558.7,952.1z M3275.8,1035.2c3.1-14.9,8.1-29,14.8-42
		c-0.3-3.5-1.1-6.8-2.7-10.3c-4.9-10.8-13.8-16.3-18-18.8c-8.8-5.1-11.8-2.7-27.4-9.5c-7.1-3.1-14.7-6.7-22.5-14
		c-6.4-6-9.8-10.1-10.2-9.7c-0.4,0.3,1.9,3.6,4.4,8.5c2,3.9,3.3,7.3,5.5,13.6c6.1,17.9,6.5,23,10.8,34c4.3,10.7,8.8,18,12.4,23.7
		c8.3,13.2,13.8,17.6,17.9,20.2C3268.2,1035.5,3273.4,1035.6,3275.8,1035.2z M3282.2,1126.1c-2.1-5.9-4-12-5.5-18.2
		c-0.1-0.5-0.7-3-0.8-3.7c-0.2-1.1-0.7-3.5-0.7-3.7c-2.4-12.5-3.3-25.1-2.8-37.5c-0.1-0.1,0-2.3-0.3-4.3c-36.6,14.7-58,30.2-56,43.3
		C3218.2,1115.1,3243.2,1123.3,3282.2,1126.1z M3656.8,1032.9c-2-12.5-25-20.5-61.2-23.7c2.6,6.8,5.2,14.6,7.1,23.4
		c3.6,15.8,4.3,29.9,4,41.2C3639.6,1059.9,3658.7,1045.3,3656.8,1032.9z"/>
</g>
<g id="Слой_3">
	<path class="st8" d="M2396.7,1712.3c61.7-28.2,122.3-59.1,178.7-96.7c46.9-31.4,98.8-38.9,154.5-43
		c-45.6-15.3-89.2-19.3-136.1-13.9c11.8-22.9,46.8-16.2,67.5-26.9c87.2-51.5,185.2-40.2,274.6-2.9
		c-42.5-48.1-92.8-111.9-163.9-106.2c-5.6,0.2-14.5,2.3-16.4-4.7c0.1-3.6,3.8-7.2,7.8-7.3c36.2-6,63.7-11.9,82.8-16.4
		c3.6-0.8,19-4.5,39.5-5.5c15.7-0.8,26.3,0.3,34.1,2.4c-123.6-85.1-124.9-276-246.3-367.1c-56.2-45.8-76.2-115.9-106.3-179.1
		c-23.3-54-22-119.7,1.1-173.4c31.7-74.5,113.4-126.6,115.9-212.2c-118.9,78.5-253.2,150.5-335.6,272.7c6.5,7.7,16,12.8,18.4,24.3
		c-29.4-5.5-54.8-32.7-83-45.4c-72.9-37.7-157.9-34.3-237.4-44.8c5.9-16.8,20.1-26.4,34.1-39.1c-36.8,7.8-65.5,27.2-96.2,43
		c9.9-52.9,62.7-86.5,106.7-111.6c-68.5,18.6-128.2,59.7-185.7,100c-39.2,17.9-82.7,26.4-120.8,48c-42,21.5-87,38.6-122,71.3
		c-3.7,2.4-6.5,8.6-11.7,4.8c-8.5-9.1,8-20.8,12.9-29.4c-42.7-66.1-114.7-102.2-186.6-127.8c-63.7-22.1-119.9-62.5-185.3-79.5
		c20.4,87.6,96,148.2,159.2,206.6c48.1,43.8,55.2,111.2,48.4,172.6c-23.7,83.3-110.2,129.4-160.6,196
		c-82.6,100.6-163.6,205.2-220.5,322.5c46.1-35.8,101.3-56,160.2-49.8c-60.7,69.9-129.4,131.1-187.1,203.9
		c84.3-40.9,175.7-36.3,266.8-40.1c-30.6,27.3-59.9,53.4-89.3,79.5c0.3,0.7,0.7,1.4,1,2.1c120.2-45.4,169.1-13.6,272.2,45.9
		c101.5,53.7,209.4,88.3,322.9,105.8C2043.9,1811.2,2232.5,1785.4,2396.7,1712.3z"/>
	<path class="st8" d="M1350.3,1081.2c87.6-80.7,190-184.4,96.7-303.4c-12.4-15.3-26.7-28.8-42.2-40.7
		c-59.3-46.8-107.4-111.2-129-183.5c-18.7,127.7-35.5,262.7,4.2,388.3C1300.1,988.9,1305.7,1050,1350.3,1081.2z"/>
	<path class="st8" d="M2703.6,1022.1c71.9-134.5,83.7-419.4-1.4-548.7c-0.8,0.2-1.7,0.4-2.5,0.7c-7.8,82.8-83.3,135.2-110.6,209.9
		C2553.5,799.1,2603.3,953.6,2703.6,1022.1z"/>
	<path class="st3" d="M1233,1337.6c-13.9-19.9,63.9-89,175.4-213.5c84.7-94.5,84.7-100.1,120.3-129.7c4.8-4,112.5-90.9,247.9-73.2
		c29.3,3.8,95.2,12.5,127.3,60c7.8,11.5,5.4,13.2,27.2,64.4c20.9,49,40.1,93.6,50,91.3c4.1-1,3.4-9.5,8.8-36.4
		c4.8-23.8,13.3-56.1,17-55.6c3.5,0.4-1,28.8,6.2,70c3.7,20.9,11.4,51.1,17,50.6c10.1-0.9,5.7-103.9,17.2-105
		c9.4-0.9,18.4,67.5,32.7,67.2c10-0.3,11.7-33.6,33.2-80.9c0,0,15.7-34.6,37.4-62.8c2.7-3.5,50.3-64.1,124.5-83.2
		c113-29.1,219.9,55.6,243.3,74.1c52.4,41.6,91.9,74.1,125.6,110.3c22.5,24.1,25.4,32.9,41.4,56.7c9.3,13.9,15.5,21.9,21.7,30.2
		c28.6,38.4,35.6,60.2,64.3,101.5c34.7,50,57,65.3,50.8,76.6c-5.9,10.8-28,0.8-67.9,12.5c-11.8,3.4-50.4,14.7-52,32.2
		c-2.3,24.6,70.6,41.9,67.8,58.3c-2.9,16.9-80.6-0.8-150.5,35.6c-45.3,23.6-55.2,53.1-90.3,94.2c-80.9,94.8-191,128.4-292.9,159.5
		c-7.1,2.2-114.2,34.2-223.9,35.7c-82.9,1.1-145.1-11.1-179.6-18.1c-108.5-22-185-58-233.7-81.3c-93-44.5-139.6-66.8-168.1-105.4
		c-19-25.8-29.3-51.2-60.4-63.7c-46.7-18.6-91.7,11.6-101.9-4.3c-7.8-12.2,17.2-32,37.9-87c11.4-30.3,22.1-58.8,10.1-73.7
		C1298.2,1321.9,1243.8,1353.1,1233,1337.6z"/>
	<path class="st9" d="M2688.7,439.5c-2.7,0.9,2.9,14.6,1.3,37c-2.7,37.2-22.6,62.9-40.6,86.8c-53.2,70.8-79.9,106.1-87,128
		c-12.7,38.5-6.2,70.2,4.8,124.4c17.4,85.4,55.6,136.1,83.8,172.6c33.3,43,47.7,45.8,55.6,43.6c11.5-3.1,16.1-18.5,24.9-47.4
		c31.4-103,30.3-96.7,31.2-101.5c24.7-125.4,8.5-227.2,8.5-227.2C2751.9,534.4,2695.9,437,2688.7,439.5z"/>
	<path class="st9" d="M1262.5,536.9c-8,2.2-2.1,38.3-0.9,81.6c2.4,89-18.2,98.7-19.5,174.3c-1.3,75.5,18.1,131,35.8,181.8
		c21,60.3,40.2,115.2,70.5,117.1c6.6,0.4,18-1.4,86-89.3c32.2-41.5,48.3-62.6,53.2-77.8c23.4-71.9-19-139.9-23.1-146.2
		c-18.5-28.7-23.2-17.4-74.6-70.4c-23.9-24.7-56.4-58.3-87.3-107.9C1278.3,561,1269.4,535,1262.5,536.9z"/>
	<path class="st3" d="M2172,1294c-10.5-38.1,30.1-78.6,51.4-99.8c19.9-19.9,60.5-60.4,126.7-66.4c70.8-6.5,118.1,31.4,161.7,66.4
		c5.8,4.7,12.9,10.9,15.9,20.9c5,16.8-4.5,33.6-39.6,80.3c-29.3,39-43.9,58.5-52.7,64.6c-39.1,26.8-82.4,24.5-97.8,23.7
		c-39.8-2.1-67-17.1-98.6-34.5C2198.3,1326.8,2178,1315.7,2172,1294z"/>
	<path class="st3" d="M1850.7,1306.4c7.9-38.7-35.5-76.3-58.2-96c-21.3-18.4-64.6-56-131-57.4c-71.1-1.5-115.6,39.6-156.7,77.6
		c-5.5,5.1-12.1,11.8-14.4,22c-3.8,17.1,6.9,33.2,45.1,77.4c31.9,36.9,47.9,55.3,57.1,60.7c40.9,24,83.9,18.7,99.2,16.8
		c39.6-4.9,65.7-21.7,95.9-41.3C1826.7,1341.1,1846.2,1328.5,1850.7,1306.4z"/>
	<path class="st10" d="M2279.5,1206.1c-7.4,7.1-26.7,25.7-28.4,55.4c-1.9,32.3,18.3,54.3,22.3,58.7c31.6,34.4,79.6,28.3,87,27.3
		c9.5-1.2,52.5-6.7,74.3-44.3c3.9-6.8,17.9-33,9.2-63.6c-13.8-48.5-70.9-59.8-75.5-60.6C2334.5,1172.8,2301.3,1185.1,2279.5,1206.1z
		"/>
	<path class="st10" d="M1606.5,1232.1c-7.4,7.1-26.7,25.7-28.4,55.4c-1.9,32.3,18.3,54.3,22.3,58.7c31.6,34.4,79.6,28.3,87,27.3
		c9.5-1.2,52.5-6.7,74.3-44.3c3.9-6.8,17.9-33,9.2-63.6c-13.8-48.5-70.9-59.8-75.5-60.6C1661.5,1198.8,1628.3,1211.1,1606.5,1232.1z
		"/>
	<path class="st11" d="M2036.1,1516.9c-7.8-0.8-6.4-16.4-21-33.7c-13.8-16.3-28.9-18.9-27.7-22.8c1.7-6.1,35.2,7.5,79.6-1.5
		c9.9-2,19.8-5.1,21.4-2c2,3.7-10.9,11.2-26.8,30C2045.5,1506.2,2042.8,1517.6,2036.1,1516.9z"/>
	<path class="st12" d="M2280.3,975.9c-26.1,6.8-55.2,16.6-54.9,27.6c0.1,4.5,5,8.1,12,11.8c28.5,15,53.1,10.4,99,10.4
		c45.6,0,64.6,4.5,71.8-7.6c4.2-7.1,2.4-16.7-0.8-22.7c-8.4-16-32.1-18-65.2-20.5C2327.1,973.8,2305.9,973.3,2280.3,975.9z"/>
	<path class="st12" d="M1726.2,995.3c26.5,4.9,56.2,12.7,56.7,23.7c0.2,4.5-4.4,8.5-11.1,12.6c-27.4,17-52.2,14.1-98.1,17.3
		c-45.4,3.2-64.2,9-72.2-2.5c-4.7-6.8-3.5-16.5-0.8-22.7c7.3-16.5,30.7-20.2,63.6-25C1679.4,996.5,1700.5,994.5,1726.2,995.3z"/>
	<path class="st12" d="M2360.8,1121.8c24.7-1,48.2,2.7,71.1,10.6c23.1,7.9,44.5,19.3,64.6,33.3c13.7,9.6,25,21.6,35,34.8
		c2.9,3.8,4.5,8.2,3.3,13.3c-8.8,36.7-21.9,71.5-43.6,102.8c-28.3,40.8-67.7,63.6-115.9,73.1c-31.9,6.3-62.5,1.8-92.2-10
		c-37.7-15-71.7-36-102.2-62.6c-6-5.3-11.2-11.6-16.2-18c-1.8-2.3-2.3-6.1-2.2-9.2c0.1-3.6,1.3-7.3,2.6-10.8
		c23.5-65.8,65.8-114.7,130.3-143.2C2316.3,1126.7,2338.5,1122.5,2360.8,1121.8z M2176.2,1293c8.3,7,15.6,13.5,23.3,19.5
		c27.3,21.3,56.4,39.4,88.6,52.4c28.6,11.6,57.9,15.1,88.3,8.5c49.8-10.7,88.7-36.3,113.9-81.5c12.5-22.5,22.1-46.2,30.5-70.5
		c1.5-4.3,1.3-7.9-1.8-11.2c-7.1-7.2-13.6-15.1-21.6-21.2c-22.1-16.9-46.1-30.5-72.2-40.3c-32.9-12.3-66.5-14-100.5-5
		c-45.5,12.1-81,39.1-109.6,75.7C2197.8,1241.4,2185.2,1265.9,2176.2,1293z"/>
	<path class="st12" d="M1059.7,1646.4c79.7-43.1,166.3-76.2,258.1-74.8c-34.2,29.5-70.5,55.5-89.3,98.8c63.2-18.4,132.1-39,197-16.2
		c98,50.2,215.3,113,300,134s180.4,36.7,278.8,35.9c104.7-0.9,191.3-16.8,281-42.5c89.7-25.8,199.6-89.8,293.7-147.3
		c62.6-37.7,188.1-64,252-23.1c0.3-0.7,0.6-1.4,1-2.1c-35.4-36.9-80.8-55.2-131-67.8c82.6-31.6,173.7-19.3,255,9l1.7-2.1
		c-28.8-56.1-70.2-105.1-129-133.5c12.4-4.5,28.1-8.8,46.6-11.1c29-3.6,53.5-0.7,70.6,2.8c-8.3-11.8-17-23.8-26.2-36
		c-12.1-16-24.1-31.1-36-45.4c-13.5-24.7-27-50.5-40.3-77.5c-15.2-30.8-29.2-60.9-41.9-90c-14.1-24.2-28.7-48.7-43.9-73.4
		c-11.4-18.6-22.9-36.9-34.3-54.8c75.3-164.9,85.1-405.9-5.4-566.1c-8.5-7.8-23.5-43.5-36.5-28.8c-115.2,95.4-283,141.4-348.4,287.6
		c-75.7-50.9-162.1-73.5-252.8-72.7c28.6-24.9,63.6-40,93.3-63.1c-45.9,13.9-92.9,22-138.2,38.2c-0.5-0.7-1-1.4-1.5-2.1
		c44.7-44.4,104.7-64.8,158-93.2c-112.6,8.8-226.8,43.4-313,118.2c-76.6,14.7-146.2,50.8-208.1,97.9c-58.3-94.1-165-129-258.6-176.7
		c-43.7-28.7-95.5-38.5-142.8-57.9c-6.4-4.3-11.7-3.2-14.5,4c-7,78.7-13.5,157.9-25.1,236.4c-8.9,123.3,21,251.6,105.5,344.7
		c-90.3,100.6-176.2,212-230.3,337.4c-1.3,16.3-33.4,48.8-25.5,55.7c15.2,6.3,42.1-29.2,57.1-37c27.5-22,60.8-31.9,95-38.2
		C1158.5,1478,1095.8,1555.8,1059.7,1646.4z M2699.7,474c0.8-0.2,1.7-0.4,2.5-0.7c85.1,129.4,73.3,414.3,1.4,548.7
		c-100.4-68.5-150.1-222.9-114.5-338.1C2616.4,609.2,2692,556.8,2699.7,474z M1280,941.9c-39.7-125.6-22.9-260.6-4.2-388.3
		c21.7,72.3,69.7,136.7,129,183.5c15.5,11.9,29.8,25.4,42.2,40.7c93.3,119-9.1,222.7-96.7,303.4
		C1305.7,1050,1300.1,988.9,1280,941.9z M1118.8,1443.5c56.9-117.3,137.9-221.9,220.5-322.5c50.4-66.7,136.9-112.8,160.6-196
		c6.8-61.3-0.3-128.7-48.4-172.6c-63.3-58.4-138.9-119.1-159.2-206.6c65.4,17,121.6,57.4,185.3,79.5c71.9,25.5,144,61.6,186.6,127.8
		c-4.9,8.6-21.4,20.3-12.9,29.4c5.2,3.8,8.1-2.4,11.7-4.8c35-32.7,80-49.8,122-71.3c38-21.6,81.6-30.1,120.8-48
		c57.5-40.3,117.2-81.4,185.7-100c-43.9,25.1-96.7,58.7-106.7,111.6c30.7-15.7,59.5-35.1,96.2-43c-14.1,12.7-28.2,22.3-34.1,39.1
		c79.5,10.5,164.5,7.1,237.4,44.8c28.1,12.7,53.5,40,83,45.4c-2.4-11.4-12-16.6-18.4-24.3c82.3-122.2,216.7-194.2,335.6-272.7
		c-2.5,85.6-84.2,137.7-115.9,212.2c-23.2,53.7-24.4,119.3-1.1,173.4c30.1,63.2,50.1,133.2,106.3,179.1
		c121.3,91.1,122.7,282,246.3,367.1c-7.8-2.1-18.4-3.2-34.1-2.4c-20.5,1.1-35.9,4.7-39.5,5.5c-19.1,4.5-46.6,10.4-82.8,16.4
		c-3.9,0.1-7.7,3.7-7.8,7.3c1.9,7.1,10.8,4.9,16.4,4.7c71.1-5.7,121.4,58.1,163.9,106.2c-89.4-37.3-187.4-48.6-274.6,2.9
		c-20.7,10.7-55.7,4-67.5,26.9c46.8-5.4,90.5-1.4,136.1,13.9c-55.8,4.1-107.6,11.7-154.5,43c-56.5,37.7-117,68.6-178.7,96.7
		c-164.2,73.1-352.7,98.9-531.1,78.4c-113.5-17.5-221.3-52.1-322.9-105.8c-103.1-59.5-152-91.3-272.2-45.9c-0.3-0.7-0.7-1.4-1-2.1
		c29.3-26.1,58.6-52.2,89.3-79.5c-91.1,3.8-182.5-0.8-266.8,40.1c57.7-72.7,126.4-133.9,187.1-203.9
		C1220,1387.5,1164.9,1407.7,1118.8,1443.5z"/>
	<path d="M2349.6,1034.1c-35.6-1.8-71-3.6-106-9.1c-7.9-1.2-16-3.1-23.4-6.2c-14.3-6-15.8-17.7-3.6-27.3
		c14.6-11.6,31.9-17.4,49.8-21.6c26.6-6.2,53.8-7.2,80.5-2.7c17.7,3,34.9,9.8,51.9,16c6.7,2.5,13,7.3,18.2,12.4
		c9.2,9,7.8,20.7-3.2,27.3c-5.7,3.4-12.3,5.9-18.8,6.8C2379.9,1031.8,2364.8,1032.7,2349.6,1034.1z M2408.2,1008.4
		c-4.2-2.8-6.9-5.4-10.2-6.8c-9.6-4.1-19.1-8.8-29.2-11.2c-16.4-3.9-33-6.6-49.7-9c-30.1-4.3-58.3,2.7-85.1,16.2
		c-3.1,1.6-5.7,3.9-8.6,6c0.2,0.7,0.4,1.5,0.5,2.2c6.8,1.6,13.5,4.1,20.4,4.8c26.9,2.8,53.7,5.9,80.7,7.1
		c20.5,0.9,41.1-0.8,61.7-1.7C2395.1,1015.6,2401.3,1014,2408.2,1008.4z"/>
	<path class="st13" d="M2340.6,1168.5c29.2-1.4,53.4,8.2,75,24.1c8.8,6.5,16.5,15,23.4,23.6c18.6,23.4,19.4,63.6,1.8,90.6
		c-28.6,44.1-98.7,72.6-157.1,33.7c-27.7-18.4-43.3-44.8-40-78.9C2249.2,1204.1,2295.6,1168.5,2340.6,1168.5z M2437.8,1256.6
		c-0.4-15.7-7.5-29.7-20.6-40.8c-18.2-15.3-38.9-25.8-62.5-28.9c-17.9-2.3-35.6,0.9-52.6,7.2c-2.5,0.9-4.9,2.5-6.8,4.3
		c-6.1,5.9-12.6,11.4-17.6,18.1c-13.3,17.5-21.1,37.5-18.1,59.5c4.1,30.1,22.4,50.2,50.3,60.8c39.1,14.7,73.6,4.5,104.2-21.9
		C2431.3,1300,2438.6,1280.7,2437.8,1256.6z"/>
	<path class="st12" d="M1719.1,1160.3c66.4,23.9,111.9,69.7,140,133.7c1.5,3.4,2.9,7,3.3,10.6c0.3,3.1,0.1,6.9-1.5,9.4
		c-4.5,6.7-9.2,13.4-14.9,19c-28.6,28.7-61.1,52.1-97.6,69.6c-28.9,13.9-59,20.5-91.3,16.4c-48.7-6.1-89.6-26.1-120.7-64.8
		c-23.8-29.7-39.4-63.5-50.7-99.5c-1.6-5-0.3-9.5,2.3-13.5c9.1-13.9,19.4-26.7,32.5-37.2c19-15.3,39.6-28.2,62.1-37.7
		c22.3-9.4,45.5-14.8,70.2-15.5C1675.1,1150,1697.6,1152.6,1719.1,1160.3z M1805.2,1238c-31.1-34.5-68.4-59-114.6-67.8
		c-34.5-6.6-67.9-2.6-99.9,12c-25.3,11.6-48.4,26.9-69.2,45.3c-7.5,6.6-13.5,15-20.1,22.7c-2.9,3.4-2.9,7-1.1,11.3
		c10,23.6,21.3,46.6,35.3,68.2c28.3,43.3,68.9,66.1,119.3,73.3c30.7,4.4,59.7-1.1,87.4-14.6c31.2-15.2,59-35.3,84.7-58.5
		c7.3-6.5,14.1-13.5,21.9-21.1C1838.1,1282.3,1823.8,1258.7,1805.2,1238z"/>
	<path class="st13" d="M1779.5,1282.2c5.7,33.8-8.1,61.2-34.4,81.6c-55.5,42.9-127.4,19.3-159.1-22.6c-19.4-25.8-21.4-65.9-4.6-90.5
		c6.2-9.1,13.3-18.1,21.7-25.2c20.5-17.4,43.9-28.7,73.1-29.3C1721.1,1192.9,1769.9,1225.2,1779.5,1282.2z M1613.2,1347.2
		c32.4,24.2,67.6,32,105.5,14.6c27.1-12.5,44-33.8,46-64.1c1.4-22.2-7.8-41.6-22.2-58.1c-5.5-6.3-12.4-11.4-18.9-16.8
		c-2-1.7-4.5-3.1-7.1-3.8c-17.4-5.1-35.3-7.1-53-3.5c-23.3,4.7-43.2,16.7-60.3,33.2c-12.3,11.9-18.4,26.4-17.7,42.1
		C1586.4,1314.8,1595,1333.6,1613.2,1347.2z"/>
	<path d="M2349.6,1034.1c-35.6-1.8-71-3.6-106-9.1c-7.9-1.2-16-3.1-23.4-6.2c-14.3-6-15.8-17.7-3.6-27.3
		c14.6-11.6,31.9-17.4,49.8-21.6c26.6-6.2,53.8-7.2,80.5-2.7c17.7,3,34.9,9.8,51.9,16c6.7,2.5,13,7.3,18.2,12.4
		c9.2,9,7.8,20.7-3.2,27.3c-5.7,3.4-12.3,5.9-18.8,6.8C2379.9,1031.8,2364.8,1032.7,2349.6,1034.1z M2408.2,1008.4
		c-4.2-2.8-6.9-5.4-10.2-6.8c-9.6-4.1-19.1-8.8-29.2-11.2c-16.4-3.9-33-6.6-49.7-9c-30.1-4.3-58.3,2.7-85.1,16.2
		c-3.1,1.6-5.7,3.9-8.6,6c0.2,0.7,0.4,1.5,0.5,2.2c6.8,1.6,13.5,4.1,20.4,4.8c26.9,2.8,53.7,5.9,80.7,7.1
		c20.5,0.9,41.1-0.8,61.7-1.7C2395.1,1015.6,2401.3,1014,2408.2,1008.4z"/>
	<path d="M1613.7,1057.1c-6.5-0.5-13.4-2.5-19.3-5.5c-11.5-5.8-13.7-17.3-5.1-27c4.8-5.4,10.8-10.7,17.3-13.6
		c16.5-7.4,33.2-15.4,50.6-19.6c26.3-6.4,53.5-7.3,80.5-3c18.1,2.9,35.8,7.6,51.2,18.1c12.8,8.7,12.1,20.5-1.7,27.5
		c-7.1,3.6-15,6.1-22.9,7.8c-34.6,7.9-69.8,12.2-105.1,16.5C1644.1,1058,1628.9,1058.1,1613.7,1057.1z M1619,1042.8
		c20.6-0.5,41.3-0.3,61.7-2.6c26.8-3.1,53.4-8.1,80-12.7c6.8-1.2,13.4-4.1,20.1-6.2c0.1-0.8,0.2-1.5,0.4-2.3c-3-1.8-5.8-4-9-5.3
		c-27.7-11.6-56.3-16.6-86.1-10.2c-16.5,3.5-32.9,7.4-49,12.5c-9.9,3.1-19.1,8.5-28.4,13.2c-3.2,1.6-5.7,4.4-9.7,7.5
		C1606.3,1041.8,1612.6,1043,1619,1042.8z"/>
	<path class="st12" d="M2196.1,1505.1c-0.3-1.2-0.9-2.3-1.8-4.7c-1.8,2.4-3.1,3.6-3.8,5.2c-1.4,3.1-2.5,6.3-3.6,9.4
		c-7.7,22.9-23.6,38.1-45.2,47.7c-13.9,6.2-28.2,6.8-42.3,0.9c-20.5-8.6-39.9-18.9-51.5-40.9c1.6-2.9,3.2-5.9,4.9-8.7
		c10.4-17.2,24.6-31.3,39.3-44.7c4.1-3.8,9.4-6.3,14.4-8.9c2.1-1.1,4.3-1.9,5.9-3.8c0.2-0.1,0.3-0.2,0.5-0.2c-0.1,0-0.2-0.1-0.2-0.1
		c1-1.4,1.7-3.2,1.9-6c-4.3-0.5-8.1-1.4-11.9-1.2c-11.8,0.5-23.6,1.6-35.3,2.1c-10.9,0.5-21.8,0.9-32.8,1.3
		c-10.9,0.3-21.9,0.7-32.8,1c-11.8,0.3-23.6,0.1-35.4,0.4c-3.8,0.1-7.5,1.3-11.8,2.1c0.4,2.8,1.2,4.6,2.3,5.9
		c-0.1,0-0.1,0.1-0.2,0.1c0.2,0.1,0.4,0.1,0.5,0.2c1.7,1.8,4,2.4,6.1,3.4c5.2,2.3,10.7,4.4,15,7.9c15.6,12.4,30.7,25.4,42.3,41.9
		c1.9,2.7,3.7,5.5,5.5,8.4c-10,22.8-28.6,34.4-48.5,44.4c-13.6,6.8-28,7.2-42.3,2.1c-22.3-8.1-39.2-22.1-48.4-44.4
		c-1.3-3.1-2.6-6.2-4.2-9.2c-0.8-1.5-2.2-2.7-4.2-4.9c-0.8,2.4-1.3,3.6-1.5,4.8c-1.6,10.2,1.7,19.3,6.6,28
		c10.3,18.3,25.9,30.8,44.2,40.3c24.7,12.8,48.1,11.2,71.9-3.4c16.7-10.3,27.8-24.9,37.9-40.6c11.2,15,23.3,28.8,40.7,37.9
		c24.7,12.9,48.3,12.9,72-1.6c17.6-10.8,32.2-24.4,41.3-43.3C2195.8,1524.5,2198.4,1515.2,2196.1,1505.1z M2036.4,1507.2
		c-0.5-0.6-1-1.2-1.5-1.7c-7.4-14-17.8-24.8-30.7-33.3c0.4-0.7,0.8-1.4,1.2-2.2c19.4-0.7,38.8-1.4,59.3-2.1c0.5,0.7,0.9,1.4,1.4,2.1
		c-12.3,9.4-21.9,20.9-28.3,35.4C2037.3,1506,2036.9,1506.6,2036.4,1507.2z"/>
	<path class="st12" d="M2314.1,1237.4c-3.5,3.3-12.5,12-13.3,26c-0.9,15.1,8.6,25.5,10.5,27.5c14.8,16.1,37.3,13.2,40.8,12.8
		c4.5-0.6,24.6-3.1,34.9-20.8c1.8-3.2,8.4-15.5,4.3-29.8c-6.5-22.7-33.3-28-35.4-28.4C2339.8,1221.8,2324.3,1227.6,2314.1,1237.4z"
		/>
	<path class="st12" d="M1646.1,1262.4c-3.5,3.3-12.5,12-13.3,26c-0.9,15.1,8.6,25.5,10.5,27.5c14.8,16.1,37.3,13.2,40.8,12.8
		c4.5-0.6,24.6-3.1,34.9-20.8c1.8-3.2,8.4-15.5,4.3-29.8c-6.5-22.7-33.3-28-35.4-28.4C1671.8,1246.8,1656.3,1252.6,1646.1,1262.4z"
		/>
	<path class="st3" d="M1640.4,1236.3c-28.5-26.5-80.3-28.2-96.8-4.9c-5.4,7.7-8,19.5-4,29.6c14.5,36.1,108.4,38.5,119.5,13.8
		C1665.7,1260.3,1642.8,1238.5,1640.4,1236.3z"/>
	<path class="st3" d="M2307.7,1216.9c-21.8-19.8-58-22.2-80.5-3.9c-4.1,3.3-19.5,15.8-16.6,27.8c6.6,27.3,103.5,37.7,115.2,13.4
		C2331.6,1242,2315.2,1223.6,2307.7,1216.9z"/>
</g>
</svg>
